
# position 0 0 0
g Motorway 2x2 002-road material
v -35.00001 0 8.930004
v -37.99859 0 11.10627
v -38.00001 0 8.930004
v -34.99859 0 11.1032
v -37.99563 0 13.19777
v -34.99564 0 13.19293
v -37.99168 0 15.38864
v -34.99169 0 15.38315
v -37.98722 0 17.79625
v -34.98722 0 17.79068

vn 0 1 0
vn 0 1 0
vn 0 1 0
vn 0 1 0
vn 0 1 0
vn 0 1 0
vn 0 1 0
vn 0 1 0
vn 0 1 0
vn 0 1 0

vt 0 -0.1892793 0.0
vt 1 0.2453586 0.0
vt 1 -0.1898946 0.0
vt 0 0.2453586 0.0
vt 1 0.4812277 0.0
vt 0 0.4812277 0.0
vt 1 0.7283708 0.0
vt 0 0.7283708 0.0
vt 1 0.9999999 0.0
vt 0 0.9999999 0.0


usemtl material
usemap material
f 2/2/2 1/1/1 3/3/3
s 1
f 2/2/2 4/4/4 1/1/1
s 1
f 5/5/5 4/4/4 2/2/2
s 1
f 5/5/5 6/6/6 4/4/4
s 1
f 7/7/7 6/6/6 5/5/5
s 1
f 7/7/7 8/8/8 6/6/6
s 1
f 9/9/9 8/8/8 7/7/7
s 1
f 9/9/9 10/10/10 8/8/8
s 1
s 1

# position 0 0 0
g Motorway 2x2 002-sidewalk
v -33.50001 0.25 8.930004
v -33.74859 0.25 11.10191
v -33.75001 0.25 8.930004
v -33.49859 0.25 11.10166
v -34.74859 0.25 11.10294
v -34.75001 0.25 8.930004
v -34.99859 0.25 11.1032
v -35.00001 0.25 8.930004
v -34.99859 0 11.1032
v -35.00001 0 8.930004
v -38.00001 0 8.930004
v -37.99859 0.25 11.10627
v -38.00001 0.25 8.930004
v -37.99859 0 11.10627
v -38.24859 0.25 11.10653
v -38.25001 0.25 8.930004
v -39.24859 0.25 11.10755
v -39.25001 0.25 8.930004
v -39.49859 0.25 11.10781
v -39.50001 0.25 8.930004
v -33.74564 0.25 13.19091
v -33.49564 0.25 13.19051
v -34.74564 0.25 13.19253
v -34.99564 0.25 13.19293
v -34.99564 0 13.19293
v -37.99563 0.25 13.19777
v -37.99563 0 13.19777
v -38.24563 0.25 13.19817
v -39.24563 0.25 13.19979
v -39.49563 0.25 13.20019
v -33.74169 0.25 15.38086
v -33.49169 0.25 15.3804
v -34.74169 0.25 15.38269
v -34.99169 0.25 15.38315
v -34.99169 0 15.38315
v -37.99168 0.25 15.38864
v -37.99168 0 15.38864
v -38.24168 0.25 15.38909
v -39.24168 0.25 15.39092
v -39.49168 0.25 15.39138
v -33.73722 0.25 17.78837
v -33.48722 0.25 17.7879
v -34.73722 0.25 17.79022
v -34.98722 0.25 17.79068
v -34.98722 0 17.79068
v -37.98722 0.25 17.79625
v -37.98722 0 17.79625
v -38.23722 0.25 17.79671
v -39.23722 0.25 17.79856
v -39.48722 0.25 17.79903

vn 0 0.9999999 0
vn 0 0.9999999 0
vn 0 0.9999999 0
vn 0 0.9999999 0
vn 0 1 0
vn 0 1 0
vn -0.7024912 0.711692 0.0008099286
vn -0.7024912 0.711692 0.0008099286
vn -0.9999997 0 0.0008997215
vn -0.9999997 0 0.0008997215
vn 0.9999993 0 -0.00115414
vn 0.7117642 0.7024183 -0.0006404458
vn 0.7117642 0.7024183 -0.0006404458
vn 0.9999993 0 -0.00115414
vn 0 0.9999999 0
vn 0 0.9999999 0
vn 0 1 0
vn 0 1 0
vn 0 1 0
vn 0 1 0
vn 0 1 0
vn 0 1 0
vn 0 0.9999999 0
vn -0.7126254 0.7015437 0.001194911
vn -0.9999989 0 0.001546913
vn 0.7016121 0.7125584 -0.001086303
vn 0.9999986 0 -0.001677156
vn 0 1 0
vn 0 1 0
vn 0 1 0
vn 0 1 0
vn 0 0.9999999 0
vn 0 1 0
vn -0.7181595 0.6958773 0.001319863
vn -0.9999983 0 0.001820809
vn 0.6959092 0.7181286 -0.001266864
vn 0.9999984 0 -0.001837629
vn 0 1 0
vn 0 1 0
vn 0 0.9999999 0
vn 0 1 0
vn 0 0.9999999 0
vn 0 1 0
vn -0.4472127 0.8944273 0.0008290626
vn -0.9999983 0 0.001853841
vn 0.8944253 0.4472142 -0.001658074
vn 0.9999983 0 -0.001853784
vn 0 1 0
vn 0 1 0
vn 0 1 0

vt 1 -0.1889715 0.0
vt 0.865201 0.2453586 0.0
vt 0.865201 -0.1890228 0.0
vt 1 0.2453586 0.0
vt 0.1315237 0.2453586 0.0
vt 0.1315237 -0.189228 0.0
vt 0.06601681 0.2453586 0.0
vt 0.06601681 -0.1892793 0.0
vt 0 0.2453586 0.0
vt 0 -0.1892793 0.0
vt 0 -0.1898946 0.0
vt 0.06601681 0.2453586 0.0
vt 0.06601681 -0.1898946 0.0
vt 0 0.2453586 0.0
vt 0.1315237 0.2453586 0.0
vt 0.1315237 -0.189946 0.0
vt 0.865201 0.2453586 0.0
vt 0.865201 -0.1901512 0.0
vt 1 0.2453586 0.0
vt 1 -0.1902025 0.0
vt 0.865201 0.4812277 0.0
vt 1 0.4812277 0.0
vt 0.1315237 0.4812277 0.0
vt 0.06601681 0.4812277 0.0
vt 0 0.4812277 0.0
vt 0.06601681 0.4812277 0.0
vt 0 0.4812277 0.0
vt 0.1315237 0.4812277 0.0
vt 0.865201 0.4812277 0.0
vt 1 0.4812277 0.0
vt 0.865201 0.7283708 0.0
vt 1 0.7283708 0.0
vt 0.1315237 0.7283708 0.0
vt 0.06601681 0.7283708 0.0
vt 0 0.7283708 0.0
vt 0.06601681 0.7283708 0.0
vt 0 0.7283708 0.0
vt 0.1315237 0.7283708 0.0
vt 0.865201 0.7283708 0.0
vt 1 0.7283708 0.0
vt 0.865201 0.9999999 0.0
vt 1 0.9999999 0.0
vt 0.1315237 0.9999999 0.0
vt 0.06601681 0.9999999 0.0
vt 0 0.9999999 0.0
vt 0.06601681 0.9999999 0.0
vt 0 0.9999999 0.0
vt 0.1315237 0.9999999 0.0
vt 0.865201 0.9999999 0.0
vt 1 0.9999999 0.0


usemtl material
usemap material
f 12/12/12 11/11/11 13/13/13
s 1
f 12/12/12 14/14/14 11/11/11
s 1
f 15/15/15 13/13/13 16/16/16
s 1
f 15/15/15 12/12/12 13/13/13
s 1
f 17/17/17 16/16/16 18/18/18
s 1
f 17/17/17 15/15/15 16/16/16
s 1
f 19/19/19 18/18/18 20/20/20
s 1
f 19/19/19 17/17/17 18/18/18
s 1
f 22/22/22 21/21/21 23/23/23
s 1
f 22/22/22 24/24/24 21/21/21
s 1
f 25/25/25 23/23/23 26/26/26
s 1
f 25/25/25 22/22/22 23/23/23
s 1
f 27/27/27 26/26/26 28/28/28
s 1
f 27/27/27 25/25/25 26/26/26
s 1
f 29/29/29 28/28/28 30/30/30
s 1
f 29/29/29 27/27/27 28/28/28
s 1
f 31/31/31 14/14/14 12/12/12
s 1
f 31/31/31 32/32/32 14/14/14
s 1
f 33/33/33 12/12/12 15/15/15
s 1
f 33/33/33 31/31/31 12/12/12
s 1
f 34/34/34 15/15/15 17/17/17
s 1
f 34/34/34 33/33/33 15/15/15
s 1
f 35/35/35 17/17/17 19/19/19
s 1
f 35/35/35 34/34/34 17/17/17
s 1
f 36/36/36 24/24/24 22/22/22
s 1
f 36/36/36 37/37/37 24/24/24
s 1
f 38/38/38 22/22/22 25/25/25
s 1
f 38/38/38 36/36/36 22/22/22
s 1
f 39/39/39 25/25/25 27/27/27
s 1
f 39/39/39 38/38/38 25/25/25
s 1
f 40/40/40 27/27/27 29/29/29
s 1
f 40/40/40 39/39/39 27/27/27
s 1
f 41/41/41 32/32/32 31/31/31
s 1
f 41/41/41 42/42/42 32/32/32
s 1
f 43/43/43 31/31/31 33/33/33
s 1
f 43/43/43 41/41/41 31/31/31
s 1
f 44/44/44 33/33/33 34/34/34
s 1
f 44/44/44 43/43/43 33/33/33
s 1
f 45/45/45 34/34/34 35/35/35
s 1
f 45/45/45 44/44/44 34/34/34
s 1
f 46/46/46 37/37/37 36/36/36
s 1
f 46/46/46 47/47/47 37/37/37
s 1
f 48/48/48 36/36/36 38/38/38
s 1
f 48/48/48 46/46/46 36/36/36
s 1
f 49/49/49 38/38/38 39/39/39
s 1
f 49/49/49 48/48/48 38/38/38
s 1
f 50/50/50 39/39/39 40/40/40
s 1
f 50/50/50 49/49/49 39/39/39
s 1
f 51/51/51 42/42/42 41/41/41
s 1
f 51/51/51 52/52/52 42/42/42
s 1
f 53/53/53 41/41/41 43/43/43
s 1
f 53/53/53 51/51/51 41/41/41
s 1
f 54/54/54 43/43/43 44/44/44
s 1
f 54/54/54 53/53/53 43/43/43
s 1
f 55/55/55 44/44/44 45/45/45
s 1
f 55/55/55 54/54/54 44/44/44
s 1
f 56/56/56 47/47/47 46/46/46
s 1
f 56/56/56 57/57/57 47/47/47
s 1
f 58/58/58 46/46/46 48/48/48
s 1
f 58/58/58 56/56/56 46/46/46
s 1
f 59/59/59 48/48/48 49/49/49
s 1
f 59/59/59 58/58/58 48/48/48
s 1
f 60/60/60 49/49/49 50/50/50
s 1
f 60/60/60 59/59/59 49/49/49
s 1
s 1

