
# position 0 0 0
g Motorway 2x2 0022-road material
v -70.99001 0 17.49
v -67.98676 -0.0115574 15.29346
v -67.99001 0 17.49
v -70.98674 -0.0106841 15.28655
v -67.98035 -0.02765156 13.29488
v -70.98033 -0.02761948 13.28515
v -67.97379 -0.02153083 11.29355
v -70.97377 -0.02150698 11.28648
v -67.97002 0 8.909998
v -70.97002 0 8.909998

vn 0.0002194226 0.9999752 -0.007045996
vn 0.0002008071 0.9999821 -0.005990718
vn 0.0002008071 0.9999821 -0.005990718
vn 0.0002194226 0.9999752 -0.007045996
vn 0.000116095 0.9999899 -0.004483399
vn 1.322241E-05 0.9999997 -0.0007834684
vn -4.505313E-06 0.9999861 0.005289146
vn -4.485382E-06 0.9999735 0.007271947
vn -6.679858E-06 0.9999592 0.009041106
vn 0 0.9999591 0.009049548

vt 0 -0.184286 0.0
vt 1 0.256409 0.0
vt 1 -0.1829052 0.0
vt 0 0.256409 0.0
vt 1 0.4895089 0.0
vt 0 0.4895089 0.0
vt 1 0.7226091 0.0
vt 0 0.7226091 0.0
vt 1 1.19934 0.0
vt 0 1.197926 0.0


usemtl material
usemap material
f 2/2/2 1/1/1 3/3/3
s 1
f 2/2/2 4/4/4 1/1/1
s 1
f 5/5/5 4/4/4 2/2/2
s 1
f 5/5/5 6/6/6 4/4/4
s 1
f 7/7/7 6/6/6 5/5/5
s 1
f 7/7/7 8/8/8 6/6/6
s 1
f 9/9/9 8/8/8 7/7/7
s 1
f 9/9/9 10/10/10 8/8/8
s 1
s 1

# position 0 0 0
g Motorway 2x2 0022-sidewalk
v -72.49002 0.25 17.49
v -72.23675 0.2396798 15.28367
v -72.24002 0.25 17.49
v -72.48675 0.2397525 15.2831
v -71.23674 0.2393887 15.28598
v -71.24001 0.25 17.49
v -70.98674 0.2393159 15.28655
v -70.99001 0.25 17.49
v -70.98674 -0.0106841 15.28655
v -70.99001 0 17.49
v -67.99001 0 17.49
v -67.98676 0.2384426 15.29346
v -67.99001 0.25 17.49
v -67.98676 -0.0115574 15.29346
v -67.73676 0.2383698 15.29404
v -67.74001 0.25 17.49
v -66.73676 0.2380787 15.29634
v -66.74001 0.25 17.49
v -66.48676 0.2380059 15.29692
v -66.49001 0.25 17.49
v -72.23033 0.2223939 13.2811
v -72.48033 0.2223966 13.28029
v -71.23033 0.2223832 13.28434
v -70.98033 0.2223805 13.28515
v -70.98033 -0.02761948 13.28515
v -67.98035 0.2223484 13.29488
v -67.98035 -0.02765156 13.29488
v -67.73035 0.2223458 13.29569
v -66.73035 0.2223351 13.29893
v -66.48035 0.2223324 13.29974
v -72.22378 0.228503 11.28354
v -72.47378 0.2285049 11.28295
v -71.22377 0.228495 11.28589
v -70.97377 0.228493 11.28648
v -70.97377 -0.02150698 11.28648
v -67.97379 0.2284692 11.29355
v -67.97379 -0.02153083 11.29355
v -67.72379 0.2284672 11.29414
v -66.72379 0.2284592 11.2965
v -66.47379 0.2284573 11.29709
v -72.22002 0.25 8.909998
v -72.47002 0.25 8.909998
v -71.22002 0.25 8.909998
v -70.97002 0.25 8.909998
v -70.97002 0 8.909998
v -67.97002 0.25 8.909998
v -67.97002 0 8.909998
v -67.72002 0.25 8.909998
v -66.72002 0.25 8.909998
v -66.47002 0.25 8.909998

vn 0.0002199602 0.9999739 -0.00722519
vn 0.0002159398 0.9999761 -0.006919165
vn 0.0002159398 0.9999761 -0.006919165
vn 0.0002199602 0.9999739 -0.00722519
vn 0.0002045382 0.999981 -0.00616172
vn 0.0002045382 0.999981 -0.00616172
vn 0.6957308 0.7182984 -0.002481146
vn 0.6957308 0.7182984 -0.002481146
vn 0.9999979 0 0.00202155
vn 0.9999979 0 0.00202155
vn -0.9999966 0 -0.002595389
vn -0.7180623 0.6959498 -0.006359654
vn -0.7180623 0.6959498 -0.006359654
vn -0.9999966 0 -0.002595389
vn 0.0002154516 0.9999767 -0.0068292
vn 0.0002154516 0.9999767 -0.0068292
vn 0.0002045284 0.99998 -0.00631767
vn 0.0002045284 0.99998 -0.00631767
vn 0.0002010586 0.9999808 -0.006200768
vn 0.0002010586 0.9999808 -0.006200768
vn 3.412748E-05 0.9999986 -0.001626459
vn 1.343537E-05 0.9999997 -0.0008567089
vn 9.606974E-05 0.9999924 -0.003915084
vn 0.7069694 0.7072435 -0.0009774881
vn 0.9999947 0 0.003228968
vn -0.7069218 0.7072864 -0.002737744
vn -0.9999948 0 -0.003254523
vn 3.329712E-05 0.9999991 -0.00136989
vn 9.488243E-05 0.9999938 -0.003535857
vn 0.00011532 0.9999911 -0.004216916
vn -4.505087E-06 0.9999762 0.006899814
vn -4.512078E-06 0.9999735 0.007280602
vn -4.509543E-06 0.9999838 0.00570822
vn 0.7271581 0.6864508 0.005148138
vn 0.9999965 0 0.002647732
vn -0.6862357 0.727371 0.003470059
vn -0.9999979 0 -0.002083066
vn -4.480776E-06 0.9999763 0.006887042
vn -4.499349E-06 0.9999838 0.00570073
vn -4.505483E-06 0.9999861 0.005286344
vn -2.23737E-06 0.999959 0.009056825
vn 0 0.999959 0.009058007
vn -5.952322E-06 0.9999591 0.00905345
vn 0.4472352 0.8943731 0.008801042
vn 0.9999987 0 0.001579501
vn -0.8944241 0.447212 0.00262542
vn -0.9999987 0 -0.001581217
vn -2.217502E-06 0.9999592 0.009031542
vn -5.925874E-06 0.9999592 0.009028197
vn -6.674611E-06 0.9999593 0.009025014

vt 1 -0.1849766 0.0
vt 0.865201 0.256409 0.0
vt 0.865201 -0.1848614 0.0
vt 1 0.256409 0.0
vt 0.1315237 0.256409 0.0
vt 0.1315237 -0.1844011 0.0
vt 0.06601681 0.256409 0.0
vt 0.06601681 -0.184286 0.0
vt 0 0.256409 0.0
vt 0 -0.184286 0.0
vt 0 -0.1829052 0.0
vt 0.06601681 0.256409 0.0
vt 0.06601681 -0.1829052 0.0
vt 0 0.256409 0.0
vt 0.1315237 0.256409 0.0
vt 0.1315237 -0.1827901 0.0
vt 0.865201 0.256409 0.0
vt 0.865201 -0.1823298 0.0
vt 1 0.256409 0.0
vt 1 -0.1822147 0.0
vt 0.865201 0.4895089 0.0
vt 1 0.4895089 0.0
vt 0.1315237 0.4895089 0.0
vt 0.06601681 0.4895089 0.0
vt 0 0.4895089 0.0
vt 0.06601681 0.4895089 0.0
vt 0 0.4895089 0.0
vt 0.1315237 0.4895089 0.0
vt 0.865201 0.4895089 0.0
vt 1 0.4895089 0.0
vt 0.865201 0.7226091 0.0
vt 1 0.7226091 0.0
vt 0.1315237 0.7226091 0.0
vt 0.06601681 0.7226091 0.0
vt 0 0.7226091 0.0
vt 0.06601681 0.7226091 0.0
vt 0 0.7226091 0.0
vt 0.1315237 0.7226091 0.0
vt 0.865201 0.7226091 0.0
vt 1 0.7226091 0.0
vt 0.865201 1.197337 0.0
vt 1 1.197219 0.0
vt 0.1315237 1.197808 0.0
vt 0.06601681 1.197926 0.0
vt 0 1.197926 0.0
vt 0.06601681 1.19934 0.0
vt 0 1.19934 0.0
vt 0.1315237 1.199458 0.0
vt 0.865201 1.199929 0.0
vt 1 1.200047 0.0


usemtl material
usemap material
f 12/12/12 11/11/11 13/13/13
s 1
f 12/12/12 14/14/14 11/11/11
s 1
f 15/15/15 13/13/13 16/16/16
s 1
f 15/15/15 12/12/12 13/13/13
s 1
f 17/17/17 16/16/16 18/18/18
s 1
f 17/17/17 15/15/15 16/16/16
s 1
f 19/19/19 18/18/18 20/20/20
s 1
f 19/19/19 17/17/17 18/18/18
s 1
f 22/22/22 21/21/21 23/23/23
s 1
f 22/22/22 24/24/24 21/21/21
s 1
f 25/25/25 23/23/23 26/26/26
s 1
f 25/25/25 22/22/22 23/23/23
s 1
f 27/27/27 26/26/26 28/28/28
s 1
f 27/27/27 25/25/25 26/26/26
s 1
f 29/29/29 28/28/28 30/30/30
s 1
f 29/29/29 27/27/27 28/28/28
s 1
f 31/31/31 14/14/14 12/12/12
s 1
f 31/31/31 32/32/32 14/14/14
s 1
f 33/33/33 12/12/12 15/15/15
s 1
f 33/33/33 31/31/31 12/12/12
s 1
f 34/34/34 15/15/15 17/17/17
s 1
f 34/34/34 33/33/33 15/15/15
s 1
f 35/35/35 17/17/17 19/19/19
s 1
f 35/35/35 34/34/34 17/17/17
s 1
f 36/36/36 24/24/24 22/22/22
s 1
f 36/36/36 37/37/37 24/24/24
s 1
f 38/38/38 22/22/22 25/25/25
s 1
f 38/38/38 36/36/36 22/22/22
s 1
f 39/39/39 25/25/25 27/27/27
s 1
f 39/39/39 38/38/38 25/25/25
s 1
f 40/40/40 27/27/27 29/29/29
s 1
f 40/40/40 39/39/39 27/27/27
s 1
f 41/41/41 32/32/32 31/31/31
s 1
f 41/41/41 42/42/42 32/32/32
s 1
f 43/43/43 31/31/31 33/33/33
s 1
f 43/43/43 41/41/41 31/31/31
s 1
f 44/44/44 33/33/33 34/34/34
s 1
f 44/44/44 43/43/43 33/33/33
s 1
f 45/45/45 34/34/34 35/35/35
s 1
f 45/45/45 44/44/44 34/34/34
s 1
f 46/46/46 37/37/37 36/36/36
s 1
f 46/46/46 47/47/47 37/37/37
s 1
f 48/48/48 36/36/36 38/38/38
s 1
f 48/48/48 46/46/46 36/36/36
s 1
f 49/49/49 38/38/38 39/39/39
s 1
f 49/49/49 48/48/48 38/38/38
s 1
f 50/50/50 39/39/39 40/40/40
s 1
f 50/50/50 49/49/49 39/39/39
s 1
f 51/51/51 42/42/42 41/41/41
s 1
f 51/51/51 52/52/52 42/42/42
s 1
f 53/53/53 41/41/41 43/43/43
s 1
f 53/53/53 51/51/51 41/41/41
s 1
f 54/54/54 43/43/43 44/44/44
s 1
f 54/54/54 53/53/53 43/43/43
s 1
f 55/55/55 44/44/44 45/45/45
s 1
f 55/55/55 54/54/54 44/44/44
s 1
f 56/56/56 47/47/47 46/46/46
s 1
f 56/56/56 57/57/57 47/47/47
s 1
f 58/58/58 46/46/46 48/48/48
s 1
f 58/58/58 56/56/56 46/46/46
s 1
f 59/59/59 48/48/48 49/49/49
s 1
f 59/59/59 58/58/58 48/48/48
s 1
f 60/60/60 49/49/49 50/50/50
s 1
f 60/60/60 59/59/59 49/49/49
s 1
s 1

