
# position 0 0 0
g Motorway 2x2 0013-road material
v 52 0 39.1
v 55.01463 -0.01890916 37.11577
v 55 0 39.1
v 52.015 -0.01905848 37.06851
v 55.06247 -0.005941582 35.13589
v 52.06387 -0.006010061 35.0441
v 55.14217 -1.410013E-05 32.95234
v 52.14458 -1.426706E-05 32.83221
v 55.23775 0 30.76362
v 52.24068 0 30.631
v 55.33633 0 28.5647
v 52.33888 0 28.44112
v 55.44879 0 25.64264
v 52.45017 0 25.55156

vn -9.096885E-05 0.9999993 0.001150925
vn -1.729743E-05 0.9999913 -0.004169755
vn -1.729743E-05 0.9999913 -0.004169755
vn -9.096885E-05 0.9999993 0.001150925
vn -0.0001582227 0.9999866 0.005157613
vn -0.0001427402 0.9999924 0.003885071
vn -7.164965E-05 0.9999983 0.00181025
vn -3.655516E-05 0.9999996 0.0009109894
vn -1.997078E-07 1 4.296534E-06
vn -9.561249E-08 1 2.160711E-06
vn 0 1 0
vn 0 1 0
vn 0 1 0
vn 0 1 0

vt 1 -0.1091097 0.0
vt 0 0.2972165 0.0
vt 0 -0.0996583 0.0
vt 1 0.2972165 0.0
vt 0 0.5936661 0.0
vt 1 0.5936661 0.0
vt 0 0.9191948 0.0
vt 1 0.9191948 0.0
vt 0 1.244409 0.0
vt 1 1.244409 0.0
vt 0 1.569555 0.0
vt 1 1.569555 0.0
vt 0 2.154401 0.0
vt 1 2.147896 0.0


usemtl material
usemap material
f 2/2/2 1/1/1 3/3/3
s 1
f 2/2/2 4/4/4 1/1/1
s 1
f 5/5/5 4/4/4 2/2/2
s 1
f 5/5/5 6/6/6 4/4/4
s 1
f 7/7/7 6/6/6 5/5/5
s 1
f 7/7/7 8/8/8 6/6/6
s 1
f 9/9/9 8/8/8 7/7/7
s 1
f 9/9/9 10/10/10 8/8/8
s 1
f 11/11/11 10/10/10 9/9/9
s 1
f 11/11/11 12/12/12 10/10/10
s 1
f 13/13/13 12/12/12 11/11/11
s 1
f 13/13/13 14/14/14 12/12/12
s 1
s 1

# position 0 0 0
g Motorway 2x2 0013-sidewalk
v 50.5 0.25 39.1
v 50.76515 0.2308793 37.04882
v 50.75 0.25 39.1
v 50.51519 0.2308669 37.04489
v 51.76503 0.2309291 37.06458
v 51.75 0.25 39.1
v 52.015 0.2309415 37.06851
v 52 0.25 39.1
v 52.015 -0.01905848 37.06851
v 52 0 39.1
v 55 0 39.1
v 55.01463 0.2310908 37.11577
v 55 0.25 39.1
v 55.01463 -0.01890916 37.11577
v 55.2646 0.2311033 37.11971
v 55.25 0.25 39.1
v 56.26447 0.231153 37.13546
v 56.25 0.25 39.1
v 56.51444 0.2311655 37.13939
v 56.5 0.25 39.1
v 50.81446 0.2439614 35.00585
v 50.56458 0.2439557 34.9982
v 51.81399 0.2439842 35.03645
v 52.06387 0.2439899 35.0441
v 52.06387 -0.006010061 35.0441
v 55.06247 0.2440584 35.13589
v 55.06247 -0.005941582 35.13589
v 55.31235 0.2440641 35.14354
v 56.31188 0.244087 35.17413
v 56.56177 0.2440927 35.18178
v 50.89558 0.2499857 32.78215
v 50.64578 0.2499857 32.77214
v 51.89478 0.2499857 32.8222
v 52.14458 0.2499857 32.83221
v 52.14458 -1.426706E-05 32.83221
v 55.14217 0.2499859 32.95234
v 55.14217 -1.410013E-05 32.95234
v 55.39197 0.2499859 32.96235
v 56.39117 0.249986 33.00239
v 56.64097 0.249986 33.01241
v 50.9919 0.25 30.57574
v 50.74215 0.25 30.56468
v 51.99092 0.25 30.61994
v 52.24068 0.25 30.631
v 52.24068 0 30.631
v 55.23775 0.25 30.76362
v 55.23775 0 30.76362
v 55.4875 0.25 30.77467
v 56.48652 0.25 30.81888
v 56.73628 0.25 30.82993
v 51.08994 0.25 28.38964
v 50.84016 0.25 28.37934
v 52.08909 0.25 28.43083
v 52.33888 0.25 28.44112
v 52.33888 0 28.44112
v 55.33633 0.25 28.5647
v 55.33633 0 28.5647
v 55.58612 0.25 28.575
v 56.58527 0.25 28.61619
v 56.83506 0.25 28.62649
v 51.20074 0.25 25.51361
v 50.95086 0.25 25.50602
v 52.20028 0.25 25.54397
v 52.45017 0.25 25.55156
v 52.45017 0 25.55156
v 55.44879 0.25 25.64264
v 55.44879 0 25.64264
v 55.69867 0.25 25.65023
v 56.69821 0.25 25.68059
v 56.9481 0.25 25.68818

vn -9.044164E-05 0.9999994 0.001143595
vn -7.591643E-05 1 9.311423E-05
vn -7.591643E-05 1 9.311423E-05
vn -9.044164E-05 0.9999994 0.001143595
vn -3.217283E-05 0.9999953 -0.003061617
vn -3.217283E-05 0.9999953 -0.003061617
vn 0.7063944 0.7077453 0.01018472
vn 0.7063944 0.7077453 0.01018472
vn 0.999916 0 0.01295565
vn 0.999916 0 0.01295565
vn -0.9998279 0 -0.01855561
vn -0.7075328 0.7066313 -0.008335627
vn -0.7075328 0.7066313 -0.008335627
vn -0.9998279 0 -0.01855561
vn -7.694916E-05 0.9999999 0.0001048942
vn -7.694916E-05 0.9999999 0.0001048942
vn -3.224112E-05 0.9999952 -0.003125716
vn -3.224112E-05 0.9999952 -0.003125716
vn -1.733496E-05 0.9999912 -0.004207977
vn -1.733496E-05 0.9999912 -0.004207977
vn -0.0001450924 0.9999916 0.004109413
vn -0.000142137 0.9999925 0.003865614
vn -0.0001540912 0.9999883 0.004856986
vn 0.7168016 0.6967564 0.02694614
vn 0.9995941 0 0.02849179
vn -0.6953801 0.71844 -0.01704344
vn -0.9994673 0 -0.03263634
vn -0.0001465259 0.9999914 0.004159377
vn -0.0001560528 0.9999878 0.004936838
vn -0.0001594672 0.9999864 0.005210891
vn -4.360381E-05 0.9999995 0.001091464
vn -3.656546E-05 0.9999995 0.0009109408
vn -6.465264E-05 0.9999986 0.001630736
vn 0.7057946 0.7077637 0.03040365
vn 0.9992454 0 0.03883975
vn -0.7063424 0.7073616 -0.02683035
vn -0.999149 0 -0.04124693
vn -4.340277E-05 0.9999994 0.001086775
vn -6.449495E-05 0.9999987 0.001627218
vn -7.152103E-05 0.9999985 0.001807007
vn -1.175687E-07 1 2.607404E-06
vn -9.634054E-08 1 2.176914E-06
vn -1.81112E-07 1 3.895766E-06
vn 0.7057524 0.7077636 0.03137242
vn 0.9990311 0 0.04400956
vn -0.7058268 0.7077016 -0.03109502
vn -0.9990137 0 -0.04440239
vn -1.154875E-07 1 2.560579E-06
vn -1.746619E-07 1 3.839344E-06
vn -1.995703E-07 0.9999999 4.26233E-06
vn 0 1 0
vn 0 1 0
vn 0 1 0
vn 0.7382018 0.6739252 0.02971501
vn 0.9991054 0 0.04229041
vn -0.6723852 0.7396548 -0.02844151
vn -0.9991921 0 -0.04018784
vn 0 1 0
vn 0 1 0
vn 0 1 0
vn 0 1 0
vn 0 0.9999999 0
vn 0 1 0
vn 0.4470541 0.8943411 0.01721746
vn 0.9992592 0 0.03848462
vn -0.8937709 0.447203 -0.03439611
vn -0.9992603 0 -0.03845579
vn 0 1 0
vn 0 1 0
vn 0 1 0

vt 1 -0.1138347 0.0
vt 0.865201 0.2972165 0.0
vt 0.865201 -0.1130473 0.0
vt 1 0.2972165 0.0
vt 0.1315237 0.2972165 0.0
vt 0.1315237 -0.1098971 0.0
vt 0.06601681 0.2972165 0.0
vt 0.06601681 -0.1091097 0.0
vt 0 0.2972165 0.0
vt 0 -0.1091097 0.0
vt 0 -0.0996583 0.0
vt 0.06601681 0.2972165 0.0
vt 0.06601681 -0.0996583 0.0
vt 0 0.2972165 0.0
vt 0.1315237 0.2972165 0.0
vt 0.1315237 -0.09887093 0.0
vt 0.865201 0.2972165 0.0
vt 0.865201 -0.09572072 0.0
vt 1 0.2972165 0.0
vt 1 -0.09493335 0.0
vt 0.865201 0.5936661 0.0
vt 1 0.5936661 0.0
vt 0.1315237 0.5936661 0.0
vt 0.06601681 0.5936661 0.0
vt 0 0.5936661 0.0
vt 0.06601681 0.5936661 0.0
vt 0 0.5936661 0.0
vt 0.1315237 0.5936661 0.0
vt 0.865201 0.5936661 0.0
vt 1 0.5936661 0.0
vt 0.865201 0.9191948 0.0
vt 1 0.9191948 0.0
vt 0.1315237 0.9191948 0.0
vt 0.06601681 0.9191948 0.0
vt 0 0.9191948 0.0
vt 0.06601681 0.9191948 0.0
vt 0 0.9191948 0.0
vt 0.1315237 0.9191948 0.0
vt 0.865201 0.9191948 0.0
vt 1 0.9191948 0.0
vt 0.865201 1.244409 0.0
vt 1 1.244409 0.0
vt 0.1315237 1.244409 0.0
vt 0.06601681 1.244409 0.0
vt 0 1.244409 0.0
vt 0.06601681 1.244409 0.0
vt 0 1.244409 0.0
vt 0.1315237 1.244409 0.0
vt 0.865201 1.244409 0.0
vt 1 1.244409 0.0
vt 0.865201 1.569555 0.0
vt 1 1.569555 0.0
vt 0.1315237 1.569555 0.0
vt 0.06601681 1.569555 0.0
vt 0 1.569555 0.0
vt 0.06601681 1.569555 0.0
vt 0 1.569555 0.0
vt 0.1315237 1.569555 0.0
vt 0.865201 1.569555 0.0
vt 1 1.569555 0.0
vt 0.865201 2.145186 0.0
vt 1 2.144644 0.0
vt 0.1315237 2.147354 0.0
vt 0.06601681 2.147896 0.0
vt 0 2.147896 0.0
vt 0.06601681 2.154401 0.0
vt 0 2.154401 0.0
vt 0.1315237 2.154943 0.0
vt 0.865201 2.15711 0.0
vt 1 2.157652 0.0


usemtl material
usemap material
f 16/16/16 15/15/15 17/17/17
s 1
f 16/16/16 18/18/18 15/15/15
s 1
f 19/19/19 17/17/17 20/20/20
s 1
f 19/19/19 16/16/16 17/17/17
s 1
f 21/21/21 20/20/20 22/22/22
s 1
f 21/21/21 19/19/19 20/20/20
s 1
f 23/23/23 22/22/22 24/24/24
s 1
f 23/23/23 21/21/21 22/22/22
s 1
f 26/26/26 25/25/25 27/27/27
s 1
f 26/26/26 28/28/28 25/25/25
s 1
f 29/29/29 27/27/27 30/30/30
s 1
f 29/29/29 26/26/26 27/27/27
s 1
f 31/31/31 30/30/30 32/32/32
s 1
f 31/31/31 29/29/29 30/30/30
s 1
f 33/33/33 32/32/32 34/34/34
s 1
f 33/33/33 31/31/31 32/32/32
s 1
f 35/35/35 18/18/18 16/16/16
s 1
f 35/35/35 36/36/36 18/18/18
s 1
f 37/37/37 16/16/16 19/19/19
s 1
f 37/37/37 35/35/35 16/16/16
s 1
f 38/38/38 19/19/19 21/21/21
s 1
f 38/38/38 37/37/37 19/19/19
s 1
f 39/39/39 21/21/21 23/23/23
s 1
f 39/39/39 38/38/38 21/21/21
s 1
f 40/40/40 28/28/28 26/26/26
s 1
f 40/40/40 41/41/41 28/28/28
s 1
f 42/42/42 26/26/26 29/29/29
s 1
f 42/42/42 40/40/40 26/26/26
s 1
f 43/43/43 29/29/29 31/31/31
s 1
f 43/43/43 42/42/42 29/29/29
s 1
f 44/44/44 31/31/31 33/33/33
s 1
f 44/44/44 43/43/43 31/31/31
s 1
f 45/45/45 36/36/36 35/35/35
s 1
f 45/45/45 46/46/46 36/36/36
s 1
f 47/47/47 35/35/35 37/37/37
s 1
f 47/47/47 45/45/45 35/35/35
s 1
f 48/48/48 37/37/37 38/38/38
s 1
f 48/48/48 47/47/47 37/37/37
s 1
f 49/49/49 38/38/38 39/39/39
s 1
f 49/49/49 48/48/48 38/38/38
s 1
f 50/50/50 41/41/41 40/40/40
s 1
f 50/50/50 51/51/51 41/41/41
s 1
f 52/52/52 40/40/40 42/42/42
s 1
f 52/52/52 50/50/50 40/40/40
s 1
f 53/53/53 42/42/42 43/43/43
s 1
f 53/53/53 52/52/52 42/42/42
s 1
f 54/54/54 43/43/43 44/44/44
s 1
f 54/54/54 53/53/53 43/43/43
s 1
f 55/55/55 46/46/46 45/45/45
s 1
f 55/55/55 56/56/56 46/46/46
s 1
f 57/57/57 45/45/45 47/47/47
s 1
f 57/57/57 55/55/55 45/45/45
s 1
f 58/58/58 47/47/47 48/48/48
s 1
f 58/58/58 57/57/57 47/47/47
s 1
f 59/59/59 48/48/48 49/49/49
s 1
f 59/59/59 58/58/58 48/48/48
s 1
f 60/60/60 51/51/51 50/50/50
s 1
f 60/60/60 61/61/61 51/51/51
s 1
f 62/62/62 50/50/50 52/52/52
s 1
f 62/62/62 60/60/60 50/50/50
s 1
f 63/63/63 52/52/52 53/53/53
s 1
f 63/63/63 62/62/62 52/52/52
s 1
f 64/64/64 53/53/53 54/54/54
s 1
f 64/64/64 63/63/63 53/53/53
s 1
f 65/65/65 56/56/56 55/55/55
s 1
f 65/65/65 66/66/66 56/56/56
s 1
f 67/67/67 55/55/55 57/57/57
s 1
f 67/67/67 65/65/65 55/55/55
s 1
f 68/68/68 57/57/57 58/58/58
s 1
f 68/68/68 67/67/67 57/57/57
s 1
f 69/69/69 58/58/58 59/59/59
s 1
f 69/69/69 68/68/68 58/58/58
s 1
f 70/70/70 61/61/61 60/60/60
s 1
f 70/70/70 71/71/71 61/61/61
s 1
f 72/72/72 60/60/60 62/62/62
s 1
f 72/72/72 70/70/70 60/60/60
s 1
f 73/73/73 62/62/62 63/63/63
s 1
f 73/73/73 72/72/72 62/62/62
s 1
f 74/74/74 63/63/63 64/64/64
s 1
f 74/74/74 73/73/73 63/63/63
s 1
f 75/75/75 66/66/66 65/65/65
s 1
f 75/75/75 76/76/76 66/66/66
s 1
f 77/77/77 65/65/65 67/67/67
s 1
f 77/77/77 75/75/75 65/65/65
s 1
f 78/78/78 67/67/67 68/68/68
s 1
f 78/78/78 77/77/77 67/67/67
s 1
f 79/79/79 68/68/68 69/69/69
s 1
f 79/79/79 78/78/78 68/68/68
s 1
f 80/80/80 71/71/71 70/70/70
s 1
f 80/80/80 81/81/81 71/71/71
s 1
f 82/82/82 70/70/70 72/72/72
s 1
f 82/82/82 80/80/80 70/70/70
s 1
f 83/83/83 72/72/72 73/73/73
s 1
f 83/83/83 82/82/82 72/72/72
s 1
f 84/84/84 73/73/73 74/74/74
s 1
f 84/84/84 83/83/83 73/73/73
s 1
s 1

