
# position 0 0 0
g Motorway 2x2 0029-road material
v -43.87001 0 47.85001
v -46.87896 -0.01023601 49.96145
v -46.87001 0 47.85001
v -43.87904 -0.006239437 49.9828
v -46.89961 -0.009028683 52.00711
v -43.89982 -0.006269271 52.04296
v -46.92841 -0.006371059 54.09862
v -43.92875 -0.004778623 54.14362
v -46.9617 -0.003439659 56.14575
v -43.96213 -0.002710296 56.19696
v -46.99947 -0.001122557 58.26016
v -43.99996 -0.000916696 58.31459
v -47.03904 -9.179914E-05 60.40836
v -44.03951 -7.697842E-05 60.46144
v -47.06287 0 61.84278
v -44.06329 0 61.89262

vn -0.001201765 0.999999 0.000801942
vn -0.0008906648 0.9999967 0.002421057
vn -0.0008906648 0.9999967 0.002421057
vn -0.001201765 0.999999 0.000801942
vn -0.001049407 0.9999992 -0.000630557
vn -0.0007804498 0.9999995 -0.0006683453
vn -0.0006454185 0.9999992 -0.001143997
vn -0.0004191099 0.9999993 -0.001053023
vn -0.0003187169 0.9999993 -0.001182611
vn -0.0001672154 0.9999995 -0.0009859479
vn -0.0001122002 0.9999997 -0.0008078568
vn -3.698736E-05 0.9999998 -0.0005720509
vn -2.267177E-05 0.9999999 -0.0003429059
vn 1.389855E-08 1 -0.0002011989
vn -1.459617E-06 1 -5.89222E-05
vn 8.933716E-07 1 -5.377217E-05

vt 0 -0.1238158 0.0
vt 1 0.3027471 0.0
vt 1 -0.1195494 0.0
vt 0 0.3027471 0.0
vt 1 0.5956332 0.0
vt 0 0.5956332 0.0
vt 1 0.8946928 0.0
vt 0 0.8946928 0.0
vt 1 1.187222 0.0
vt 0 1.187222 0.0
vt 1 1.489145 0.0
vt 0 1.489145 0.0
vt 1 1.795567 0.0
vt 0 1.795567 0.0
vt 1 2 0.0
vt 0 2 0.0


usemtl material
usemap material
f 2/2/2 1/1/1 3/3/3
s 1
f 2/2/2 4/4/4 1/1/1
s 1
f 5/5/5 4/4/4 2/2/2
s 1
f 5/5/5 6/6/6 4/4/4
s 1
f 7/7/7 6/6/6 5/5/5
s 1
f 7/7/7 8/8/8 6/6/6
s 1
f 9/9/9 8/8/8 7/7/7
s 1
f 9/9/9 10/10/10 8/8/8
s 1
f 11/11/11 10/10/10 9/9/9
s 1
f 11/11/11 12/12/12 10/10/10
s 1
f 13/13/13 12/12/12 11/11/11
s 1
f 13/13/13 14/14/14 12/12/12
s 1
f 15/15/15 14/14/14 13/13/13
s 1
f 15/15/15 16/16/16 14/14/14
s 1
s 1

# position 0 0 0
g Motorway 2x2 0029-sidewalk
v -42.37001 0.25 47.85001
v -42.62907 0.2454258 49.99169
v -42.62001 0.25 47.85001
v -42.37907 0.2457589 49.99347
v -43.62904 0.2440936 49.98458
v -43.62001 0.25 47.85001
v -43.87904 0.2437606 49.9828
v -43.87001 0.25 47.85001
v -43.87904 -0.006239437 49.9828
v -43.87001 0 47.85001
v -46.87001 0 47.85001
v -46.87896 0.239764 49.96145
v -46.87001 0.25 47.85001
v -46.87896 -0.01023601 49.96145
v -47.12896 0.2394309 49.95967
v -47.12001 0.25 47.85001
v -48.12893 0.2380988 49.95256
v -48.12001 0.25 47.85001
v -48.37893 0.2377657 49.95078
v -48.37001 0.25 47.85001
v -42.64991 0.2448805 52.0579
v -42.39993 0.2451104 52.06088
v -43.64984 0.2439607 52.04595
v -43.89982 0.2437307 52.04296
v -43.89982 -0.006269271 52.04296
v -46.89961 0.2409713 52.00711
v -46.89961 -0.009028683 52.00711
v -47.14959 0.2407414 52.00412
v -48.14952 0.2398216 51.99217
v -48.39951 0.2395916 51.98919
v -42.67889 0.2458849 54.16236
v -42.42891 0.2460176 54.16611
v -43.67878 0.2453541 54.14737
v -43.92875 0.2452214 54.14362
v -43.92875 -0.004778623 54.14362
v -46.92841 0.2436289 54.09862
v -46.92841 -0.006371059 54.09862
v -47.17838 0.2434962 54.09487
v -48.17827 0.2429654 54.07988
v -48.42825 0.2428327 54.07613
v -42.71231 0.2475936 56.2183
v -42.46235 0.2476544 56.22257
v -43.71217 0.2473505 56.20123
v -43.96213 0.2472897 56.19696
v -43.96213 -0.002710296 56.19696
v -46.9617 0.2465603 56.14575
v -46.9617 -0.003439659 56.14575
v -47.21166 0.2464996 56.14148
v -48.21151 0.2462564 56.12441
v -48.46148 0.2461957 56.12014
v -42.75017 0.2491691 58.33727
v -42.50021 0.2491862 58.3418
v -43.75 0.2491005 58.31912
v -43.99996 0.2490833 58.31459
v -43.99996 -0.000916696 58.31459
v -46.99947 0.2488774 58.26016
v -46.99947 -0.001122557 58.26016
v -47.24943 0.2488603 58.25562
v -48.24926 0.2487917 58.23748
v -48.49922 0.2487745 58.23295
v -42.7897 0.2499292 60.48356
v -42.53974 0.2499304 60.48799
v -43.78955 0.2499243 60.46587
v -44.03951 0.249923 60.46144
v -44.03951 -7.697842E-05 60.46144
v -47.03904 0.2499082 60.40836
v -47.03904 -9.179914E-05 60.40836
v -47.289 0.249907 60.40394
v -48.28885 0.249902 60.38624
v -48.53881 0.2499008 60.38182
v -42.81345 0.25 61.91338
v -42.56349 0.25 61.91753
v -43.81332 0.25 61.89677
v -44.06329 0.25 61.89262
v -44.06329 0 61.89262
v -47.06287 0.25 61.84278
v -47.06287 0 61.84278
v -47.31284 0.25 61.83863
v -48.3127 0.25 61.82202
v -48.56267 0.25 61.81786

vn -0.001203015 0.9999989 0.0008563728
vn -0.001139106 0.9999989 0.0009575171
vn -0.001139106 0.9999989 0.0009575171
vn -0.001203015 0.9999989 0.0008563728
vn -0.0009510241 0.9999985 0.001528279
vn -0.0009510241 0.9999985 0.001528279
vn -0.7032212 0.7109581 -0.004321573
vn -0.7032212 0.7109581 -0.004321573
vn -0.9999812 0 -0.006139482
vn -0.9999812 0 -0.006139482
vn 0.9999672 0 0.00810053
vn 0.7104564 0.7037216 0.00524323
vn 0.7104564 0.7037216 0.00524323
vn 0.9999672 0 0.00810053
vn -0.001141104 0.9999981 0.001590278
vn -0.001141104 0.9999981 0.001590278
vn -0.0009556717 0.9999952 0.002921769
vn -0.0009556717 0.9999952 0.002921769
vn -0.0008952982 0.9999933 0.003567863
vn -0.0008952982 0.9999933 0.003567863
vn -0.0008391855 0.9999996 -0.0002406165
vn -0.0007864554 0.9999998 -0.0002109491
vn -0.001000211 0.9999995 -0.000191341
vn -0.709648 0.7044981 -0.009061162
vn -0.9999357 0 -0.0113312
vn 0.7042116 0.7099535 0.007228944
vn 0.9999211 0 0.01256201
vn -0.000828185 0.999999 -0.001107722
vn -0.0009904238 0.9999989 -0.00107322
vn -0.00104439 0.9999989 -0.001113029
vn -0.0004698672 0.9999996 -0.0007286557
vn -0.0004248031 0.9999997 -0.0006904346
vn -0.0006058346 0.9999995 -0.0007459794
vn -0.7045256 0.7095866 -0.01142176
vn -0.9998936 0 -0.01458413
vn 0.7094447 0.7046987 0.009370223
vn 0.9998813 0 0.01541541
vn -0.0004587975 0.9999989 -0.001448022
vn -0.0005949179 0.9999987 -0.00150718
vn -0.0006393864 0.9999986 -0.00157675
vn -0.0002011004 0.9999996 -0.0008013664
vn -0.0001711815 0.9999997 -0.0007566094
vn -0.0002924903 0.9999995 -0.0008818153
vn -0.7107059 0.7033694 -0.01298619
vn -0.9998588 0 -0.01680254
vn 0.7031485 0.7109586 0.01095468
vn 0.9998496 0 0.01733812
vn -0.0001928741 0.9999992 -0.001277667
vn -0.0002836867 0.999999 -0.001411207
vn -0.0003136196 0.9999988 -0.001494053
vn -5.382742E-05 0.9999999 -0.0005162282
vn -3.875605E-05 0.9999999 -0.0004742359
vn -9.948188E-05 0.9999998 -0.0006281744
vn -0.7086265 0.7054566 -0.01340821
vn -0.9998371 0 -0.01804994
vn 0.7051058 0.7089963 0.01224237
vn 0.9998338 0 0.01823381
vn -4.969522E-05 0.9999996 -0.0007440034
vn -9.451935E-05 0.9999995 -0.000904014
vn -0.000109111 0.9999996 -0.0009808762
vn -5.569409E-06 1 -0.0002021105
vn -4.213338E-07 0.9999999 -0.0001767279
vn -1.939781E-05 0.9999999 -0.000273256
vn -0.658411 0.7525679 -0.01167641
vn -0.9998387 0 -0.01796553
vn 0.7522742 0.6587148 0.01335762
vn 0.9998489 0 0.01738578
vn -4.252171E-06 0.9999999 -0.0002760294
vn -1.766341E-05 0.9999999 -0.0003698048
vn -2.150652E-05 1 -0.0004077881
vn 4.821267E-09 1 -4.938135E-05
vn 8.085995E-07 1 -4.865482E-05
vn -1.313033E-06 0.9999999 -5.144063E-05
vn -0.447186 0.8944097 -0.007475935
vn -0.9998621 0 -0.01660871
vn 0.8943041 0.4472138 0.01483106
vn 0.999862 0 0.01661362
vn 2.716942E-07 1 -6.469731E-05
vn -1.057867E-06 0.9999999 -6.674702E-05
vn -1.295262E-06 1 -6.868422E-05

vt 1 -0.1259487 0.0
vt 0.865201 0.3027471 0.0
vt 0.865201 -0.1255933 0.0
vt 1 0.3027471 0.0
vt 0.1315237 0.3027471 0.0
vt 0.1315237 -0.1241711 0.0
vt 0.06601681 0.3027471 0.0
vt 0.06601681 -0.1238158 0.0
vt 0 0.3027471 0.0
vt 0 -0.1238158 0.0
vt 0 -0.1195494 0.0
vt 0.06601681 0.3027471 0.0
vt 0.06601681 -0.1195494 0.0
vt 0 0.3027471 0.0
vt 0.1315237 0.3027471 0.0
vt 0.1315237 -0.1191942 0.0
vt 0.865201 0.3027471 0.0
vt 0.865201 -0.1177728 0.0
vt 1 0.3027471 0.0
vt 1 -0.1174177 0.0
vt 0.865201 0.5956332 0.0
vt 1 0.5956332 0.0
vt 0.1315237 0.5956332 0.0
vt 0.06601681 0.5956332 0.0
vt 0 0.5956332 0.0
vt 0.06601681 0.5956332 0.0
vt 0 0.5956332 0.0
vt 0.1315237 0.5956332 0.0
vt 0.865201 0.5956332 0.0
vt 1 0.5956332 0.0
vt 0.865201 0.8946928 0.0
vt 1 0.8946928 0.0
vt 0.1315237 0.8946928 0.0
vt 0.06601681 0.8946928 0.0
vt 0 0.8946928 0.0
vt 0.06601681 0.8946928 0.0
vt 0 0.8946928 0.0
vt 0.1315237 0.8946928 0.0
vt 0.865201 0.8946928 0.0
vt 1 0.8946928 0.0
vt 0.865201 1.187222 0.0
vt 1 1.187222 0.0
vt 0.1315237 1.187222 0.0
vt 0.06601681 1.187222 0.0
vt 0 1.187222 0.0
vt 0.06601681 1.187222 0.0
vt 0 1.187222 0.0
vt 0.1315237 1.187222 0.0
vt 0.865201 1.187222 0.0
vt 1 1.187222 0.0
vt 0.865201 1.489145 0.0
vt 1 1.489145 0.0
vt 0.1315237 1.489145 0.0
vt 0.06601681 1.489145 0.0
vt 0 1.489145 0.0
vt 0.06601681 1.489145 0.0
vt 0 1.489145 0.0
vt 0.1315237 1.489145 0.0
vt 0.865201 1.489145 0.0
vt 1 1.489145 0.0
vt 0.865201 1.795567 0.0
vt 1 1.795567 0.0
vt 0.1315237 1.795567 0.0
vt 0.06601681 1.795567 0.0
vt 0 1.795567 0.0
vt 0.06601681 1.795567 0.0
vt 0 1.795567 0.0
vt 0.1315237 1.795567 0.0
vt 0.865201 1.795567 0.0
vt 1 1.795567 0.0
vt 0.865201 2 0.0
vt 1 2 0.0
vt 0.1315237 2 0.0
vt 0.06601681 2 0.0
vt 0 2 0.0
vt 0.06601681 2 0.0
vt 0 2 0.0
vt 0.1315237 2 0.0
vt 0.865201 2 0.0
vt 1 2 0.0


usemtl material
usemap material
f 18/18/18 17/17/17 19/19/19
s 1
f 18/18/18 20/20/20 17/17/17
s 1
f 21/21/21 19/19/19 22/22/22
s 1
f 21/21/21 18/18/18 19/19/19
s 1
f 23/23/23 22/22/22 24/24/24
s 1
f 23/23/23 21/21/21 22/22/22
s 1
f 25/25/25 24/24/24 26/26/26
s 1
f 25/25/25 23/23/23 24/24/24
s 1
f 28/28/28 27/27/27 29/29/29
s 1
f 28/28/28 30/30/30 27/27/27
s 1
f 31/31/31 29/29/29 32/32/32
s 1
f 31/31/31 28/28/28 29/29/29
s 1
f 33/33/33 32/32/32 34/34/34
s 1
f 33/33/33 31/31/31 32/32/32
s 1
f 35/35/35 34/34/34 36/36/36
s 1
f 35/35/35 33/33/33 34/34/34
s 1
f 37/37/37 20/20/20 18/18/18
s 1
f 37/37/37 38/38/38 20/20/20
s 1
f 39/39/39 18/18/18 21/21/21
s 1
f 39/39/39 37/37/37 18/18/18
s 1
f 40/40/40 21/21/21 23/23/23
s 1
f 40/40/40 39/39/39 21/21/21
s 1
f 41/41/41 23/23/23 25/25/25
s 1
f 41/41/41 40/40/40 23/23/23
s 1
f 42/42/42 30/30/30 28/28/28
s 1
f 42/42/42 43/43/43 30/30/30
s 1
f 44/44/44 28/28/28 31/31/31
s 1
f 44/44/44 42/42/42 28/28/28
s 1
f 45/45/45 31/31/31 33/33/33
s 1
f 45/45/45 44/44/44 31/31/31
s 1
f 46/46/46 33/33/33 35/35/35
s 1
f 46/46/46 45/45/45 33/33/33
s 1
f 47/47/47 38/38/38 37/37/37
s 1
f 47/47/47 48/48/48 38/38/38
s 1
f 49/49/49 37/37/37 39/39/39
s 1
f 49/49/49 47/47/47 37/37/37
s 1
f 50/50/50 39/39/39 40/40/40
s 1
f 50/50/50 49/49/49 39/39/39
s 1
f 51/51/51 40/40/40 41/41/41
s 1
f 51/51/51 50/50/50 40/40/40
s 1
f 52/52/52 43/43/43 42/42/42
s 1
f 52/52/52 53/53/53 43/43/43
s 1
f 54/54/54 42/42/42 44/44/44
s 1
f 54/54/54 52/52/52 42/42/42
s 1
f 55/55/55 44/44/44 45/45/45
s 1
f 55/55/55 54/54/54 44/44/44
s 1
f 56/56/56 45/45/45 46/46/46
s 1
f 56/56/56 55/55/55 45/45/45
s 1
f 57/57/57 48/48/48 47/47/47
s 1
f 57/57/57 58/58/58 48/48/48
s 1
f 59/59/59 47/47/47 49/49/49
s 1
f 59/59/59 57/57/57 47/47/47
s 1
f 60/60/60 49/49/49 50/50/50
s 1
f 60/60/60 59/59/59 49/49/49
s 1
f 61/61/61 50/50/50 51/51/51
s 1
f 61/61/61 60/60/60 50/50/50
s 1
f 62/62/62 53/53/53 52/52/52
s 1
f 62/62/62 63/63/63 53/53/53
s 1
f 64/64/64 52/52/52 54/54/54
s 1
f 64/64/64 62/62/62 52/52/52
s 1
f 65/65/65 54/54/54 55/55/55
s 1
f 65/65/65 64/64/64 54/54/54
s 1
f 66/66/66 55/55/55 56/56/56
s 1
f 66/66/66 65/65/65 55/55/55
s 1
f 67/67/67 58/58/58 57/57/57
s 1
f 67/67/67 68/68/68 58/58/58
s 1
f 69/69/69 57/57/57 59/59/59
s 1
f 69/69/69 67/67/67 57/57/57
s 1
f 70/70/70 59/59/59 60/60/60
s 1
f 70/70/70 69/69/69 59/59/59
s 1
f 71/71/71 60/60/60 61/61/61
s 1
f 71/71/71 70/70/70 60/60/60
s 1
f 72/72/72 63/63/63 62/62/62
s 1
f 72/72/72 73/73/73 63/63/63
s 1
f 74/74/74 62/62/62 64/64/64
s 1
f 74/74/74 72/72/72 62/62/62
s 1
f 75/75/75 64/64/64 65/65/65
s 1
f 75/75/75 74/74/74 64/64/64
s 1
f 76/76/76 65/65/65 66/66/66
s 1
f 76/76/76 75/75/75 65/65/65
s 1
f 77/77/77 68/68/68 67/67/67
s 1
f 77/77/77 78/78/78 68/68/68
s 1
f 79/79/79 67/67/67 69/69/69
s 1
f 79/79/79 77/77/77 67/67/67
s 1
f 80/80/80 69/69/69 70/70/70
s 1
f 80/80/80 79/79/79 69/69/69
s 1
f 81/81/81 70/70/70 71/71/71
s 1
f 81/81/81 80/80/80 70/70/70
s 1
f 82/82/82 73/73/73 72/72/72
s 1
f 82/82/82 83/83/83 73/73/73
s 1
f 84/84/84 72/72/72 74/74/74
s 1
f 84/84/84 82/82/82 72/72/72
s 1
f 85/85/85 74/74/74 75/75/75
s 1
f 85/85/85 84/84/84 74/74/74
s 1
f 86/86/86 75/75/75 76/76/76
s 1
f 86/86/86 85/85/85 75/75/75
s 1
f 87/87/87 78/78/78 77/77/77
s 1
f 87/87/87 88/88/88 78/78/78
s 1
f 89/89/89 77/77/77 79/79/79
s 1
f 89/89/89 87/87/87 77/77/77
s 1
f 90/90/90 79/79/79 80/80/80
s 1
f 90/90/90 89/89/89 79/79/79
s 1
f 91/91/91 80/80/80 81/81/81
s 1
f 91/91/91 90/90/90 80/80/80
s 1
f 92/92/92 83/83/83 82/82/82
s 1
f 92/92/92 93/93/93 83/83/83
s 1
f 94/94/94 82/82/82 84/84/84
s 1
f 94/94/94 92/92/92 82/82/82
s 1
f 95/95/95 84/84/84 85/85/85
s 1
f 95/95/95 94/94/94 84/84/84
s 1
f 96/96/96 85/85/85 86/86/86
s 1
f 96/96/96 95/95/95 85/85/85
s 1
s 1

