
# position 0 0 0
g Motorway 2x2 001-road material
v -31.93557 0 3.477618
v -30.06002 0 6.511889
v -31.98578 0 6.4772
v -30.00542 0 3.512385
v -27.46977 0 6.559884
v -27.4142 0 3.560397

vn 0 0.9999999 0
vn 0 1 0
vn 0 1 0
vn 0 0.9999999 0
vn 0 1 0
vn 0 0.9999999 0

vt 0 -0.3860921 0.0
vt 1 0 0.0
vt 1 -0.3852153 0.0
vt 0 0 0.0
vt 1 0 0.0
vt 0 0 0.0


usemtl material
usemap material
f 2/2/2 1/1/1 3/3/3
s 1
f 2/2/2 4/4/4 1/1/1
s 1
f 5/5/5 4/4/4 2/2/2
s 1
f 5/5/5 6/6/6 4/4/4
s 1
s 1

# position 0 0 0
g Motorway 2x2 001-sidewalk
v -31.91046 0.25 1.977827
v -29.98267 0.25 2.262591
v -31.91464 0.25 2.227792
v -29.97812 0.25 2.012632
v -30.00087 0.25 3.262426
v -31.93138 0.25 3.227652
v -30.00542 0.25 3.512385
v -31.93557 0.25 3.477618
v -30.00542 0 3.512385
v -31.93557 0 3.477618
v -31.98578 0 6.4772
v -30.06002 0.25 6.511889
v -31.98578 0.25 6.4772
v -30.06002 0 6.511889
v -30.06457 0.25 6.761848
v -31.98997 0.25 6.727165
v -30.08277 0.25 7.761683
v -32.00671 0.25 7.727025
v -30.08732 0.25 8.011642
v -32.01089 0.25 7.976991
v -27.39104 0.25 2.310611
v -27.38641 0.25 2.060654
v -27.40956 0.25 3.31044
v -27.4142 0.25 3.560397
v -27.4142 0 3.560397
v -27.46977 0.25 6.559884
v -27.46977 0 6.559884
v -27.47441 0.25 6.809841
v -27.49293 0.25 7.80967
v -27.49756 0.25 8.059628

vn 0 0.9999999 0
vn 0 1 0
vn 0 1 0
vn 0 0.9999999 0
vn 0 1 0
vn 0 1 0
vn -0.01361784 0.6718667 0.7405469
vn -0.01361784 0.6718667 0.7405469
vn -0.01821704 0 0.9998341
vn -0.01821704 0 0.9998341
vn 0.01838614 0 -0.9998309
vn 0.01223537 0.7408942 -0.6715103
vn 0.01223537 0.7408942 -0.6715103
vn 0.01838614 0 -0.9998309
vn 0 1 0
vn 0 1 0
vn 0 1 0
vn 0 1 0
vn 0 1 0
vn 0 1 0
vn 0 0.9999999 0
vn 0 1 0
vn 0 1 0
vn -0.008284892 0.89443 0.4471311
vn -0.01852582 0 0.9998285
vn 0.01656999 0.4472136 -0.8942737
vn 0.01852581 0 -0.9998284
vn 0 1 0
vn 0 1 0
vn 0 1 0

vt 1 -0.3865304 0.0
vt 0.865201 0 0.0
vt 0.865201 -0.3864572 0.0
vt 1 0 0.0
vt 0.1315237 0 0.0
vt 0.1315237 -0.3861649 0.0
vt 0.06601681 0 0.0
vt 0.06601681 -0.3860921 0.0
vt 0 0 0.0
vt 0 -0.3860921 0.0
vt 0 -0.3852153 0.0
vt 0.06601681 0 0.0
vt 0.06601681 -0.3852153 0.0
vt 0 0 0.0
vt 0.1315237 0 0.0
vt 0.1315237 -0.3851424 0.0
vt 0.865201 0 0.0
vt 0.865201 -0.3848509 0.0
vt 1 0 0.0
vt 1 -0.3847777 0.0
vt 0.865201 0 0.0
vt 1 0 0.0
vt 0.1315237 0 0.0
vt 0.06601681 0 0.0
vt 0 0 0.0
vt 0.06601681 0 0.0
vt 0 0 0.0
vt 0.1315237 0 0.0
vt 0.865201 0 0.0
vt 1 0 0.0


usemtl material
usemap material
f 8/8/8 7/7/7 9/9/9
s 1
f 8/8/8 10/10/10 7/7/7
s 1
f 11/11/11 9/9/9 12/12/12
s 1
f 11/11/11 8/8/8 9/9/9
s 1
f 13/13/13 12/12/12 14/14/14
s 1
f 13/13/13 11/11/11 12/12/12
s 1
f 15/15/15 14/14/14 16/16/16
s 1
f 15/15/15 13/13/13 14/14/14
s 1
f 18/18/18 17/17/17 19/19/19
s 1
f 18/18/18 20/20/20 17/17/17
s 1
f 21/21/21 19/19/19 22/22/22
s 1
f 21/21/21 18/18/18 19/19/19
s 1
f 23/23/23 22/22/22 24/24/24
s 1
f 23/23/23 21/21/21 22/22/22
s 1
f 25/25/25 24/24/24 26/26/26
s 1
f 25/25/25 23/23/23 24/24/24
s 1
f 27/27/27 10/10/10 8/8/8
s 1
f 27/27/27 28/28/28 10/10/10
s 1
f 29/29/29 8/8/8 11/11/11
s 1
f 29/29/29 27/27/27 8/8/8
s 1
f 30/30/30 11/11/11 13/13/13
s 1
f 30/30/30 29/29/29 11/11/11
s 1
f 31/31/31 13/13/13 15/15/15
s 1
f 31/31/31 30/30/30 13/13/13
s 1
f 32/32/32 20/20/20 18/18/18
s 1
f 32/32/32 33/33/33 20/20/20
s 1
f 34/34/34 18/18/18 21/21/21
s 1
f 34/34/34 32/32/32 18/18/18
s 1
f 35/35/35 21/21/21 23/23/23
s 1
f 35/35/35 34/34/34 21/21/21
s 1
f 36/36/36 23/23/23 25/25/25
s 1
f 36/36/36 35/35/35 23/23/23
s 1
s 1

