
# position 0 0 0
g Motorway 2x2 009-road material
v -94.90769 0 45.56505
v -96.88708 0.0002879644 42.54163
v -94.8767 0 42.5652
v -96.92612 0.0002879644 45.54139
v -98.97884 0.001019071 42.51168
v -99.0249 0.001019071 45.51133
v -101.0684 0.002190917 42.47742
v -101.12 0.002190917 45.47699
v -103.1206 0.003580963 42.44048
v -103.1765 0.003580963 45.43996
v -105.3145 0.004943637 42.39821
v -105.3736 0.004943637 45.39763
v -107.371 0.005295428 42.3568
v -107.4319 0.005295428 45.35619
v -109.4172 0.003338648 42.31485
v -109.478 0.003338648 45.31423
v -111.4593 0.0007736942 42.27401
v -111.5164 0.0007736942 45.27348
v -112.8689 0.0007920865 42.24912
v -112.9219 0.0007920865 45.24866

vn 0.0002818259 1 3.943171E-06
vn 0.0002135147 0.9999999 2.652081E-06
vn 0.0002135147 0.9999999 2.652081E-06
vn 0.0002818259 1 3.943171E-06
vn 0.0004193352 0.9999999 6.166829E-06
vn 0.0004892252 0.9999999 7.854673E-06
vn 0.0005984914 0.9999998 9.943391E-06
vn 0.000636822 0.9999998 1.127461E-05
vn 0.0006570835 0.9999998 1.193448E-05
vn 0.0006380594 0.9999998 1.212097E-05
vn 0.0004770881 0.9999999 9.174474E-06
vn 0.0003272369 0.9999999 6.477682E-06
vn -0.0002033243 1 -4.16731E-06
vn -0.0005788522 0.9999998 -1.17405E-05
vn -0.001055663 0.9999995 -2.140098E-05
vn -0.001156248 0.9999993 -2.291009E-05
vn -0.0009306744 0.9999996 -1.828694E-05
vn -0.0005207028 0.9999999 -9.920113E-06
vn 1.306249E-05 1 2.396866E-07
vn 1.308194E-05 1 2.309898E-07

vt 0 -0.06087157 0.0
vt 1 0.3428412 0.0
vt 1 -0.05926315 0.0
vt 0 0.3428412 0.0
vt 1 0.6910279 0.0
vt 0 0.6910279 0.0
vt 1 1.038738 0.0
vt 0 1.038738 0.0
vt 1 1.380146 0.0
vt 0 1.380146 0.0
vt 1 1.745019 0.0
vt 0 1.745019 0.0
vt 1 2.086941 0.0
vt 0 2.086941 0.0
vt 1 2.427002 0.0
vt 0 2.427002 0.0
vt 1 2.766083 0.0
vt 0 2.766083 0.0
vt 1 3 0.0
vt 0 3 0.0


usemtl material
usemap material
f 2/2/2 1/1/1 3/3/3
s 1
f 2/2/2 4/4/4 1/1/1
s 1
f 5/5/5 4/4/4 2/2/2
s 1
f 5/5/5 6/6/6 4/4/4
s 1
f 7/7/7 6/6/6 5/5/5
s 1
f 7/7/7 8/8/8 6/6/6
s 1
f 9/9/9 8/8/8 7/7/7
s 1
f 9/9/9 10/10/10 8/8/8
s 1
f 11/11/11 10/10/10 9/9/9
s 1
f 11/11/11 12/12/12 10/10/10
s 1
f 13/13/13 12/12/12 11/11/11
s 1
f 13/13/13 14/14/14 12/12/12
s 1
f 15/15/15 14/14/14 13/13/13
s 1
f 15/15/15 16/16/16 14/14/14
s 1
f 17/17/17 16/16/16 15/15/15
s 1
f 17/17/17 18/18/18 16/16/16
s 1
f 19/19/19 18/18/18 17/17/17
s 1
f 19/19/19 20/20/20 18/18/18
s 1
s 1

# position 0 0 0
g Motorway 2x2 009-sidewalk
v -94.92319 0.25 47.06497
v -96.94238 0.250288 46.79128
v -94.92061 0.25 46.81498
v -96.94564 0.250288 47.04126
v -96.92937 0.250288 45.79136
v -94.91028 0.25 45.81504
v -96.92612 0.250288 45.54139
v -94.90769 0.25 45.56505
v -96.92612 0.0002879644 45.54139
v -94.90769 0 45.56505
v -94.8767 0 42.5652
v -96.88708 0.250288 42.54163
v -94.8767 0.25 42.5652
v -96.88708 0.0002879644 42.54163
v -96.88383 0.250288 42.29166
v -94.87411 0.25 42.31522
v -96.87082 0.250288 41.29174
v -94.86378 0.25 41.31527
v -96.86756 0.250288 41.04176
v -94.86121 0.25 41.06528
v -99.04409 0.2510191 46.76118
v -99.04793 0.2510191 47.01115
v -99.02874 0.2510191 45.7613
v -99.0249 0.2510191 45.51133
v -99.0249 0.001019071 45.51133
v -98.97884 0.2510191 42.51168
v -98.97884 0.001019071 42.51168
v -98.975 0.2510191 42.26171
v -98.95965 0.2510191 41.26183
v -98.95581 0.2510191 41.01186
v -101.1415 0.2521909 46.7268
v -101.1458 0.2521909 46.97676
v -101.1243 0.2521909 45.72695
v -101.12 0.2521909 45.47699
v -101.12 0.002190917 45.47699
v -101.0684 0.2521909 42.47742
v -101.0684 0.002190917 42.47742
v -101.0641 0.2521909 42.22746
v -101.0469 0.2521909 41.22761
v -101.0426 0.2521909 40.97765
v -103.1999 0.253581 46.68974
v -103.2045 0.253581 46.9397
v -103.1812 0.253581 45.68991
v -103.1765 0.253581 45.43996
v -103.1765 0.003580963 45.43996
v -103.1206 0.253581 42.44048
v -103.1206 0.003580963 42.44048
v -103.1159 0.253581 42.19052
v -103.0973 0.253581 41.19069
v -103.0926 0.253581 40.94074
v -105.3982 0.2549436 46.64739
v -105.4031 0.2549436 46.89734
v -105.3785 0.2549436 45.64758
v -105.3736 0.2549436 45.39763
v -105.3736 0.004943637 45.39763
v -105.3145 0.2549436 42.39821
v -105.3145 0.004943637 42.39821
v -105.3096 0.2549436 42.14826
v -105.2899 0.2549436 41.14845
v -105.285 0.2549436 40.8985
v -107.4573 0.2552954 46.60593
v -107.4624 0.2552954 46.85588
v -107.437 0.2552954 45.60614
v -107.4319 0.2552954 45.35619
v -107.4319 0.005295428 45.35619
v -107.371 0.2552954 42.3568
v -107.371 0.005295428 42.3568
v -107.3659 0.2552954 42.10686
v -107.3456 0.2552954 41.10706
v -107.3405 0.2552954 40.85712
v -109.5033 0.2533386 46.56398
v -109.5083 0.2533386 46.81392
v -109.483 0.2533386 45.56418
v -109.478 0.2533386 45.31423
v -109.478 0.003338648 45.31423
v -109.4172 0.2533386 42.31485
v -109.4172 0.003338648 42.31485
v -109.4121 0.2533386 42.0649
v -109.3919 0.2533386 41.0651
v -109.3868 0.2533386 40.81516
v -111.5402 0.2507737 46.52325
v -111.545 0.2507737 46.7732
v -111.5212 0.2507737 45.52343
v -111.5164 0.2507737 45.27348
v -111.5164 0.0007736942 45.27348
v -111.4593 0.2507737 42.27401
v -111.4593 0.0007736942 42.27401
v -111.4545 0.2507737 42.02406
v -111.4355 0.2507737 41.02424
v -111.4307 0.2507737 40.77429
v -112.944 0.2507921 46.49846
v -112.9484 0.2507921 46.74842
v -112.9263 0.2507921 45.49862
v -112.9219 0.2507921 45.24866
v -112.9219 0.0007920865 45.24866
v -112.8689 0.2507921 42.24912
v -112.8689 0.0007920865 42.24912
v -112.8645 0.2507921 41.99916
v -112.8469 0.2507921 40.99931
v -112.8424 0.2507921 40.74936

vn 0.0002810334 0.9999999 3.934844E-06
vn 0.0002676188 1 3.677992E-06
vn 0.0002676188 1 3.677992E-06
vn 0.0002810334 0.9999999 3.934844E-06
vn 0.0002266885 0.9999999 2.905223E-06
vn 0.0002266885 0.9999999 2.905223E-06
vn 0.009739943 0.7025256 -0.7115919
vn 0.009739943 0.7025256 -0.7115919
vn 0.01261075 0 -0.9999204
vn 0.01261075 0 -0.9999204
vn -0.01347733 0 0.9999092
vn -0.008658362 0.7117354 0.7023944
vn -0.008658362 0.7117354 0.7023944
vn -0.01347733 0 0.9999092
vn 0.0002690682 1 3.698194E-06
vn 0.0002690682 1 3.698194E-06
vn 0.0002279608 1 2.921529E-06
vn 0.0002279608 1 2.921529E-06
vn 0.0002141728 0.9999999 2.662956E-06
vn 0.0002141728 0.9999999 2.662956E-06
vn 0.0004742611 0.9999999 7.500887E-06
vn 0.0004881376 0.9999999 7.834722E-06
vn 0.0004323242 0.9999999 6.488793E-06
vn 0.0113933 0.7073419 -0.7067797
vn 0.0150088 0 -0.9998873
vn -0.01026885 0.7069604 0.7071786
vn -0.01569929 0 0.9998767
vn 0.0004763429 0.9999999 7.533813E-06
vn 0.0004343168 0.9999999 6.51755E-06
vn 0.0004204242 0.9999999 6.18371E-06
vn 0.0006280662 0.9999998 1.098941E-05
vn 0.0006356764 0.9999998 1.125788E-05
vn 0.0006050147 0.9999998 1.019176E-05
vn 0.01272936 0.7093115 -0.7047803
vn 0.01692054 0 -0.9998568
vn -0.01155136 0.7049543 0.7091585
vn -0.01745812 0 0.9998476
vn 0.0006302697 0.9999998 1.103051E-05
vn 0.0006072297 0.9999998 1.02279E-05
vn 0.0005997209 0.9999998 9.960713E-06
vn 0.0006410246 0.9999999 1.207137E-05
vn 0.0006372589 0.9999998 1.211665E-05
vn 0.0006523133 0.9999997 1.195695E-05
vn 0.01394073 0.6992942 -0.7146981
vn 0.01843995 0 -0.9998299
vn -0.01243726 0.7149189 0.6990969
vn -0.01886028 0 0.9998221
vn 0.000642649 0.9999998 1.210068E-05
vn 0.0006541086 0.9999998 1.19925E-05
vn 0.0006581215 0.9999999 1.196337E-05
vn 0.0003574364 0.9999999 7.020258E-06
vn 0.0003269692 0.9999999 6.471203E-06
vn 0.0004472206 0.9999999 8.635356E-06
vn 0.01420803 0.7147587 -0.6992269
vn 0.01953917 0 -0.9998091
vn -0.01373535 0.6994306 0.7145686
vn -0.01982812 0 0.9998034
vn 0.0003580402 0.9999999 7.030821E-06
vn 0.0004480414 0.9999999 8.650853E-06
vn 0.0004775972 0.9999998 9.189633E-06
vn -0.0005035623 0.9999998 -1.022162E-05
vn -0.0005788042 0.9999998 -1.172946E-05
vn -0.0002782382 1 -5.678497E-06
vn 0.014251 0.7078165 -0.7062525
vn 0.02025387 0 -0.9997948
vn -0.01474212 0.7065235 0.707536
vn -0.02037666 0 0.9997923
vn -0.0005037971 0.9999999 -1.022797E-05
vn -0.0002784528 1 -5.681305E-06
vn -0.0002034424 1 -4.164478E-06
vn -0.001137134 0.9999993 -2.262398E-05
vn -0.001157578 0.9999993 -2.292744E-05
vn -0.001076493 0.9999994 -2.171612E-05
vn 0.01349976 0.7075455 -0.7065388
vn 0.02033196 0 -0.9997933
vn -0.01519752 0.7068833 0.7071669
vn -0.0201614 0 0.9997967
vn -0.001135249 0.9999994 -2.258838E-05
vn -0.001075249 0.9999994 -2.169107E-05
vn -0.001055285 0.9999995 -2.137576E-05
vn -0.0006121533 0.9999998 -1.178317E-05
vn -0.0005217507 0.9999999 -9.942715E-06
vn -0.000857888 0.9999996 -1.679985E-05
vn 0.0116498 0.7490091 -0.6624572
vn 0.01939133 0 -0.9998119
vn -0.01486732 0.6627042 0.7487337
vn -0.01863804 0 0.9998262
vn -0.0006099802 0.9999998 -1.174131E-05
vn -0.0008551323 0.9999996 -1.674588E-05
vn -0.0009291421 0.9999996 -1.825216E-05
vn 1.30955E-05 1 2.342949E-07
vn 1.309822E-05 1 2.314802E-07
vn 1.308773E-05 0.9999999 2.39151E-07
vn 0.007908288 0.894404 -0.4471899
vn 0.01765548 0 -0.9998441
vn -0.01578765 0.4472094 0.8942899
vn -0.01765761 0 0.9998441
vn 1.303775E-05 1 2.332616E-07
vn 1.303004E-05 1 2.380969E-07
vn 1.302277E-05 1 2.390921E-07

vt 1 -0.06167728 0.0
vt 0.865201 0.3428412 0.0
vt 0.865201 -0.06154148 0.0
vt 1 0.3428412 0.0
vt 0.1315237 0.3428412 0.0
vt 0.1315237 -0.06100585 0.0
vt 0.06601681 0.3428412 0.0
vt 0.06601681 -0.06087157 0.0
vt 0 0.3428412 0.0
vt 0 -0.06087157 0.0
vt 0 -0.05926315 0.0
vt 0.06601681 0.3428412 0.0
vt 0.06601681 -0.05926315 0.0
vt 0 0.3428412 0.0
vt 0.1315237 0.3428412 0.0
vt 0.1315237 -0.05912887 0.0
vt 0.865201 0.3428412 0.0
vt 0.865201 -0.05859329 0.0
vt 1 0.3428412 0.0
vt 1 -0.05845744 0.0
vt 0.865201 0.6910279 0.0
vt 1 0.6910279 0.0
vt 0.1315237 0.6910279 0.0
vt 0.06601681 0.6910279 0.0
vt 0 0.6910279 0.0
vt 0.06601681 0.6910279 0.0
vt 0 0.6910279 0.0
vt 0.1315237 0.6910279 0.0
vt 0.865201 0.6910279 0.0
vt 1 0.6910279 0.0
vt 0.865201 1.038738 0.0
vt 1 1.038738 0.0
vt 0.1315237 1.038738 0.0
vt 0.06601681 1.038738 0.0
vt 0 1.038738 0.0
vt 0.06601681 1.038738 0.0
vt 0 1.038738 0.0
vt 0.1315237 1.038738 0.0
vt 0.865201 1.038738 0.0
vt 1 1.038738 0.0
vt 0.865201 1.380146 0.0
vt 1 1.380146 0.0
vt 0.1315237 1.380146 0.0
vt 0.06601681 1.380146 0.0
vt 0 1.380146 0.0
vt 0.06601681 1.380146 0.0
vt 0 1.380146 0.0
vt 0.1315237 1.380146 0.0
vt 0.865201 1.380146 0.0
vt 1 1.380146 0.0
vt 0.865201 1.745019 0.0
vt 1 1.745019 0.0
vt 0.1315237 1.745019 0.0
vt 0.06601681 1.745019 0.0
vt 0 1.745019 0.0
vt 0.06601681 1.745019 0.0
vt 0 1.745019 0.0
vt 0.1315237 1.745019 0.0
vt 0.865201 1.745019 0.0
vt 1 1.745019 0.0
vt 0.865201 2.086941 0.0
vt 1 2.086941 0.0
vt 0.1315237 2.086941 0.0
vt 0.06601681 2.086941 0.0
vt 0 2.086941 0.0
vt 0.06601681 2.086941 0.0
vt 0 2.086941 0.0
vt 0.1315237 2.086941 0.0
vt 0.865201 2.086941 0.0
vt 1 2.086941 0.0
vt 0.865201 2.427002 0.0
vt 1 2.427002 0.0
vt 0.1315237 2.427002 0.0
vt 0.06601681 2.427002 0.0
vt 0 2.427002 0.0
vt 0.06601681 2.427002 0.0
vt 0 2.427002 0.0
vt 0.1315237 2.427002 0.0
vt 0.865201 2.427002 0.0
vt 1 2.427002 0.0
vt 0.865201 2.766083 0.0
vt 1 2.766083 0.0
vt 0.1315237 2.766083 0.0
vt 0.06601681 2.766083 0.0
vt 0 2.766083 0.0
vt 0.06601681 2.766083 0.0
vt 0 2.766083 0.0
vt 0.1315237 2.766083 0.0
vt 0.865201 2.766083 0.0
vt 1 2.766083 0.0
vt 0.865201 3 0.0
vt 1 3 0.0
vt 0.1315237 3 0.0
vt 0.06601681 3 0.0
vt 0 3 0.0
vt 0.06601681 3 0.0
vt 0 3 0.0
vt 0.1315237 3 0.0
vt 0.865201 3 0.0
vt 1 3 0.0


usemtl material
usemap material
f 22/22/22 21/21/21 23/23/23
s 1
f 22/22/22 24/24/24 21/21/21
s 1
f 25/25/25 23/23/23 26/26/26
s 1
f 25/25/25 22/22/22 23/23/23
s 1
f 27/27/27 26/26/26 28/28/28
s 1
f 27/27/27 25/25/25 26/26/26
s 1
f 29/29/29 28/28/28 30/30/30
s 1
f 29/29/29 27/27/27 28/28/28
s 1
f 32/32/32 31/31/31 33/33/33
s 1
f 32/32/32 34/34/34 31/31/31
s 1
f 35/35/35 33/33/33 36/36/36
s 1
f 35/35/35 32/32/32 33/33/33
s 1
f 37/37/37 36/36/36 38/38/38
s 1
f 37/37/37 35/35/35 36/36/36
s 1
f 39/39/39 38/38/38 40/40/40
s 1
f 39/39/39 37/37/37 38/38/38
s 1
f 41/41/41 24/24/24 22/22/22
s 1
f 41/41/41 42/42/42 24/24/24
s 1
f 43/43/43 22/22/22 25/25/25
s 1
f 43/43/43 41/41/41 22/22/22
s 1
f 44/44/44 25/25/25 27/27/27
s 1
f 44/44/44 43/43/43 25/25/25
s 1
f 45/45/45 27/27/27 29/29/29
s 1
f 45/45/45 44/44/44 27/27/27
s 1
f 46/46/46 34/34/34 32/32/32
s 1
f 46/46/46 47/47/47 34/34/34
s 1
f 48/48/48 32/32/32 35/35/35
s 1
f 48/48/48 46/46/46 32/32/32
s 1
f 49/49/49 35/35/35 37/37/37
s 1
f 49/49/49 48/48/48 35/35/35
s 1
f 50/50/50 37/37/37 39/39/39
s 1
f 50/50/50 49/49/49 37/37/37
s 1
f 51/51/51 42/42/42 41/41/41
s 1
f 51/51/51 52/52/52 42/42/42
s 1
f 53/53/53 41/41/41 43/43/43
s 1
f 53/53/53 51/51/51 41/41/41
s 1
f 54/54/54 43/43/43 44/44/44
s 1
f 54/54/54 53/53/53 43/43/43
s 1
f 55/55/55 44/44/44 45/45/45
s 1
f 55/55/55 54/54/54 44/44/44
s 1
f 56/56/56 47/47/47 46/46/46
s 1
f 56/56/56 57/57/57 47/47/47
s 1
f 58/58/58 46/46/46 48/48/48
s 1
f 58/58/58 56/56/56 46/46/46
s 1
f 59/59/59 48/48/48 49/49/49
s 1
f 59/59/59 58/58/58 48/48/48
s 1
f 60/60/60 49/49/49 50/50/50
s 1
f 60/60/60 59/59/59 49/49/49
s 1
f 61/61/61 52/52/52 51/51/51
s 1
f 61/61/61 62/62/62 52/52/52
s 1
f 63/63/63 51/51/51 53/53/53
s 1
f 63/63/63 61/61/61 51/51/51
s 1
f 64/64/64 53/53/53 54/54/54
s 1
f 64/64/64 63/63/63 53/53/53
s 1
f 65/65/65 54/54/54 55/55/55
s 1
f 65/65/65 64/64/64 54/54/54
s 1
f 66/66/66 57/57/57 56/56/56
s 1
f 66/66/66 67/67/67 57/57/57
s 1
f 68/68/68 56/56/56 58/58/58
s 1
f 68/68/68 66/66/66 56/56/56
s 1
f 69/69/69 58/58/58 59/59/59
s 1
f 69/69/69 68/68/68 58/58/58
s 1
f 70/70/70 59/59/59 60/60/60
s 1
f 70/70/70 69/69/69 59/59/59
s 1
f 71/71/71 62/62/62 61/61/61
s 1
f 71/71/71 72/72/72 62/62/62
s 1
f 73/73/73 61/61/61 63/63/63
s 1
f 73/73/73 71/71/71 61/61/61
s 1
f 74/74/74 63/63/63 64/64/64
s 1
f 74/74/74 73/73/73 63/63/63
s 1
f 75/75/75 64/64/64 65/65/65
s 1
f 75/75/75 74/74/74 64/64/64
s 1
f 76/76/76 67/67/67 66/66/66
s 1
f 76/76/76 77/77/77 67/67/67
s 1
f 78/78/78 66/66/66 68/68/68
s 1
f 78/78/78 76/76/76 66/66/66
s 1
f 79/79/79 68/68/68 69/69/69
s 1
f 79/79/79 78/78/78 68/68/68
s 1
f 80/80/80 69/69/69 70/70/70
s 1
f 80/80/80 79/79/79 69/69/69
s 1
f 81/81/81 72/72/72 71/71/71
s 1
f 81/81/81 82/82/82 72/72/72
s 1
f 83/83/83 71/71/71 73/73/73
s 1
f 83/83/83 81/81/81 71/71/71
s 1
f 84/84/84 73/73/73 74/74/74
s 1
f 84/84/84 83/83/83 73/73/73
s 1
f 85/85/85 74/74/74 75/75/75
s 1
f 85/85/85 84/84/84 74/74/74
s 1
f 86/86/86 77/77/77 76/76/76
s 1
f 86/86/86 87/87/87 77/77/77
s 1
f 88/88/88 76/76/76 78/78/78
s 1
f 88/88/88 86/86/86 76/76/76
s 1
f 89/89/89 78/78/78 79/79/79
s 1
f 89/89/89 88/88/88 78/78/78
s 1
f 90/90/90 79/79/79 80/80/80
s 1
f 90/90/90 89/89/89 79/79/79
s 1
f 91/91/91 82/82/82 81/81/81
s 1
f 91/91/91 92/92/92 82/82/82
s 1
f 93/93/93 81/81/81 83/83/83
s 1
f 93/93/93 91/91/91 81/81/81
s 1
f 94/94/94 83/83/83 84/84/84
s 1
f 94/94/94 93/93/93 83/83/83
s 1
f 95/95/95 84/84/84 85/85/85
s 1
f 95/95/95 94/94/94 84/84/84
s 1
f 96/96/96 87/87/87 86/86/86
s 1
f 96/96/96 97/97/97 87/87/87
s 1
f 98/98/98 86/86/86 88/88/88
s 1
f 98/98/98 96/96/96 86/86/86
s 1
f 99/99/99 88/88/88 89/89/89
s 1
f 99/99/99 98/98/98 88/88/88
s 1
f 100/100/100 89/89/89 90/90/90
s 1
f 100/100/100 99/99/99 89/89/89
s 1
f 101/101/101 92/92/92 91/91/91
s 1
f 101/101/101 102/102/102 92/92/92
s 1
f 103/103/103 91/91/91 93/93/93
s 1
f 103/103/103 101/101/101 91/91/91
s 1
f 104/104/104 93/93/93 94/94/94
s 1
f 104/104/104 103/103/103 93/93/93
s 1
f 105/105/105 94/94/94 95/95/95
s 1
f 105/105/105 104/104/104 94/94/94
s 1
f 106/106/106 97/97/97 96/96/96
s 1
f 106/106/106 107/107/107 97/97/97
s 1
f 108/108/108 96/96/96 98/98/98
s 1
f 108/108/108 106/106/106 96/96/96
s 1
f 109/109/109 98/98/98 99/99/99
s 1
f 109/109/109 108/108/108 98/98/98
s 1
f 110/110/110 99/99/99 100/100/100
s 1
f 110/110/110 109/109/109 99/99/99
s 1
f 111/111/111 102/102/102 101/101/101
s 1
f 111/111/111 112/112/112 102/102/102
s 1
f 113/113/113 101/101/101 103/103/103
s 1
f 113/113/113 111/111/111 101/101/101
s 1
f 114/114/114 103/103/103 104/104/104
s 1
f 114/114/114 113/113/113 103/103/103
s 1
f 115/115/115 104/104/104 105/105/105
s 1
f 115/115/115 114/114/114 104/104/104
s 1
f 116/116/116 107/107/107 106/106/106
s 1
f 116/116/116 117/117/117 107/107/107
s 1
f 118/118/118 106/106/106 108/108/108
s 1
f 118/118/118 116/116/116 106/106/106
s 1
f 119/119/119 108/108/108 109/109/109
s 1
f 119/119/119 118/118/118 108/108/108
s 1
f 120/120/120 109/109/109 110/110/110
s 1
f 120/120/120 119/119/119 109/109/109
s 1
s 1

