
# position 0 0 0
g Motorway 2x2 0027-road material
v -70.97 0 -18.75
v -67.97276 -0.01648676 -20.87479
v -67.97 0 -18.75
v -70.97276 -0.0164691 -20.86823
v -67.97913 -0.01534945 -22.92908
v -70.97912 -0.01532876 -22.91806
v -67.98802 -0.01125611 -25.02682
v -70.98799 -0.01124095 -25.01298
v -67.99829 -0.006282286 -27.08071
v -70.99825 -0.006274249 -27.06494
v -68.00999 -0.002136901 -29.20471
v -71.00994 -0.002134418 -29.18792
v -68.0214 -0.000255597 -31.20991
v -71.02135 -0.0002553423 -31.19351
v -68.03011 0 -32.88429
v -71.03006 0 -32.86869

vn 1.505009E-06 0.9999975 -0.00228072
vn -1.422967E-06 0.9999872 -0.005052641
vn -1.422967E-06 0.9999872 -0.005052641
vn 1.505009E-06 0.9999975 -0.00228072
vn 1.00626E-05 0.9999995 0.001027236
vn 1.237917E-05 0.9999989 0.001493186
vn 1.477205E-05 0.9999977 0.002105888
vn 1.522036E-05 0.9999974 0.002262275
vn 1.483508E-05 0.9999974 0.002260954
vn 1.333967E-05 0.9999977 0.00210376
vn 1.033305E-05 0.9999987 0.001626019
vn 7.753834E-06 0.9999992 0.001287942
vn 4.251557E-06 0.9999996 0.000706371
vn 2.485194E-06 0.9999999 0.000446288
vn 8.558172E-07 1 0.0001525344
vn 7.923268E-07 1 0.0001524221

vt 1 -0.1233034 0.0
vt 0 0.3003567 0.0
vt 0 -0.1246149 0.0
vt 1 0.3003567 0.0
vt 0 0.5908815 0.0
vt 1 0.5908815 0.0
vt 0 0.8876752 0.0
vt 1 0.8876752 0.0
vt 0 1.178325 0.0
vt 1 1.178325 0.0
vt 0 1.478965 0.0
vt 1 1.478965 0.0
vt 0 1.762887 0.0
vt 1 1.762887 0.0
vt 0 2 0.0
vt 1 2 0.0


usemtl material
usemap material
f 2/2/2 1/1/1 3/3/3
s 1
f 2/2/2 4/4/4 1/1/1
s 1
f 5/5/5 4/4/4 2/2/2
s 1
f 5/5/5 6/6/6 4/4/4
s 1
f 7/7/7 6/6/6 5/5/5
s 1
f 7/7/7 8/8/8 6/6/6
s 1
f 9/9/9 8/8/8 7/7/7
s 1
f 9/9/9 10/10/10 8/8/8
s 1
f 11/11/11 10/10/10 9/9/9
s 1
f 11/11/11 12/12/12 10/10/10
s 1
f 13/13/13 12/12/12 11/11/11
s 1
f 13/13/13 14/14/14 12/12/12
s 1
f 15/15/15 14/14/14 13/13/13
s 1
f 15/15/15 16/16/16 14/14/14
s 1
s 1

# position 0 0 0
g Motorway 2x2 0027-sidewalk
v -72.47 0.25 -18.75
v -72.22276 0.2335383 -20.8655
v -72.22 0.25 -18.75
v -72.47276 0.2335397 -20.86495
v -71.22276 0.2335324 -20.86769
v -71.22 0.25 -18.75
v -70.97276 0.2335309 -20.86823
v -70.97 0.25 -18.75
v -70.97276 -0.0164691 -20.86823
v -70.97 0 -18.75
v -67.97 0 -18.75
v -67.97276 0.2335132 -20.87479
v -67.97 0.25 -18.75
v -67.97276 -0.01648676 -20.87479
v -67.72277 0.2335118 -20.87534
v -67.72 0.25 -18.75
v -66.72277 0.2335059 -20.87753
v -66.72 0.25 -18.75
v -66.47277 0.2335044 -20.87807
v -66.47 0.25 -18.75
v -72.22911 0.2346799 -22.91347
v -72.4791 0.2346816 -22.91255
v -71.22911 0.234673 -22.91714
v -70.97912 0.2346712 -22.91806
v -70.97912 -0.01532876 -22.91806
v -67.97913 0.2346506 -22.92908
v -67.97913 -0.01534945 -22.92908
v -67.72914 0.2346488 -22.93
v -66.72914 0.2346419 -22.93368
v -66.47915 0.2346402 -22.9346
v -72.23798 0.2387654 -25.00722
v -72.48798 0.2387666 -25.00606
v -71.23799 0.2387603 -25.01183
v -70.98799 0.2387591 -25.01298
v -70.98799 -0.01124095 -25.01298
v -67.98802 0.2387439 -25.02682
v -67.98802 -0.01125611 -25.02682
v -67.73802 0.2387426 -25.02798
v -66.73804 0.2387376 -25.03259
v -66.48804 0.2387363 -25.03374
v -72.24823 0.2437291 -27.05837
v -72.49823 0.2437298 -27.05705
v -71.24825 0.2437264 -27.06363
v -70.99825 0.2437257 -27.06494
v -70.99825 -0.006274249 -27.06494
v -67.99829 0.2437177 -27.08071
v -67.99829 -0.006282286 -27.08071
v -67.74829 0.243717 -27.08203
v -66.74831 0.2437144 -27.08728
v -66.49831 0.2437137 -27.0886
v -72.25992 0.2478666 -29.18092
v -72.50992 0.2478668 -29.17952
v -71.25993 0.2478658 -29.18652
v -71.00994 0.2478656 -29.18792
v -71.00994 -0.002134418 -29.18792
v -68.00999 0.2478631 -29.20471
v -68.00999 -0.002136901 -29.20471
v -67.75999 0.2478629 -29.20611
v -66.76001 0.2478621 -29.2117
v -66.51001 0.2478619 -29.2131
v -72.27134 0.2497448 -31.18667
v -72.52133 0.2497448 -31.18531
v -71.27135 0.2497447 -31.19214
v -71.02135 0.2497447 -31.19351
v -71.02135 -0.0002553423 -31.19351
v -68.0214 0.2497444 -31.20991
v -68.0214 -0.000255597 -31.20991
v -67.7714 0.2497444 -31.21128
v -66.77142 0.2497443 -31.21674
v -66.52142 0.2497443 -31.21811
v -72.28004 0.25 -32.8622
v -72.53004 0.25 -32.8609
v -71.28006 0.25 -32.8674
v -71.03006 0.25 -32.86869
v -71.03006 0 -32.86869
v -68.03011 0.25 -32.88429
v -68.03011 0 -32.88429
v -67.78011 0.25 -32.88559
v -66.78012 0.25 -32.89079
v -66.53012 0.25 -32.89209

vn 1.490506E-06 0.9999974 -0.002282734
vn 9.13117E-07 0.9999959 -0.002842846
vn 9.13117E-07 0.9999959 -0.002842846
vn 1.490506E-06 0.9999974 -0.002282734
vn -8.457221E-07 0.9999899 -0.004508824
vn -8.457221E-07 0.9999899 -0.004508824
vn 0.7032542 0.7109184 -0.005346149
vn 0.7032542 0.7109184 -0.005346149
vn 0.9999982 0 -0.001889658
vn 0.9999982 0 -0.001889658
vn -0.9999968 0 0.002487076
vn -0.7110586 0.7031326 -0.0002614456
vn -0.7110586 0.7031326 -0.0002614456
vn -0.9999968 0 0.002487076
vn 9.101508E-07 0.999996 -0.002838388
vn 9.101508E-07 0.999996 -0.002838388
vn -8.40251E-07 0.9999899 -0.004498822
vn -8.40251E-07 0.9999899 -0.004498822
vn -1.416241E-06 0.9999874 -0.005046393
vn -1.416241E-06 0.9999874 -0.005046393
vn 1.191803E-05 0.999999 0.001401173
vn 1.234153E-05 0.9999989 0.00149356
vn 1.053753E-05 0.9999995 0.001122079
vn 0.7096965 0.7045046 -0.002016903
vn 0.9999939 0 -0.003484248
vn -0.7046157 0.7095803 0.003514253
vn -0.9999925 0 0.003863642
vn 1.191377E-05 0.999999 0.001399182
vn 1.052187E-05 0.9999994 0.00111927
vn 1.003666E-05 0.9999995 0.001025092
vn 1.511718E-05 0.9999975 0.002230227
vn 1.518918E-05 0.9999974 0.002261493
vn 1.486064E-05 0.9999976 0.002136556
vn 0.7046748 0.7095279 -0.001846022
vn 0.9999899 0 -0.00448582
vn -0.7095609 0.7046278 0.004778696
vn -0.9999887 0 0.004741946
vn 1.512519E-05 0.9999975 0.002231231
vn 1.486375E-05 0.9999977 0.00213721
vn 1.4773E-05 0.9999978 0.002106012
vn 1.362989E-05 0.9999977 0.002133782
vn 1.333189E-05 0.9999978 0.00210248
vn 1.452239E-05 0.9999975 0.002228115
vn 0.7111081 0.7030792 -0.002210002
vn 0.9999866 0 -0.00517164
vn -0.7031155 0.7110571 0.00513361
vn -0.9999858 0 0.005341327
vn 1.363828E-05 0.9999976 0.002136093
vn 1.453764E-05 0.9999975 0.00223028
vn 1.484727E-05 0.9999974 0.002262059
vn 8.272687E-06 0.999999 0.001355449
vn 7.756857E-06 0.9999992 0.001286745
vn 9.816893E-06 0.9999987 0.001558164
vn 0.700376 0.7137688 -0.002781874
vn 0.9999844 0 -0.005567385
vn -0.7138419 0.70029 0.004876033
vn -0.9999841 0 0.005627689
vn 8.282217E-06 0.9999991 0.001357876
vn 9.826692E-06 0.9999987 0.001560702
vn 1.034073E-05 0.9999987 0.001627445
vn 2.85186E-06 0.9999998 0.000500337
vn 2.505109E-06 0.9999999 0.000445842
vn 3.912469E-06 0.9999997 0.0006561094
vn 0.6856311 0.7279423 -0.003176057
vn 0.9999847 0 -0.005545155
vn -0.727958 0.685608 0.004344212
vn -0.9999855 0 0.005383571
vn 2.858673E-06 0.9999998 0.0005014706
vn 3.915792E-06 0.9999997 0.0006575538
vn 4.239622E-06 0.9999998 0.0007072886
vn 8.186763E-07 1 0.0001523274
vn 7.924953E-07 1 0.0001523078
vn 8.432491E-07 0.9999999 0.0001523695
vn 0.4471957 0.8944334 -0.002187535
vn 0.9999865 0 -0.00519645
vn -0.8944124 0.4472184 0.004718336
vn -0.9999865 0 0.005198948
vn 8.102969E-07 1 0.0001526617
vn 8.51927E-07 0.9999999 0.0001527072
vn 8.444191E-07 1 0.0001527493

vt 1 -0.1226472 0.0
vt 0.865201 0.3003567 0.0
vt 0.865201 -0.1227567 0.0
vt 1 0.3003567 0.0
vt 0.1315237 0.3003567 0.0
vt 0.1315237 -0.1231939 0.0
vt 0.06601681 0.3003567 0.0
vt 0.06601681 -0.1233034 0.0
vt 0 0.3003567 0.0
vt 0 -0.1233034 0.0
vt 0 -0.1246149 0.0
vt 0.06601681 0.3003567 0.0
vt 0.06601681 -0.1246149 0.0
vt 0 0.3003567 0.0
vt 0.1315237 0.3003567 0.0
vt 0.1315237 -0.1247243 0.0
vt 0.865201 0.3003567 0.0
vt 0.865201 -0.1251615 0.0
vt 1 0.3003567 0.0
vt 1 -0.125271 0.0
vt 0.865201 0.5908815 0.0
vt 1 0.5908815 0.0
vt 0.1315237 0.5908815 0.0
vt 0.06601681 0.5908815 0.0
vt 0 0.5908815 0.0
vt 0.06601681 0.5908815 0.0
vt 0 0.5908815 0.0
vt 0.1315237 0.5908815 0.0
vt 0.865201 0.5908815 0.0
vt 1 0.5908815 0.0
vt 0.865201 0.8876752 0.0
vt 1 0.8876752 0.0
vt 0.1315237 0.8876752 0.0
vt 0.06601681 0.8876752 0.0
vt 0 0.8876752 0.0
vt 0.06601681 0.8876752 0.0
vt 0 0.8876752 0.0
vt 0.1315237 0.8876752 0.0
vt 0.865201 0.8876752 0.0
vt 1 0.8876752 0.0
vt 0.865201 1.178325 0.0
vt 1 1.178325 0.0
vt 0.1315237 1.178325 0.0
vt 0.06601681 1.178325 0.0
vt 0 1.178325 0.0
vt 0.06601681 1.178325 0.0
vt 0 1.178325 0.0
vt 0.1315237 1.178325 0.0
vt 0.865201 1.178325 0.0
vt 1 1.178325 0.0
vt 0.865201 1.478965 0.0
vt 1 1.478965 0.0
vt 0.1315237 1.478965 0.0
vt 0.06601681 1.478965 0.0
vt 0 1.478965 0.0
vt 0.06601681 1.478965 0.0
vt 0 1.478965 0.0
vt 0.1315237 1.478965 0.0
vt 0.865201 1.478965 0.0
vt 1 1.478965 0.0
vt 0.865201 1.762887 0.0
vt 1 1.762887 0.0
vt 0.1315237 1.762887 0.0
vt 0.06601681 1.762887 0.0
vt 0 1.762887 0.0
vt 0.06601681 1.762887 0.0
vt 0 1.762887 0.0
vt 0.1315237 1.762887 0.0
vt 0.865201 1.762887 0.0
vt 1 1.762887 0.0
vt 0.865201 2 0.0
vt 1 2 0.0
vt 0.1315237 2 0.0
vt 0.06601681 2 0.0
vt 0 2 0.0
vt 0.06601681 2 0.0
vt 0 2 0.0
vt 0.1315237 2 0.0
vt 0.865201 2 0.0
vt 1 2 0.0


usemtl material
usemap material
f 18/18/18 17/17/17 19/19/19
s 1
f 18/18/18 20/20/20 17/17/17
s 1
f 21/21/21 19/19/19 22/22/22
s 1
f 21/21/21 18/18/18 19/19/19
s 1
f 23/23/23 22/22/22 24/24/24
s 1
f 23/23/23 21/21/21 22/22/22
s 1
f 25/25/25 24/24/24 26/26/26
s 1
f 25/25/25 23/23/23 24/24/24
s 1
f 28/28/28 27/27/27 29/29/29
s 1
f 28/28/28 30/30/30 27/27/27
s 1
f 31/31/31 29/29/29 32/32/32
s 1
f 31/31/31 28/28/28 29/29/29
s 1
f 33/33/33 32/32/32 34/34/34
s 1
f 33/33/33 31/31/31 32/32/32
s 1
f 35/35/35 34/34/34 36/36/36
s 1
f 35/35/35 33/33/33 34/34/34
s 1
f 37/37/37 20/20/20 18/18/18
s 1
f 37/37/37 38/38/38 20/20/20
s 1
f 39/39/39 18/18/18 21/21/21
s 1
f 39/39/39 37/37/37 18/18/18
s 1
f 40/40/40 21/21/21 23/23/23
s 1
f 40/40/40 39/39/39 21/21/21
s 1
f 41/41/41 23/23/23 25/25/25
s 1
f 41/41/41 40/40/40 23/23/23
s 1
f 42/42/42 30/30/30 28/28/28
s 1
f 42/42/42 43/43/43 30/30/30
s 1
f 44/44/44 28/28/28 31/31/31
s 1
f 44/44/44 42/42/42 28/28/28
s 1
f 45/45/45 31/31/31 33/33/33
s 1
f 45/45/45 44/44/44 31/31/31
s 1
f 46/46/46 33/33/33 35/35/35
s 1
f 46/46/46 45/45/45 33/33/33
s 1
f 47/47/47 38/38/38 37/37/37
s 1
f 47/47/47 48/48/48 38/38/38
s 1
f 49/49/49 37/37/37 39/39/39
s 1
f 49/49/49 47/47/47 37/37/37
s 1
f 50/50/50 39/39/39 40/40/40
s 1
f 50/50/50 49/49/49 39/39/39
s 1
f 51/51/51 40/40/40 41/41/41
s 1
f 51/51/51 50/50/50 40/40/40
s 1
f 52/52/52 43/43/43 42/42/42
s 1
f 52/52/52 53/53/53 43/43/43
s 1
f 54/54/54 42/42/42 44/44/44
s 1
f 54/54/54 52/52/52 42/42/42
s 1
f 55/55/55 44/44/44 45/45/45
s 1
f 55/55/55 54/54/54 44/44/44
s 1
f 56/56/56 45/45/45 46/46/46
s 1
f 56/56/56 55/55/55 45/45/45
s 1
f 57/57/57 48/48/48 47/47/47
s 1
f 57/57/57 58/58/58 48/48/48
s 1
f 59/59/59 47/47/47 49/49/49
s 1
f 59/59/59 57/57/57 47/47/47
s 1
f 60/60/60 49/49/49 50/50/50
s 1
f 60/60/60 59/59/59 49/49/49
s 1
f 61/61/61 50/50/50 51/51/51
s 1
f 61/61/61 60/60/60 50/50/50
s 1
f 62/62/62 53/53/53 52/52/52
s 1
f 62/62/62 63/63/63 53/53/53
s 1
f 64/64/64 52/52/52 54/54/54
s 1
f 64/64/64 62/62/62 52/52/52
s 1
f 65/65/65 54/54/54 55/55/55
s 1
f 65/65/65 64/64/64 54/54/54
s 1
f 66/66/66 55/55/55 56/56/56
s 1
f 66/66/66 65/65/65 55/55/55
s 1
f 67/67/67 58/58/58 57/57/57
s 1
f 67/67/67 68/68/68 58/58/58
s 1
f 69/69/69 57/57/57 59/59/59
s 1
f 69/69/69 67/67/67 57/57/57
s 1
f 70/70/70 59/59/59 60/60/60
s 1
f 70/70/70 69/69/69 59/59/59
s 1
f 71/71/71 60/60/60 61/61/61
s 1
f 71/71/71 70/70/70 60/60/60
s 1
f 72/72/72 63/63/63 62/62/62
s 1
f 72/72/72 73/73/73 63/63/63
s 1
f 74/74/74 62/62/62 64/64/64
s 1
f 74/74/74 72/72/72 62/62/62
s 1
f 75/75/75 64/64/64 65/65/65
s 1
f 75/75/75 74/74/74 64/64/64
s 1
f 76/76/76 65/65/65 66/66/66
s 1
f 76/76/76 75/75/75 65/65/65
s 1
f 77/77/77 68/68/68 67/67/67
s 1
f 77/77/77 78/78/78 68/68/68
s 1
f 79/79/79 67/67/67 69/69/69
s 1
f 79/79/79 77/77/77 67/67/67
s 1
f 80/80/80 69/69/69 70/70/70
s 1
f 80/80/80 79/79/79 69/69/69
s 1
f 81/81/81 70/70/70 71/71/71
s 1
f 81/81/81 80/80/80 70/70/70
s 1
f 82/82/82 73/73/73 72/72/72
s 1
f 82/82/82 83/83/83 73/73/73
s 1
f 84/84/84 72/72/72 74/74/74
s 1
f 84/84/84 82/82/82 72/72/72
s 1
f 85/85/85 74/74/74 75/75/75
s 1
f 85/85/85 84/84/84 74/74/74
s 1
f 86/86/86 75/75/75 76/76/76
s 1
f 86/86/86 85/85/85 75/75/75
s 1
f 87/87/87 78/78/78 77/77/77
s 1
f 87/87/87 88/88/88 78/78/78
s 1
f 89/89/89 77/77/77 79/79/79
s 1
f 89/89/89 87/87/87 77/77/77
s 1
f 90/90/90 79/79/79 80/80/80
s 1
f 90/90/90 89/89/89 79/79/79
s 1
f 91/91/91 80/80/80 81/81/81
s 1
f 91/91/91 90/90/90 80/80/80
s 1
f 92/92/92 83/83/83 82/82/82
s 1
f 92/92/92 93/93/93 83/83/83
s 1
f 94/94/94 82/82/82 84/84/84
s 1
f 94/94/94 92/92/92 82/82/82
s 1
f 95/95/95 84/84/84 85/85/85
s 1
f 95/95/95 94/94/94 84/84/84
s 1
f 96/96/96 85/85/85 86/86/86
s 1
f 96/96/96 95/95/95 85/85/85
s 1
s 1

