
# position 0 0 0
g Motorway 2x2 0021-road material
v -65.47 0 3.41
v -63.44814 -0.0158751 6.410216
v -65.47 0 6.41
v -63.44746 -0.01587687 3.410217
v -61.43388 -0.0149363 6.410916
v -61.43253 -0.01493856 3.410918
v -59.42608 -0.01293554 6.412027
v -59.42416 -0.01293718 3.412031
v -57.4237 -0.01159971 6.413476
v -57.42131 -0.01160043 3.41348
v -55.22604 -0.01108566 6.415373
v -55.22329 -0.01108575 3.415376
v -53.03221 -0.009881394 6.417492
v -53.02922 -0.009881394 3.417494
v -50.84078 -0.006107821 6.419736
v -50.83769 -0.006107821 3.419738
v -48.65033 -0.001637995 6.422006
v -48.64727 -0.001637995 3.422011
v -46.45943 0 6.424206
v -46.45653 0 3.424212
v -44.26663 0 6.42624
v -44.26412 0 3.426242
v -41.14207 0 6.428652
v -41.14045 0 3.428652

vn 0.00231334 0.9999973 -1.550973E-07
vn 0.005085735 0.9999871 1.654651E-07
vn 0.005085735 0.9999871 1.654651E-07
vn 0.00231334 0.9999973 -1.550973E-07
vn -0.0006423491 0.9999998 -9.53195E-07
vn -0.0008191612 0.9999996 -1.115981E-06
vn -0.0008869194 0.9999996 -1.119347E-06
vn -0.0007772314 0.9999998 -9.751938E-07
vn -0.000513733 0.9999999 -7.129082E-07
vn -0.0003696923 0.9999999 -4.705383E-07
vn -0.0003388721 1 -4.000935E-07
vn -0.0004438712 0.9999999 -4.404601E-07
vn -0.000939638 0.9999995 -9.29747E-07
vn -0.001330613 0.9999991 -1.343543E-06
vn -0.001828111 0.9999983 -1.862459E-06
vn -0.001934326 0.9999982 -1.985379E-06
vn -0.001609555 0.9999987 -1.648338E-06
vn -0.001178597 0.9999993 -1.18862E-06
vn -0.0004982921 0.9999999 -4.948512E-07
vn -0.0002490884 1 -2.40717E-07
vn 0 0.9999999 0
vn 0 1 0
vn 0 1 0
vn 0 1 0

vt 1 -0.07204159 0.0
vt 0 0.3324791 0.0
vt 0 -0.07190579 0.0
vt 1 0.3324791 0.0
vt 0 0.6637083 0.0
vt 1 0.6637083 0.0
vt 0 0.9938659 0.0
vt 1 0.9938659 0.0
vt 0 1.323125 0.0
vt 1 1.323125 0.0
vt 0 1.684483 0.0
vt 1 1.684483 0.0
vt 0 2.045199 0.0
vt 1 2.045199 0.0
vt 0 2.405511 0.0
vt 1 2.405511 0.0
vt 0 2.765651 0.0
vt 1 2.765651 0.0
vt 0 3.125853 0.0
vt 1 3.125853 0.0
vt 0 3.486351 0.0
vt 1 3.486351 0.0
vt 0 4.111262 0.0
vt 1 4.111085 0.0


usemtl material
usemap material
f 2/2/2 1/1/1 3/3/3
s 1
f 2/2/2 4/4/4 1/1/1
s 1
f 5/5/5 4/4/4 2/2/2
s 1
f 5/5/5 6/6/6 4/4/4
s 1
f 7/7/7 6/6/6 5/5/5
s 1
f 7/7/7 8/8/8 6/6/6
s 1
f 9/9/9 8/8/8 7/7/7
s 1
f 9/9/9 10/10/10 8/8/8
s 1
f 11/11/11 10/10/10 9/9/9
s 1
f 11/11/11 12/12/12 10/10/10
s 1
f 13/13/13 12/12/12 11/11/11
s 1
f 13/13/13 14/14/14 12/12/12
s 1
f 15/15/15 14/14/14 13/13/13
s 1
f 15/15/15 16/16/16 14/14/14
s 1
f 17/17/17 16/16/16 15/15/15
s 1
f 17/17/17 18/18/18 16/16/16
s 1
f 19/19/19 18/18/18 17/17/17
s 1
f 19/19/19 20/20/20 18/18/18
s 1
f 21/21/21 20/20/20 19/19/19
s 1
f 21/21/21 22/22/22 20/20/20
s 1
f 23/23/23 22/22/22 21/21/21
s 1
f 23/23/23 24/24/24 22/22/22
s 1
s 1

# position 0 0 0
g Motorway 2x2 0021-sidewalk
v -65.47 0.25 1.91
v -63.44717 0.2341224 2.160218
v -65.47 0.25 2.16
v -63.44712 0.2341222 1.910218
v -63.4474 0.234123 3.160217
v -65.47 0.25 3.16
v -63.44746 0.2341231 3.410217
v -65.47 0.25 3.41
v -63.44746 -0.01587687 3.410217
v -65.47 0 3.41
v -65.47 0 6.41
v -63.44814 0.2341249 6.410216
v -65.47 0.25 6.41
v -63.44814 -0.0158751 6.410216
v -63.4482 0.234125 6.660216
v -65.47 0.25 6.66
v -63.44843 0.2341256 7.660216
v -65.47 0.25 7.66
v -63.44848 0.2341258 7.910216
v -65.47 0.25 7.91
v -61.43196 0.2350605 2.16092
v -61.43185 0.2350603 1.91092
v -61.43241 0.2350612 3.160919
v -61.43253 0.2350614 3.410918
v -61.43253 -0.01493856 3.410918
v -61.43388 0.2350637 6.410916
v -61.43388 -0.0149363 6.410916
v -61.43399 0.2350639 6.660916
v -61.43444 0.2350646 7.660915
v -61.43455 0.2350648 7.910915
v -59.42337 0.2370621 2.162032
v -59.42321 0.237062 1.912033
v -59.424 0.2370627 3.162031
v -59.42416 0.2370628 3.412031
v -59.42416 -0.01293718 3.412031
v -59.42608 0.2370645 6.412027
v -59.42608 -0.01293554 6.412027
v -59.42624 0.2370646 6.662026
v -59.42688 0.2370651 7.662025
v -59.42704 0.2370653 7.912025
v -57.42031 0.2383993 2.163482
v -57.42012 0.2383992 1.913482
v -57.42111 0.2383995 3.16348
v -57.42131 0.2383996 3.41348
v -57.42131 -0.01160043 3.41348
v -57.4237 0.2384003 6.413476
v -57.4237 -0.01159971 6.413476
v -57.4239 0.2384003 6.663476
v -57.42469 0.2384006 7.663474
v -57.42489 0.2384006 7.913474
v -55.22215 0.2389142 2.165377
v -55.22192 0.2389142 1.915378
v -55.22306 0.2389143 3.165376
v -55.22329 0.2389143 3.415376
v -55.22329 -0.01108575 3.415376
v -55.22604 0.2389143 6.415373
v -55.22604 -0.01108566 6.415373
v -55.22626 0.2389143 6.665373
v -55.22718 0.2389144 7.665372
v -55.22741 0.2389144 7.915372
v -53.02798 0.2401186 2.167495
v -53.02773 0.2401186 1.917495
v -53.02898 0.2401186 3.167494
v -53.02922 0.2401186 3.417494
v -53.02922 -0.009881394 3.417494
v -53.03221 0.2401186 6.417492
v -53.03221 -0.009881394 6.417492
v -53.03246 0.2401186 6.667492
v -53.03345 0.2401186 7.667492
v -53.0337 0.2401186 7.917492
v -50.8364 0.2438922 2.169739
v -50.83614 0.2438922 1.919739
v -50.83743 0.2438922 3.169739
v -50.83769 0.2438922 3.419738
v -50.83769 -0.006107821 3.419738
v -50.84078 0.2438922 6.419736
v -50.84078 -0.006107821 6.419736
v -50.84104 0.2438922 6.669736
v -50.84207 0.2438922 7.669735
v -50.84232 0.2438922 7.919735
v -48.64599 0.248362 2.172013
v -48.64573 0.248362 1.922014
v -48.64701 0.248362 3.172011
v -48.64727 0.248362 3.422011
v -48.64727 -0.001637995 3.422011
v -48.65033 0.248362 6.422006
v -48.65033 -0.001637995 6.422006
v -48.65058 0.248362 6.672006
v -48.6516 0.248362 7.672004
v -48.65186 0.248362 7.922003
v -46.45533 0.25 2.174215
v -46.45509 0.25 1.924216
v -46.45629 0.25 3.174213
v -46.45653 0.25 3.424212
v -46.45653 0 3.424212
v -46.45943 0.25 6.424206
v -46.45943 0 6.424206
v -46.45967 0.25 6.674205
v -46.46064 0.25 7.674203
v -46.46088 0.25 7.924202
v -44.26308 0.25 2.176243
v -44.26287 0.25 1.926243
v -44.26391 0.25 3.176243
v -44.26412 0.25 3.426242
v -44.26412 0 3.426242
v -44.26663 0.25 6.42624
v -44.26663 0 6.42624
v -44.26683 0.25 6.67624
v -44.26767 0.25 7.676239
v -44.26788 0.25 7.926239
v -41.13977 0.25 2.178652
v -41.13963 0.25 1.928652
v -41.14031 0.25 3.178652
v -41.14045 0.25 3.428652
v -41.14045 0 3.428652
v -41.14207 0.25 6.428652
v -41.14207 0 6.428652
v -41.14221 0.25 6.678652
v -41.14275 0.25 7.678652
v -41.14289 0.25 7.928652

vn 0.002313019 0.9999974 -1.195098E-07
vn 0.002867959 0.9999959 -7.898861E-08
vn 0.002867959 0.9999959 -7.898861E-08
vn 0.002313019 0.9999974 -1.195098E-07
vn 0.004531052 0.9999897 9.346994E-08
vn 0.004531052 0.9999897 9.346994E-08
vn 0.003408781 0.7075499 0.7066551
vn 0.003408781 0.7075499 0.7066551
vn -0.0001874689 0 1
vn -0.0001874689 0 1
vn 0.0002671693 0 -0.9999999
vn 0.001767183 0.7066582 -0.707553
vn 0.001767183 0.7066582 -0.707553
vn 0.0002671693 0 -0.9999999
vn 0.002868654 0.9999959 -8.685566E-08
vn 0.002868654 0.9999959 -8.685566E-08
vn 0.004532394 0.9999897 1.020239E-07
vn 0.004532394 0.9999897 1.020239E-07
vn 0.00508651 0.9999871 1.672536E-07
vn 0.00508651 0.9999871 1.672536E-07
vn -0.0007836989 0.9999997 -1.074294E-06
vn -0.0008191263 0.9999997 -1.143609E-06
vn -0.000677539 0.9999998 -9.862279E-07
vn -0.0007971618 0.707495 0.7067179
vn -0.0004164466 0 0.9999999
vn -0.0002847731 0.706724 -0.7074892
vn 0.00048444 0 -0.9999999
vn -0.0007839187 0.9999997 -1.079851E-06
vn -0.0006778872 0.9999997 -9.848646E-07
vn -0.0006426171 0.9999998 -9.663167E-07
vn -0.0007993372 0.9999996 -1.006115E-06
vn -0.0007774215 0.9999997 -1.009096E-06
vn -0.0008651174 0.9999996 -1.081071E-06
vn -0.001098822 0.7074326 0.70678
vn -0.0006102676 0 0.9999998
vn -0.0001177984 0.7067853 -0.7074282
vn 0.0006667328 0 -0.9999998
vn -0.0007990394 0.9999996 -1.00692E-06
vn -0.0008649008 0.9999996 -1.080929E-06
vn -0.0008868366 0.9999996 -1.118386E-06
vn -0.0003979887 0.9999999 -5.214316E-07
vn -0.0003699013 0.9999999 -4.803214E-07
vn -0.000484417 0.9999998 -6.583588E-07
vn -0.0009458783 0.6960745 0.7179689
vn -0.0007728573 0 0.9999997
vn 0.0002728933 0.7179774 -0.6960662
vn 0.000819634 0 -0.9999997
vn -0.0003975702 0.9999999 -5.210871E-07
vn -0.000483983 0.9999999 -6.624742E-07
vn -0.0005134874 0.9999999 -7.092057E-07
vn -0.0004229118 0.9999999 -4.367548E-07
vn -0.000443902 0.9999999 -4.601043E-07
vn -0.0003599577 0.9999999 -4.036692E-07
vn -0.0008979664 0.7073202 0.7068928
vn -0.000896931 0 0.9999996
vn 0.0003210847 0.7068995 -0.7073141
vn 0.0009316877 0 -0.9999996
vn -0.0004227887 0.9999999 -4.279005E-07
vn -0.0003597508 0.9999999 -4.122323E-07
vn -0.0003387248 0.9999999 -4.198367E-07
vn -0.001252341 0.9999992 -1.263098E-06
vn -0.001330553 0.9999991 -1.33718E-06
vn -0.001017762 0.9999994 -1.013777E-06
vn -0.001374609 0.7072437 0.7069684
vn -0.0009848849 0 0.9999995
vn -0.0002439416 0.7069768 -0.7072367
vn 0.001004617 0 -0.9999995
vn -0.001252457 0.9999992 -1.258681E-06
vn -0.001017861 0.9999996 -1.012125E-06
vn -0.0009396872 0.9999995 -9.379117E-07
vn -0.001913071 0.9999983 -1.95996E-06
vn -0.001934326 0.9999982 -1.977538E-06
vn -0.001849323 0.9999983 -1.889854E-06
vn -0.002023186 0.7071667 0.707044
vn -0.001028499 0 0.9999995
vn -0.0006407423 0.7070535 -0.7071597
vn 0.001031982 0 -0.9999994
vn -0.001913104 0.9999983 -1.963821E-06
vn -0.001849391 0.9999982 -1.886096E-06
vn -0.001828165 0.9999983 -1.851484E-06
vn -0.001264837 0.9999992 -1.281685E-06
vn -0.001178657 0.9999993 -1.189777E-06
vn -0.00152341 0.9999989 -1.558553E-06
vn -0.001856403 0.7070891 0.707122
vn -0.001026695 0 0.9999995
vn -0.0001083627 0.7071311 -0.7070825
vn 0.001014801 0 -0.9999995
vn -0.001264741 0.9999992 -1.283663E-06
vn -0.001523322 0.9999988 -1.558462E-06
vn -0.001609521 0.9999987 -1.645477E-06
vn -0.0002989518 0.9999999 -2.911856E-07
vn -0.0002491199 0.9999999 -2.394806E-07
vn -0.0004484847 0.9999999 -4.440572E-07
vn -0.001025709 0.7070153 0.7071976
vn -0.0009784978 0 0.9999995
vn 0.0005158401 0.7072106 -0.7070028
vn 0.0009533114 0 -0.9999996
vn -0.0002988903 1 -2.911255E-07
vn -0.0004484062 0.9999999 -4.439795E-07
vn -0.000498253 0.9999999 -4.941788E-07
vn 0 1 0
vn 0 1 0
vn 0 1 0
vn -0.0006062877 0.6646829 0.7471255
vn -0.00086159 0 0.9999996
vn 0.0005735583 0.7471378 -0.6646689
vn 0.0008123028 0 -0.9999996
vn 0 1 0
vn 0 1 0
vn 0 1 0
vn 0 1 0
vn 0 1 0
vn 0 1 0
vn -0.0003449634 0.894425 0.4472178
vn -0.000771354 0 0.9999997
vn 0.0006902703 0.4472143 -0.8944265
vn 0.000771746 0 -0.9999997
vn 0 1 0
vn 0 1 0
vn 0 1 0

vt 1 -0.07211026 0.0
vt 0.865201 0.3324791 0.0
vt 0.865201 -0.07209887 0.0
vt 1 0.3324791 0.0
vt 0.1315237 0.3324791 0.0
vt 0.1315237 -0.07205309 0.0
vt 0.06601681 0.3324791 0.0
vt 0.06601681 -0.07204159 0.0
vt 0 0.3324791 0.0
vt 0 -0.07204159 0.0
vt 0 -0.07190579 0.0
vt 0.06601681 0.3324791 0.0
vt 0.06601681 -0.07190579 0.0
vt 0 0.3324791 0.0
vt 0.1315237 0.3324791 0.0
vt 0.1315237 -0.07189439 0.0
vt 0.865201 0.3324791 0.0
vt 0.865201 -0.07184862 0.0
vt 1 0.3324791 0.0
vt 1 -0.07183717 0.0
vt 0.865201 0.6637083 0.0
vt 1 0.6637083 0.0
vt 0.1315237 0.6637083 0.0
vt 0.06601681 0.6637083 0.0
vt 0 0.6637083 0.0
vt 0.06601681 0.6637083 0.0
vt 0 0.6637083 0.0
vt 0.1315237 0.6637083 0.0
vt 0.865201 0.6637083 0.0
vt 1 0.6637083 0.0
vt 0.865201 0.9938659 0.0
vt 1 0.9938659 0.0
vt 0.1315237 0.9938659 0.0
vt 0.06601681 0.9938659 0.0
vt 0 0.9938659 0.0
vt 0.06601681 0.9938659 0.0
vt 0 0.9938659 0.0
vt 0.1315237 0.9938659 0.0
vt 0.865201 0.9938659 0.0
vt 1 0.9938659 0.0
vt 0.865201 1.323125 0.0
vt 1 1.323125 0.0
vt 0.1315237 1.323125 0.0
vt 0.06601681 1.323125 0.0
vt 0 1.323125 0.0
vt 0.06601681 1.323125 0.0
vt 0 1.323125 0.0
vt 0.1315237 1.323125 0.0
vt 0.865201 1.323125 0.0
vt 1 1.323125 0.0
vt 0.865201 1.684483 0.0
vt 1 1.684483 0.0
vt 0.1315237 1.684483 0.0
vt 0.06601681 1.684483 0.0
vt 0 1.684483 0.0
vt 0.06601681 1.684483 0.0
vt 0 1.684483 0.0
vt 0.1315237 1.684483 0.0
vt 0.865201 1.684483 0.0
vt 1 1.684483 0.0
vt 0.865201 2.045199 0.0
vt 1 2.045199 0.0
vt 0.1315237 2.045199 0.0
vt 0.06601681 2.045199 0.0
vt 0 2.045199 0.0
vt 0.06601681 2.045199 0.0
vt 0 2.045199 0.0
vt 0.1315237 2.045199 0.0
vt 0.865201 2.045199 0.0
vt 1 2.045199 0.0
vt 0.865201 2.405511 0.0
vt 1 2.405511 0.0
vt 0.1315237 2.405511 0.0
vt 0.06601681 2.405511 0.0
vt 0 2.405511 0.0
vt 0.06601681 2.405511 0.0
vt 0 2.405511 0.0
vt 0.1315237 2.405511 0.0
vt 0.865201 2.405511 0.0
vt 1 2.405511 0.0
vt 0.865201 2.765651 0.0
vt 1 2.765651 0.0
vt 0.1315237 2.765651 0.0
vt 0.06601681 2.765651 0.0
vt 0 2.765651 0.0
vt 0.06601681 2.765651 0.0
vt 0 2.765651 0.0
vt 0.1315237 2.765651 0.0
vt 0.865201 2.765651 0.0
vt 1 2.765651 0.0
vt 0.865201 3.125853 0.0
vt 1 3.125853 0.0
vt 0.1315237 3.125853 0.0
vt 0.06601681 3.125853 0.0
vt 0 3.125853 0.0
vt 0.06601681 3.125853 0.0
vt 0 3.125853 0.0
vt 0.1315237 3.125853 0.0
vt 0.865201 3.125853 0.0
vt 1 3.125853 0.0
vt 0.865201 3.486351 0.0
vt 1 3.486351 0.0
vt 0.1315237 3.486351 0.0
vt 0.06601681 3.486351 0.0
vt 0 3.486351 0.0
vt 0.06601681 3.486351 0.0
vt 0 3.486351 0.0
vt 0.1315237 3.486351 0.0
vt 0.865201 3.486351 0.0
vt 1 3.486351 0.0
vt 0.865201 4.111013 0.0
vt 1 4.110998 0.0
vt 0.1315237 4.111072 0.0
vt 0.06601681 4.111085 0.0
vt 0 4.111085 0.0
vt 0.06601681 4.111262 0.0
vt 0 4.111262 0.0
vt 0.1315237 4.111276 0.0
vt 0.865201 4.111335 0.0
vt 1 4.111349 0.0


usemtl material
usemap material
f 26/26/26 25/25/25 27/27/27
s 1
f 26/26/26 28/28/28 25/25/25
s 1
f 29/29/29 27/27/27 30/30/30
s 1
f 29/29/29 26/26/26 27/27/27
s 1
f 31/31/31 30/30/30 32/32/32
s 1
f 31/31/31 29/29/29 30/30/30
s 1
f 33/33/33 32/32/32 34/34/34
s 1
f 33/33/33 31/31/31 32/32/32
s 1
f 36/36/36 35/35/35 37/37/37
s 1
f 36/36/36 38/38/38 35/35/35
s 1
f 39/39/39 37/37/37 40/40/40
s 1
f 39/39/39 36/36/36 37/37/37
s 1
f 41/41/41 40/40/40 42/42/42
s 1
f 41/41/41 39/39/39 40/40/40
s 1
f 43/43/43 42/42/42 44/44/44
s 1
f 43/43/43 41/41/41 42/42/42
s 1
f 45/45/45 28/28/28 26/26/26
s 1
f 45/45/45 46/46/46 28/28/28
s 1
f 47/47/47 26/26/26 29/29/29
s 1
f 47/47/47 45/45/45 26/26/26
s 1
f 48/48/48 29/29/29 31/31/31
s 1
f 48/48/48 47/47/47 29/29/29
s 1
f 49/49/49 31/31/31 33/33/33
s 1
f 49/49/49 48/48/48 31/31/31
s 1
f 50/50/50 38/38/38 36/36/36
s 1
f 50/50/50 51/51/51 38/38/38
s 1
f 52/52/52 36/36/36 39/39/39
s 1
f 52/52/52 50/50/50 36/36/36
s 1
f 53/53/53 39/39/39 41/41/41
s 1
f 53/53/53 52/52/52 39/39/39
s 1
f 54/54/54 41/41/41 43/43/43
s 1
f 54/54/54 53/53/53 41/41/41
s 1
f 55/55/55 46/46/46 45/45/45
s 1
f 55/55/55 56/56/56 46/46/46
s 1
f 57/57/57 45/45/45 47/47/47
s 1
f 57/57/57 55/55/55 45/45/45
s 1
f 58/58/58 47/47/47 48/48/48
s 1
f 58/58/58 57/57/57 47/47/47
s 1
f 59/59/59 48/48/48 49/49/49
s 1
f 59/59/59 58/58/58 48/48/48
s 1
f 60/60/60 51/51/51 50/50/50
s 1
f 60/60/60 61/61/61 51/51/51
s 1
f 62/62/62 50/50/50 52/52/52
s 1
f 62/62/62 60/60/60 50/50/50
s 1
f 63/63/63 52/52/52 53/53/53
s 1
f 63/63/63 62/62/62 52/52/52
s 1
f 64/64/64 53/53/53 54/54/54
s 1
f 64/64/64 63/63/63 53/53/53
s 1
f 65/65/65 56/56/56 55/55/55
s 1
f 65/65/65 66/66/66 56/56/56
s 1
f 67/67/67 55/55/55 57/57/57
s 1
f 67/67/67 65/65/65 55/55/55
s 1
f 68/68/68 57/57/57 58/58/58
s 1
f 68/68/68 67/67/67 57/57/57
s 1
f 69/69/69 58/58/58 59/59/59
s 1
f 69/69/69 68/68/68 58/58/58
s 1
f 70/70/70 61/61/61 60/60/60
s 1
f 70/70/70 71/71/71 61/61/61
s 1
f 72/72/72 60/60/60 62/62/62
s 1
f 72/72/72 70/70/70 60/60/60
s 1
f 73/73/73 62/62/62 63/63/63
s 1
f 73/73/73 72/72/72 62/62/62
s 1
f 74/74/74 63/63/63 64/64/64
s 1
f 74/74/74 73/73/73 63/63/63
s 1
f 75/75/75 66/66/66 65/65/65
s 1
f 75/75/75 76/76/76 66/66/66
s 1
f 77/77/77 65/65/65 67/67/67
s 1
f 77/77/77 75/75/75 65/65/65
s 1
f 78/78/78 67/67/67 68/68/68
s 1
f 78/78/78 77/77/77 67/67/67
s 1
f 79/79/79 68/68/68 69/69/69
s 1
f 79/79/79 78/78/78 68/68/68
s 1
f 80/80/80 71/71/71 70/70/70
s 1
f 80/80/80 81/81/81 71/71/71
s 1
f 82/82/82 70/70/70 72/72/72
s 1
f 82/82/82 80/80/80 70/70/70
s 1
f 83/83/83 72/72/72 73/73/73
s 1
f 83/83/83 82/82/82 72/72/72
s 1
f 84/84/84 73/73/73 74/74/74
s 1
f 84/84/84 83/83/83 73/73/73
s 1
f 85/85/85 76/76/76 75/75/75
s 1
f 85/85/85 86/86/86 76/76/76
s 1
f 87/87/87 75/75/75 77/77/77
s 1
f 87/87/87 85/85/85 75/75/75
s 1
f 88/88/88 77/77/77 78/78/78
s 1
f 88/88/88 87/87/87 77/77/77
s 1
f 89/89/89 78/78/78 79/79/79
s 1
f 89/89/89 88/88/88 78/78/78
s 1
f 90/90/90 81/81/81 80/80/80
s 1
f 90/90/90 91/91/91 81/81/81
s 1
f 92/92/92 80/80/80 82/82/82
s 1
f 92/92/92 90/90/90 80/80/80
s 1
f 93/93/93 82/82/82 83/83/83
s 1
f 93/93/93 92/92/92 82/82/82
s 1
f 94/94/94 83/83/83 84/84/84
s 1
f 94/94/94 93/93/93 83/83/83
s 1
f 95/95/95 86/86/86 85/85/85
s 1
f 95/95/95 96/96/96 86/86/86
s 1
f 97/97/97 85/85/85 87/87/87
s 1
f 97/97/97 95/95/95 85/85/85
s 1
f 98/98/98 87/87/87 88/88/88
s 1
f 98/98/98 97/97/97 87/87/87
s 1
f 99/99/99 88/88/88 89/89/89
s 1
f 99/99/99 98/98/98 88/88/88
s 1
f 100/100/100 91/91/91 90/90/90
s 1
f 100/100/100 101/101/101 91/91/91
s 1
f 102/102/102 90/90/90 92/92/92
s 1
f 102/102/102 100/100/100 90/90/90
s 1
f 103/103/103 92/92/92 93/93/93
s 1
f 103/103/103 102/102/102 92/92/92
s 1
f 104/104/104 93/93/93 94/94/94
s 1
f 104/104/104 103/103/103 93/93/93
s 1
f 105/105/105 96/96/96 95/95/95
s 1
f 105/105/105 106/106/106 96/96/96
s 1
f 107/107/107 95/95/95 97/97/97
s 1
f 107/107/107 105/105/105 95/95/95
s 1
f 108/108/108 97/97/97 98/98/98
s 1
f 108/108/108 107/107/107 97/97/97
s 1
f 109/109/109 98/98/98 99/99/99
s 1
f 109/109/109 108/108/108 98/98/98
s 1
f 110/110/110 101/101/101 100/100/100
s 1
f 110/110/110 111/111/111 101/101/101
s 1
f 112/112/112 100/100/100 102/102/102
s 1
f 112/112/112 110/110/110 100/100/100
s 1
f 113/113/113 102/102/102 103/103/103
s 1
f 113/113/113 112/112/112 102/102/102
s 1
f 114/114/114 103/103/103 104/104/104
s 1
f 114/114/114 113/113/113 103/103/103
s 1
f 115/115/115 106/106/106 105/105/105
s 1
f 115/115/115 116/116/116 106/106/106
s 1
f 117/117/117 105/105/105 107/107/107
s 1
f 117/117/117 115/115/115 105/105/105
s 1
f 118/118/118 107/107/107 108/108/108
s 1
f 118/118/118 117/117/117 107/107/107
s 1
f 119/119/119 108/108/108 109/109/109
s 1
f 119/119/119 118/118/118 108/108/108
s 1
f 120/120/120 111/111/111 110/110/110
s 1
f 120/120/120 121/121/121 111/111/111
s 1
f 122/122/122 110/110/110 112/112/112
s 1
f 122/122/122 120/120/120 110/110/110
s 1
f 123/123/123 112/112/112 113/113/113
s 1
f 123/123/123 122/122/122 112/112/112
s 1
f 124/124/124 113/113/113 114/114/114
s 1
f 124/124/124 123/123/123 113/113/113
s 1
f 125/125/125 116/116/116 115/115/115
s 1
f 125/125/125 126/126/126 116/116/116
s 1
f 127/127/127 115/115/115 117/117/117
s 1
f 127/127/127 125/125/125 115/115/115
s 1
f 128/128/128 117/117/117 118/118/118
s 1
f 128/128/128 127/127/127 117/117/117
s 1
f 129/129/129 118/118/118 119/119/119
s 1
f 129/129/129 128/128/128 118/118/118
s 1
f 130/130/130 121/121/121 120/120/120
s 1
f 130/130/130 131/131/131 121/121/121
s 1
f 132/132/132 120/120/120 122/122/122
s 1
f 132/132/132 130/130/130 120/120/120
s 1
f 133/133/133 122/122/122 123/123/123
s 1
f 133/133/133 132/132/132 122/122/122
s 1
f 134/134/134 123/123/123 124/124/124
s 1
f 134/134/134 133/133/133 123/123/123
s 1
f 135/135/135 126/126/126 125/125/125
s 1
f 135/135/135 136/136/136 126/126/126
s 1
f 137/137/137 125/125/125 127/127/127
s 1
f 137/137/137 135/135/135 125/125/125
s 1
f 138/138/138 127/127/127 128/128/128
s 1
f 138/138/138 137/137/137 127/127/127
s 1
f 139/139/139 128/128/128 129/129/129
s 1
f 139/139/139 138/138/138 128/128/128
s 1
f 140/140/140 131/131/131 130/130/130
s 1
f 140/140/140 141/141/141 131/131/131
s 1
f 142/142/142 130/130/130 132/132/132
s 1
f 142/142/142 140/140/140 130/130/130
s 1
f 143/143/143 132/132/132 133/133/133
s 1
f 143/143/143 142/142/142 132/132/132
s 1
f 144/144/144 133/133/133 134/134/134
s 1
f 144/144/144 143/143/143 133/133/133
s 1
s 1

