
# position 0 0 0
g Motorway 2x2 008-road material
v -89.52003 0 25.51944
v -92.49989 -0.01037616 27.66007
v -92.52003 0 25.51944
v -89.50027 -0.006229648 27.61235
v -92.45325 -0.009354408 29.72255
v -89.45434 -0.006367071 29.64193
v -92.38789 -0.006868517 31.82821
v -89.38962 -0.005046329 31.72648
v -92.31159 -0.003973606 33.89839
v -89.31385 -0.003069053 33.78188
v -92.22351 -0.001492884 36.05769
v -89.22612 -0.00119699 35.93267
v -92.13502 -0.0002384276 38.13181
v -89.13755 -0.0001964887 38.00869
v -92.05225 0 40.22701
v -89.05459 0 40.10859

vn -0.001241177 0.9999989 0.0008862125
vn -0.0008989984 0.9999965 0.002489483
vn -0.0008989984 0.9999965 0.002489483
vn -0.001241177 0.9999989 0.0008862125
vn -0.001136804 0.9999992 -0.0005151816
vn -0.0008826058 0.9999994 -0.000565301
vn -0.0007711145 0.9999992 -0.001045291
vn -0.0005412132 0.9999994 -0.0009785326
vn -0.0004451146 0.9999992 -0.001153063
vn -0.0002722092 0.9999994 -0.0009837624
vn -0.0002025798 0.9999996 -0.0008699526
vn -9.784995E-05 0.9999998 -0.0006508918
vn -5.855498E-05 0.9999999 -0.0003967734
vn -1.862816E-05 1 -0.0002281328
vn -1.115475E-05 1 -0.0001032318
vn -3.690765E-06 1 -9.342471E-05

vt 0 -0.129742 0.0
vt 1 0.2888591 0.0
vt 1 -0.1392906 0.0
vt 0 0.2888591 0.0
vt 1 0.5681239 0.0
vt 0 0.5681239 0.0
vt 1 0.8541529 0.0
vt 0 0.8541529 0.0
vt 1 1.135824 0.0
vt 0 1.135824 0.0
vt 1 1.430138 0.0
vt 0 1.430138 0.0
vt 1 1.713552 0.0
vt 0 1.713552 0.0
vt 1 2 0.0
vt 0 2 0.0


usemtl material
usemap material
f 2/2/2 1/1/1 3/3/3
s 1
f 2/2/2 4/4/4 1/1/1
s 1
f 5/5/5 4/4/4 2/2/2
s 1
f 5/5/5 6/6/6 4/4/4
s 1
f 7/7/7 6/6/6 5/5/5
s 1
f 7/7/7 8/8/8 6/6/6
s 1
f 9/9/9 8/8/8 7/7/7
s 1
f 9/9/9 10/10/10 8/8/8
s 1
f 11/11/11 10/10/10 9/9/9
s 1
f 11/11/11 12/12/12 10/10/10
s 1
f 13/13/13 12/12/12 11/11/11
s 1
f 13/13/13 14/14/14 12/12/12
s 1
f 15/15/15 14/14/14 13/13/13
s 1
f 15/15/15 16/16/16 14/14/14
s 1
s 1

# position 0 0 0
g Motorway 2x2 008-sidewalk
v -88.02003 0.25 25.51944
v -88.25043 0.2454981 27.59246
v -88.27003 0.25 25.51944
v -88.00046 0.2458436 27.58849
v -89.2503 0.2441159 27.60837
v -89.27003 0.25 25.51944
v -89.50027 0.2437703 27.61235
v -89.52003 0.25 25.51944
v -89.50027 -0.006229648 27.61235
v -89.52003 0 25.51944
v -92.52003 0 25.51944
v -92.49989 0.2396238 27.66007
v -92.52003 0.25 25.51944
v -92.49989 -0.01037616 27.66007
v -92.74986 0.2392783 27.66405
v -92.77003 0.25 25.51944
v -93.74973 0.2378961 27.67996
v -93.77003 0.25 25.51944
v -93.99969 0.2375506 27.68394
v -94.02003 0.25 25.51944
v -88.20479 0.2448777 29.60834
v -87.95487 0.2451266 29.60162
v -89.20443 0.2438819 29.63521
v -89.45434 0.2436329 29.64193
v -89.45434 -0.006367071 29.64193
v -92.45325 0.2406456 29.72255
v -92.45325 -0.009354408 29.72255
v -92.70316 0.2403966 29.72926
v -93.7028 0.2394009 29.75614
v -93.95271 0.2391519 29.76285
v -88.14034 0.2457129 31.6841
v -87.89047 0.2458648 31.67562
v -89.13976 0.2451055 31.71801
v -89.38962 0.2449537 31.72648
v -89.38962 -0.005046329 31.72648
v -92.38789 0.2431315 31.82821
v -92.38789 -0.006868517 31.82821
v -92.63775 0.2429796 31.83669
v -93.63718 0.2423722 31.8706
v -93.88703 0.2422204 31.87908
v -88.0648 0.2473078 33.73333
v -87.81498 0.2473832 33.72362
v -89.06404 0.2470063 33.77216
v -89.31385 0.2469309 33.78188
v -89.31385 -0.003069053 33.78188
v -92.31159 0.2460264 33.89839
v -92.31159 -0.003973606 33.89839
v -92.5614 0.245951 33.9081
v -93.56065 0.2456495 33.94694
v -93.81046 0.2455741 33.95665
v -87.9772 0.2489263 35.88058
v -87.72742 0.248951 35.87016
v -88.97633 0.2488277 35.92225
v -89.22612 0.248803 35.93267
v -89.22612 -0.00119699 35.93267
v -92.22351 0.2485071 36.05769
v -92.22351 -0.001492884 36.05769
v -92.4733 0.2484825 36.06811
v -93.47243 0.2483838 36.10978
v -93.72221 0.2483592 36.1202
v -87.8886 0.249821 37.95739
v -87.6388 0.2498245 37.94713
v -88.88776 0.249807 37.99843
v -89.13755 0.2498035 38.00869
v -89.13755 -0.0001964887 38.00869
v -92.13502 0.2497616 38.13181
v -92.13502 -0.0002384276 38.13181
v -92.38481 0.2497581 38.14207
v -93.38396 0.2497441 38.18312
v -93.63376 0.2497406 38.19337
v -87.80556 0.25 40.05925
v -87.55575 0.25 40.04938
v -88.80479 0.25 40.09872
v -89.05459 0.25 40.10859
v -89.05459 0 40.10859
v -92.05225 0.25 40.22701
v -92.05225 0 40.22701
v -92.30206 0.25 40.23688
v -93.30128 0.25 40.27636
v -93.55109 0.25 40.28622

vn -0.001238795 0.9999989 0.0009228395
vn -0.001172173 0.9999989 0.00102314
vn -0.001172173 0.9999989 0.00102314
vn -0.001238795 0.9999989 0.0009228395
vn -0.0009699236 0.9999982 0.001593048
vn -0.0009699236 0.9999982 0.001593048
vn -0.7039258 0.7101321 0.01417066
vn -0.7039258 0.7101321 0.01417066
vn -0.9999055 0 0.01374671
vn -0.9999055 0 0.01374671
vn 0.9998363 0 -0.01809647
vn 0.7108065 0.7033325 -0.00881106
vn 0.7108065 0.7033325 -0.00881106
vn 0.9998363 0 -0.01809647
vn -0.001167049 0.9999979 0.001683185
vn -0.001167049 0.9999979 0.001683185
vn -0.0009593315 0.9999952 0.002976577
vn -0.0009593315 0.9999952 0.002976577
vn -0.0008888346 0.9999932 0.003598032
vn -0.0008888346 0.9999932 0.003598032
vn -0.0009215937 0.9999996 -0.0001454048
vn -0.000869325 0.9999996 -0.0001147178
vn -0.001075047 0.9999995 -9.584493E-05
vn -0.7105454 0.7033673 0.01999108
vn -0.9996754 0 0.02547762
vn 0.7039784 0.7099776 -0.01860984
vn 0.9996006 0 -0.0282575
vn -0.0009453451 0.9999992 -0.000975241
vn -0.001095845 0.9999989 -0.0009270238
vn -0.001147143 0.9999989 -0.0009557318
vn -0.0005753331 0.9999996 -0.0006432641
vn -0.0005279347 0.9999996 -0.0006058776
vn -0.0007130603 0.9999995 -0.0006510869
vn -0.7054203 0.7083791 0.02410754
vn -0.9994571 0 0.03294988
vn 0.7084215 0.7053716 -0.0242903
vn 0.9993917 0 -0.03487526
vn -0.0006004858 0.9999989 -0.001364839
vn -0.0007374911 0.9999987 -0.001403778
vn -0.0007843538 0.9999987 -0.001463484
vn -0.0002968801 0.9999996 -0.0007747553
vn -0.0002621736 0.9999997 -0.0007315734
vn -0.0003996667 0.9999996 -0.0008411203
vn -0.7121295 0.7015094 0.02749861
vn -0.9992708 0 0.03818385
vn 0.701435 0.7121956 -0.02768018
vn 0.9992201 0 -0.03948605
vn -0.0003169773 0.9999992 -0.001284676
vn -0.0004207095 0.999999 -0.001397413
vn -0.0004570739 0.9999988 -0.001473148
vn -0.0001136722 0.9999998 -0.0005670137
vn -9.261868E-05 0.9999999 -0.0005256143
vn -0.0001753067 0.9999997 -0.0006682435
vn -0.702433 0.711159 0.02899541
vn -0.9991441 0 0.04136421
vn 0.7111705 0.7023793 -0.03000016
vn 0.9991182 0 -0.04198696
vn -0.0001253711 0.9999996 -0.0008472488
vn -0.000188778 0.9999995 -0.0009949076
vn -0.0002107232 0.9999994 -0.001069642
vn -2.497778E-05 0.9999999 -0.0002225463
vn -1.72431E-05 1 -0.0001948116
vn -4.81802E-05 0.9999999 -0.0003059687
vn -0.7078662 0.7057729 0.02845941
vn -0.9991357 0 0.04156735
vn 0.7053272 0.7082663 -0.02954041
vn 0.9991789 0 -0.04051582
vn -2.873601E-05 1 -0.0003141057
vn -5.325226E-05 0.9999998 -0.0004283266
vn -6.193408E-05 0.9999999 -0.000478388
vn -5.692788E-06 1 -8.466226E-05
vn -3.2919E-06 1 -8.336169E-05
vn -9.782444E-06 1 -8.851504E-05
vn -0.4468393 0.8944417 0.01757062
vn -0.9992205 0 0.03947683
vn 0.8937307 0.4472086 -0.03535466
vn 0.9992208 0 -0.03947079
vn -6.897016E-06 1 -0.0001149323
vn -1.099346E-05 1 -0.0001188079
vn -1.19481E-05 1 -0.0001226256

vt 1 -0.1249687 0.0
vt 0.865201 0.2888591 0.0
vt 0.865201 -0.1257642 0.0
vt 1 0.2888591 0.0
vt 0.1315237 0.2888591 0.0
vt 0.1315237 -0.1289465 0.0
vt 0.06601681 0.2888591 0.0
vt 0.06601681 -0.129742 0.0
vt 0 0.2888591 0.0
vt 0 -0.129742 0.0
vt 0 -0.1392906 0.0
vt 0.06601681 0.2888591 0.0
vt 0.06601681 -0.1392906 0.0
vt 0 0.2888591 0.0
vt 0.1315237 0.2888591 0.0
vt 0.1315237 -0.1400864 0.0
vt 0.865201 0.2888591 0.0
vt 0.865201 -0.1432693 0.0
vt 1 0.2888591 0.0
vt 1 -0.1440651 0.0
vt 0.865201 0.5681239 0.0
vt 1 0.5681239 0.0
vt 0.1315237 0.5681239 0.0
vt 0.06601681 0.5681239 0.0
vt 0 0.5681239 0.0
vt 0.06601681 0.5681239 0.0
vt 0 0.5681239 0.0
vt 0.1315237 0.5681239 0.0
vt 0.865201 0.5681239 0.0
vt 1 0.5681239 0.0
vt 0.865201 0.8541529 0.0
vt 1 0.8541529 0.0
vt 0.1315237 0.8541529 0.0
vt 0.06601681 0.8541529 0.0
vt 0 0.8541529 0.0
vt 0.06601681 0.8541529 0.0
vt 0 0.8541529 0.0
vt 0.1315237 0.8541529 0.0
vt 0.865201 0.8541529 0.0
vt 1 0.8541529 0.0
vt 0.865201 1.135824 0.0
vt 1 1.135824 0.0
vt 0.1315237 1.135824 0.0
vt 0.06601681 1.135824 0.0
vt 0 1.135824 0.0
vt 0.06601681 1.135824 0.0
vt 0 1.135824 0.0
vt 0.1315237 1.135824 0.0
vt 0.865201 1.135824 0.0
vt 1 1.135824 0.0
vt 0.865201 1.430138 0.0
vt 1 1.430138 0.0
vt 0.1315237 1.430138 0.0
vt 0.06601681 1.430138 0.0
vt 0 1.430138 0.0
vt 0.06601681 1.430138 0.0
vt 0 1.430138 0.0
vt 0.1315237 1.430138 0.0
vt 0.865201 1.430138 0.0
vt 1 1.430138 0.0
vt 0.865201 1.713552 0.0
vt 1 1.713552 0.0
vt 0.1315237 1.713552 0.0
vt 0.06601681 1.713552 0.0
vt 0 1.713552 0.0
vt 0.06601681 1.713552 0.0
vt 0 1.713552 0.0
vt 0.1315237 1.713552 0.0
vt 0.865201 1.713552 0.0
vt 1 1.713552 0.0
vt 0.865201 2 0.0
vt 1 2 0.0
vt 0.1315237 2 0.0
vt 0.06601681 2 0.0
vt 0 2 0.0
vt 0.06601681 2 0.0
vt 0 2 0.0
vt 0.1315237 2 0.0
vt 0.865201 2 0.0
vt 1 2 0.0


usemtl material
usemap material
f 18/18/18 17/17/17 19/19/19
s 1
f 18/18/18 20/20/20 17/17/17
s 1
f 21/21/21 19/19/19 22/22/22
s 1
f 21/21/21 18/18/18 19/19/19
s 1
f 23/23/23 22/22/22 24/24/24
s 1
f 23/23/23 21/21/21 22/22/22
s 1
f 25/25/25 24/24/24 26/26/26
s 1
f 25/25/25 23/23/23 24/24/24
s 1
f 28/28/28 27/27/27 29/29/29
s 1
f 28/28/28 30/30/30 27/27/27
s 1
f 31/31/31 29/29/29 32/32/32
s 1
f 31/31/31 28/28/28 29/29/29
s 1
f 33/33/33 32/32/32 34/34/34
s 1
f 33/33/33 31/31/31 32/32/32
s 1
f 35/35/35 34/34/34 36/36/36
s 1
f 35/35/35 33/33/33 34/34/34
s 1
f 37/37/37 20/20/20 18/18/18
s 1
f 37/37/37 38/38/38 20/20/20
s 1
f 39/39/39 18/18/18 21/21/21
s 1
f 39/39/39 37/37/37 18/18/18
s 1
f 40/40/40 21/21/21 23/23/23
s 1
f 40/40/40 39/39/39 21/21/21
s 1
f 41/41/41 23/23/23 25/25/25
s 1
f 41/41/41 40/40/40 23/23/23
s 1
f 42/42/42 30/30/30 28/28/28
s 1
f 42/42/42 43/43/43 30/30/30
s 1
f 44/44/44 28/28/28 31/31/31
s 1
f 44/44/44 42/42/42 28/28/28
s 1
f 45/45/45 31/31/31 33/33/33
s 1
f 45/45/45 44/44/44 31/31/31
s 1
f 46/46/46 33/33/33 35/35/35
s 1
f 46/46/46 45/45/45 33/33/33
s 1
f 47/47/47 38/38/38 37/37/37
s 1
f 47/47/47 48/48/48 38/38/38
s 1
f 49/49/49 37/37/37 39/39/39
s 1
f 49/49/49 47/47/47 37/37/37
s 1
f 50/50/50 39/39/39 40/40/40
s 1
f 50/50/50 49/49/49 39/39/39
s 1
f 51/51/51 40/40/40 41/41/41
s 1
f 51/51/51 50/50/50 40/40/40
s 1
f 52/52/52 43/43/43 42/42/42
s 1
f 52/52/52 53/53/53 43/43/43
s 1
f 54/54/54 42/42/42 44/44/44
s 1
f 54/54/54 52/52/52 42/42/42
s 1
f 55/55/55 44/44/44 45/45/45
s 1
f 55/55/55 54/54/54 44/44/44
s 1
f 56/56/56 45/45/45 46/46/46
s 1
f 56/56/56 55/55/55 45/45/45
s 1
f 57/57/57 48/48/48 47/47/47
s 1
f 57/57/57 58/58/58 48/48/48
s 1
f 59/59/59 47/47/47 49/49/49
s 1
f 59/59/59 57/57/57 47/47/47
s 1
f 60/60/60 49/49/49 50/50/50
s 1
f 60/60/60 59/59/59 49/49/49
s 1
f 61/61/61 50/50/50 51/51/51
s 1
f 61/61/61 60/60/60 50/50/50
s 1
f 62/62/62 53/53/53 52/52/52
s 1
f 62/62/62 63/63/63 53/53/53
s 1
f 64/64/64 52/52/52 54/54/54
s 1
f 64/64/64 62/62/62 52/52/52
s 1
f 65/65/65 54/54/54 55/55/55
s 1
f 65/65/65 64/64/64 54/54/54
s 1
f 66/66/66 55/55/55 56/56/56
s 1
f 66/66/66 65/65/65 55/55/55
s 1
f 67/67/67 58/58/58 57/57/57
s 1
f 67/67/67 68/68/68 58/58/58
s 1
f 69/69/69 57/57/57 59/59/59
s 1
f 69/69/69 67/67/67 57/57/57
s 1
f 70/70/70 59/59/59 60/60/60
s 1
f 70/70/70 69/69/69 59/59/59
s 1
f 71/71/71 60/60/60 61/61/61
s 1
f 71/71/71 70/70/70 60/60/60
s 1
f 72/72/72 63/63/63 62/62/62
s 1
f 72/72/72 73/73/73 63/63/63
s 1
f 74/74/74 62/62/62 64/64/64
s 1
f 74/74/74 72/72/72 62/62/62
s 1
f 75/75/75 64/64/64 65/65/65
s 1
f 75/75/75 74/74/74 64/64/64
s 1
f 76/76/76 65/65/65 66/66/66
s 1
f 76/76/76 75/75/75 65/65/65
s 1
f 77/77/77 68/68/68 67/67/67
s 1
f 77/77/77 78/78/78 68/68/68
s 1
f 79/79/79 67/67/67 69/69/69
s 1
f 79/79/79 77/77/77 67/67/67
s 1
f 80/80/80 69/69/69 70/70/70
s 1
f 80/80/80 79/79/79 69/69/69
s 1
f 81/81/81 70/70/70 71/71/71
s 1
f 81/81/81 80/80/80 70/70/70
s 1
f 82/82/82 73/73/73 72/72/72
s 1
f 82/82/82 83/83/83 73/73/73
s 1
f 84/84/84 72/72/72 74/74/74
s 1
f 84/84/84 82/82/82 72/72/72
s 1
f 85/85/85 74/74/74 75/75/75
s 1
f 85/85/85 84/84/84 74/74/74
s 1
f 86/86/86 75/75/75 76/76/76
s 1
f 86/86/86 85/85/85 75/75/75
s 1
f 87/87/87 78/78/78 77/77/77
s 1
f 87/87/87 88/88/88 78/78/78
s 1
f 89/89/89 77/77/77 79/79/79
s 1
f 89/89/89 87/87/87 77/77/77
s 1
f 90/90/90 79/79/79 80/80/80
s 1
f 90/90/90 89/89/89 79/79/79
s 1
f 91/91/91 80/80/80 81/81/81
s 1
f 91/91/91 90/90/90 80/80/80
s 1
f 92/92/92 83/83/83 82/82/82
s 1
f 92/92/92 93/93/93 83/83/83
s 1
f 94/94/94 82/82/82 84/84/84
s 1
f 94/94/94 92/92/92 82/82/82
s 1
f 95/95/95 84/84/84 85/85/85
s 1
f 95/95/95 94/94/94 84/84/84
s 1
f 96/96/96 85/85/85 86/86/86
s 1
f 96/96/96 95/95/95 85/85/85
s 1
s 1

