
# position 0 0 0
g Motorway 2x2 007-road material
v -95.02 0 23.04
v -97.12486 -0.01701831 20.03862
v -95.02 0 20.04
v -97.12822 -0.01702775 23.03862
v -99.15397 -0.01626702 20.03537
v -99.15974 -0.01627931 23.03536
v -101.2442 -0.01130879 20.03071
v -101.2515 -0.01131931 23.03069
v -103.3309 -0.00357584 20.0251
v -103.3395 -0.003582886 23.02509
v -105.35 0.004347649 20.01904
v -105.3593 0.004343953 23.01902
v -107.4356 0.01062334 20.01233
v -107.4454 0.0106221 23.01231
v -109.4364 0.01246763 20.00574
v -109.4459 0.01246746 23.00573
v -111.5102 0.01287714 19.99949
v -111.5193 0.01287714 22.99947

vn -0.002517161 0.9999968 7.390648E-07
vn -0.005333747 0.9999858 -8.329481E-07
vn -0.005333747 0.9999858 -8.329481E-07
vn -0.002517161 0.9999968 7.390648E-07
vn 0.001049922 0.9999995 5.702398E-06
vn 0.001716668 0.9999985 7.624096E-06
vn 0.002815695 0.9999961 1.019804E-05
vn 0.003260045 0.9999947 1.160718E-05
vn 0.003776807 0.9999929 1.299465E-05
vn 0.003849714 0.9999925 1.327497E-05
vn 0.003612624 0.9999935 1.249686E-05
vn 0.003307747 0.9999945 1.139753E-05
vn 0.002332554 0.9999973 8.139138E-06
vn 0.001637425 0.9999986 5.596878E-06
vn 0.0006747404 0.9999998 2.334204E-06
vn 0.0004334181 0.9999999 1.396106E-06
vn 0.000197525 1 6.383582E-07
vn 0.0001975868 1 5.959552E-07

vt 0 -0.03853028 0.0
vt 1 0.3831281 0.0
vt 1 -0.03785894 0.0
vt 0 0.3831281 0.0
vt 1 0.7523919 0.0
vt 0 0.7523919 0.0
vt 1 1.132695 0.0
vt 0 1.132695 0.0
vt 1 1.512333 0.0
vt 0 1.512333 0.0
vt 1 1.879618 0.0
vt 0 1.879618 0.0
vt 1 2.258993 0.0
vt 0 2.258993 0.0
vt 1 2.622863 0.0
vt 0 2.622863 0.0
vt 1 3 0.0
vt 0 3 0.0


usemtl material
usemap material
f 2/2/2 1/1/1 3/3/3
s 1
f 2/2/2 4/4/4 1/1/1
s 1
f 5/5/5 4/4/4 2/2/2
s 1
f 5/5/5 6/6/6 4/4/4
s 1
f 7/7/7 6/6/6 5/5/5
s 1
f 7/7/7 8/8/8 6/6/6
s 1
f 9/9/9 8/8/8 7/7/7
s 1
f 9/9/9 10/10/10 8/8/8
s 1
f 11/11/11 10/10/10 9/9/9
s 1
f 11/11/11 12/12/12 10/10/10
s 1
f 13/13/13 12/12/12 11/11/11
s 1
f 13/13/13 14/14/14 12/12/12
s 1
f 15/15/15 14/14/14 13/13/13
s 1
f 15/15/15 16/16/16 14/14/14
s 1
f 17/17/17 16/16/16 15/15/15
s 1
f 17/17/17 18/18/18 16/16/16
s 1
s 1

# position 0 0 0
g Motorway 2x2 007-sidewalk
v -95.02 0.25 24.54
v -97.12962 0.2329683 24.28862
v -95.02 0.25 24.29
v -97.12991 0.2329675 24.53862
v -97.1285 0.2329715 23.28862
v -95.02 0.25 23.29
v -97.12822 0.2329722 23.03862
v -95.02 0.25 23.04
v -97.12822 -0.01702775 23.03862
v -95.02 0 23.04
v -95.02 0 20.04
v -97.12486 0.2329817 20.03862
v -95.02 0.25 20.04
v -97.12486 -0.01701831 20.03862
v -97.12458 0.2329825 19.78862
v -95.02 0.25 19.79
v -97.12346 0.2329856 18.78862
v -95.02 0.25 18.79
v -97.12318 0.2329864 18.53862
v -95.02 0.25 18.54
v -99.16213 0.2337156 24.28536
v -99.16261 0.2337146 24.53536
v -99.16022 0.2337197 23.28536
v -99.15974 0.2337207 23.03536
v -99.15974 -0.01627931 23.03536
v -99.15397 0.233733 20.03537
v -99.15397 -0.01626702 20.03537
v -99.15349 0.233734 19.78537
v -99.15157 0.2337381 18.78537
v -99.15109 0.2337391 18.53537
v -101.2546 0.2386763 24.28069
v -101.2552 0.2386754 24.53069
v -101.2522 0.2386798 23.28069
v -101.2515 0.2386807 23.03069
v -101.2515 -0.01131931 23.03069
v -101.2442 0.2386912 20.03071
v -101.2442 -0.01130879 20.03071
v -101.2436 0.2386921 19.78071
v -101.2411 0.2386956 18.78071
v -101.2405 0.2386965 18.53071
v -103.343 0.2464142 24.27508
v -103.3437 0.2464136 24.52508
v -103.3402 0.2464165 23.27509
v -103.3395 0.2464171 23.02509
v -103.3395 -0.003582886 23.02509
v -103.3309 0.2464242 20.0251
v -103.3309 -0.00357584 20.0251
v -103.3302 0.2464247 19.77511
v -103.3274 0.2464271 18.77511
v -103.3267 0.2464277 18.52511
v -105.3632 0.2543424 24.26901
v -105.364 0.2543421 24.51901
v -105.3601 0.2543437 23.26902
v -105.3593 0.254344 23.01902
v -105.3593 0.004343953 23.01902
v -105.35 0.2543477 20.01904
v -105.35 0.004347649 20.01904
v -105.3492 0.254348 19.76904
v -105.3461 0.2543492 18.76904
v -105.3453 0.2543495 18.51905
v -107.4495 0.2606216 24.26231
v -107.4503 0.2606215 24.51231
v -107.4462 0.260622 23.26231
v -107.4454 0.2606221 23.01231
v -107.4454 0.0106221 23.01231
v -107.4356 0.2606233 20.01233
v -107.4356 0.01062334 20.01233
v -107.4348 0.2606235 19.76233
v -107.4316 0.2606239 18.76234
v -107.4308 0.260624 18.51234
v -109.4498 0.2624674 24.25572
v -109.4506 0.2624674 24.50572
v -109.4467 0.2624674 23.25573
v -109.4459 0.2624674 23.00573
v -109.4459 0.01246746 23.00573
v -109.4364 0.2624676 20.00574
v -109.4364 0.01246763 20.00574
v -109.4357 0.2624677 19.75574
v -109.4325 0.2624677 18.75575
v -109.4317 0.2624677 18.50575
v -111.5231 0.2628771 24.24947
v -111.5238 0.2628771 24.49947
v -111.5201 0.2628771 23.24947
v -111.5193 0.2628771 22.99947
v -111.5193 0.01287714 22.99947
v -111.5102 0.2628771 19.99949
v -111.5102 0.01287714 19.99949
v -111.5095 0.2628771 19.74949
v -111.5065 0.2628771 18.74949
v -111.5057 0.2628771 18.49949

vn -0.002516241 0.9999968 7.677205E-07
vn -0.003084627 0.9999953 4.128463E-07
vn -0.003084627 0.9999953 4.128463E-07
vn -0.002516241 0.9999968 7.677205E-07
vn -0.00477295 0.9999886 -5.285252E-07
vn -0.00477295 0.9999886 -5.285252E-07
vn -0.00289354 0.7114734 -0.7027069
vn -0.00289354 0.7114734 -0.7027069
vn 0.0009643642 0 -0.9999995
vn 0.0009643642 0 -0.9999995
vn -0.001279389 0 0.9999991
vn -0.002455022 0.7027609 0.7114218
vn -0.002455022 0.7027609 0.7114218
vn -0.001279389 0 0.9999991
vn -0.003086897 0.9999952 4.077015E-07
vn -0.003086897 0.9999952 4.077015E-07
vn -0.004778311 0.9999886 -5.309253E-07
vn -0.004778311 0.9999886 -5.309253E-07
vn -0.00533715 0.9999858 -8.51799E-07
vn -0.00533715 0.9999858 -8.51799E-07
vn 0.001583444 0.9999987 7.230774E-06
vn 0.0017158 0.9999986 7.604784E-06
vn 0.001183214 0.9999992 6.072974E-06
vn 0.002177077 0.7036651 -0.7105285
vn 0.001815977 0 -0.9999983
vn -5.700088E-05 0.710584 0.7036123
vn -0.002025139 0 0.9999979
vn 0.001585718 0.9999987 7.235285E-06
vn 0.001185743 0.9999993 6.080455E-06
vn 0.001051585 0.9999995 5.722622E-06
vn 0.00317072 0.999995 1.131018E-05
vn 0.003259683 0.9999948 1.15277E-05
vn 0.00290399 0.9999958 1.048012E-05
vn 0.003781938 0.7073317 -0.7068716
vn 0.002381618 0 -0.9999972
vn 0.000620566 0.7069032 0.70731
vn -0.002532876 0 0.9999968
vn 0.003171758 0.9999949 1.132512E-05
vn 0.002905214 0.9999958 1.046264E-05
vn 0.002816525 0.999996 1.018122E-05
vn 0.003834958 0.9999927 1.31951E-05
vn 0.003849702 0.9999926 1.323264E-05
vn 0.003791142 0.9999928 1.303687E-05
vn 0.00472108 0.7110054 -0.7031707
vn 0.002788812 0 -0.9999962
vn 0.0007242824 0.7031984 0.7109934
vn -0.002895822 0 0.9999958
vn 0.00383513 0.9999926 1.321528E-05
vn 0.003791449 0.9999928 1.302574E-05
vn 0.003777056 0.9999929 1.295071E-05
vn 0.003368505 0.9999943 1.162142E-05
vn 0.003308125 0.9999946 1.133231E-05
vn 0.003551373 0.9999937 1.226528E-05
vn 0.004777761 0.7032924 -0.7108846
vn 0.003075957 0 -0.9999952
vn 0.0001874021 0.7109194 0.7032734
vn -0.003147373 0 0.9999951
vn 0.003367882 0.9999944 1.162334E-05
vn 0.003550895 0.9999937 1.226378E-05
vn 0.003612425 0.9999936 1.245492E-05
vn 0.001778595 0.9999984 6.100961E-06
vn 0.001638069 0.9999987 5.511276E-06
vn 0.002195673 0.9999976 7.630258E-06
vn 0.003954861 0.7120275 -0.7021404
vn 0.003240737 0 -0.9999948
vn -0.001158167 0.7021948 0.7119841
vn -0.00326648 0 0.9999947
vn 0.00177738 0.9999985 6.112979E-06
vn 0.002194498 0.9999976 7.626436E-06
vn 0.002331952 0.9999973 8.059063E-06
vn 0.0004814579 0.9999999 1.569211E-06
vn 0.0004336227 0.9999999 1.354882E-06
vn 0.0006263438 0.9999998 2.138738E-06
vn 0.002683696 0.7028767 -0.7113067
vn 0.003198377 0 -0.9999949
vn -0.001939543 0.71132 0.7028655
vn -0.003105275 0 0.9999952
vn 0.0004809347 0.9999998 1.591177E-06
vn 0.0006256553 0.9999998 2.136541E-06
vn 0.0006743011 0.9999998 2.265106E-06
vn 0.0001976392 1 6.001343E-07
vn 0.0001976416 1 5.971228E-07
vn 0.0001976153 1 6.342589E-07
vn 0.001525302 0.8944267 -0.447212
vn 0.003015481 0 -0.9999954
vn -0.002608279 0.4472152 0.8944226
vn -0.003014882 0 0.9999954
vn 0.000197454 1 6.194396E-07
vn 0.0001974279 1 6.336823E-07
vn 0.0001974079 1 6.084679E-07

vt 1 -0.0388675 0.0
vt 0.865201 0.3831281 0.0
vt 0.865201 -0.03881105 0.0
vt 1 0.3831281 0.0
vt 0.1315237 0.3831281 0.0
vt 0.1315237 -0.03858674 0.0
vt 0.06601681 0.3831281 0.0
vt 0.06601681 -0.03853028 0.0
vt 0 0.3831281 0.0
vt 0 -0.03853028 0.0
vt 0 -0.03785894 0.0
vt 0.06601681 0.3831281 0.0
vt 0.06601681 -0.03785894 0.0
vt 0 0.3831281 0.0
vt 0.1315237 0.3831281 0.0
vt 0.1315237 -0.03780244 0.0
vt 0.865201 0.3831281 0.0
vt 0.865201 -0.03757818 0.0
vt 1 0.3831281 0.0
vt 1 -0.03752173 0.0
vt 0.865201 0.7523919 0.0
vt 1 0.7523919 0.0
vt 0.1315237 0.7523919 0.0
vt 0.06601681 0.7523919 0.0
vt 0 0.7523919 0.0
vt 0.06601681 0.7523919 0.0
vt 0 0.7523919 0.0
vt 0.1315237 0.7523919 0.0
vt 0.865201 0.7523919 0.0
vt 1 0.7523919 0.0
vt 0.865201 1.132695 0.0
vt 1 1.132695 0.0
vt 0.1315237 1.132695 0.0
vt 0.06601681 1.132695 0.0
vt 0 1.132695 0.0
vt 0.06601681 1.132695 0.0
vt 0 1.132695 0.0
vt 0.1315237 1.132695 0.0
vt 0.865201 1.132695 0.0
vt 1 1.132695 0.0
vt 0.865201 1.512333 0.0
vt 1 1.512333 0.0
vt 0.1315237 1.512333 0.0
vt 0.06601681 1.512333 0.0
vt 0 1.512333 0.0
vt 0.06601681 1.512333 0.0
vt 0 1.512333 0.0
vt 0.1315237 1.512333 0.0
vt 0.865201 1.512333 0.0
vt 1 1.512333 0.0
vt 0.865201 1.879618 0.0
vt 1 1.879618 0.0
vt 0.1315237 1.879618 0.0
vt 0.06601681 1.879618 0.0
vt 0 1.879618 0.0
vt 0.06601681 1.879618 0.0
vt 0 1.879618 0.0
vt 0.1315237 1.879618 0.0
vt 0.865201 1.879618 0.0
vt 1 1.879618 0.0
vt 0.865201 2.258993 0.0
vt 1 2.258993 0.0
vt 0.1315237 2.258993 0.0
vt 0.06601681 2.258993 0.0
vt 0 2.258993 0.0
vt 0.06601681 2.258993 0.0
vt 0 2.258993 0.0
vt 0.1315237 2.258993 0.0
vt 0.865201 2.258993 0.0
vt 1 2.258993 0.0
vt 0.865201 2.622863 0.0
vt 1 2.622863 0.0
vt 0.1315237 2.622863 0.0
vt 0.06601681 2.622863 0.0
vt 0 2.622863 0.0
vt 0.06601681 2.622863 0.0
vt 0 2.622863 0.0
vt 0.1315237 2.622863 0.0
vt 0.865201 2.622863 0.0
vt 1 2.622863 0.0
vt 0.865201 3 0.0
vt 1 3 0.0
vt 0.1315237 3 0.0
vt 0.06601681 3 0.0
vt 0 3 0.0
vt 0.06601681 3 0.0
vt 0 3 0.0
vt 0.1315237 3 0.0
vt 0.865201 3 0.0
vt 1 3 0.0


usemtl material
usemap material
f 20/20/20 19/19/19 21/21/21
s 1
f 20/20/20 22/22/22 19/19/19
s 1
f 23/23/23 21/21/21 24/24/24
s 1
f 23/23/23 20/20/20 21/21/21
s 1
f 25/25/25 24/24/24 26/26/26
s 1
f 25/25/25 23/23/23 24/24/24
s 1
f 27/27/27 26/26/26 28/28/28
s 1
f 27/27/27 25/25/25 26/26/26
s 1
f 30/30/30 29/29/29 31/31/31
s 1
f 30/30/30 32/32/32 29/29/29
s 1
f 33/33/33 31/31/31 34/34/34
s 1
f 33/33/33 30/30/30 31/31/31
s 1
f 35/35/35 34/34/34 36/36/36
s 1
f 35/35/35 33/33/33 34/34/34
s 1
f 37/37/37 36/36/36 38/38/38
s 1
f 37/37/37 35/35/35 36/36/36
s 1
f 39/39/39 22/22/22 20/20/20
s 1
f 39/39/39 40/40/40 22/22/22
s 1
f 41/41/41 20/20/20 23/23/23
s 1
f 41/41/41 39/39/39 20/20/20
s 1
f 42/42/42 23/23/23 25/25/25
s 1
f 42/42/42 41/41/41 23/23/23
s 1
f 43/43/43 25/25/25 27/27/27
s 1
f 43/43/43 42/42/42 25/25/25
s 1
f 44/44/44 32/32/32 30/30/30
s 1
f 44/44/44 45/45/45 32/32/32
s 1
f 46/46/46 30/30/30 33/33/33
s 1
f 46/46/46 44/44/44 30/30/30
s 1
f 47/47/47 33/33/33 35/35/35
s 1
f 47/47/47 46/46/46 33/33/33
s 1
f 48/48/48 35/35/35 37/37/37
s 1
f 48/48/48 47/47/47 35/35/35
s 1
f 49/49/49 40/40/40 39/39/39
s 1
f 49/49/49 50/50/50 40/40/40
s 1
f 51/51/51 39/39/39 41/41/41
s 1
f 51/51/51 49/49/49 39/39/39
s 1
f 52/52/52 41/41/41 42/42/42
s 1
f 52/52/52 51/51/51 41/41/41
s 1
f 53/53/53 42/42/42 43/43/43
s 1
f 53/53/53 52/52/52 42/42/42
s 1
f 54/54/54 45/45/45 44/44/44
s 1
f 54/54/54 55/55/55 45/45/45
s 1
f 56/56/56 44/44/44 46/46/46
s 1
f 56/56/56 54/54/54 44/44/44
s 1
f 57/57/57 46/46/46 47/47/47
s 1
f 57/57/57 56/56/56 46/46/46
s 1
f 58/58/58 47/47/47 48/48/48
s 1
f 58/58/58 57/57/57 47/47/47
s 1
f 59/59/59 50/50/50 49/49/49
s 1
f 59/59/59 60/60/60 50/50/50
s 1
f 61/61/61 49/49/49 51/51/51
s 1
f 61/61/61 59/59/59 49/49/49
s 1
f 62/62/62 51/51/51 52/52/52
s 1
f 62/62/62 61/61/61 51/51/51
s 1
f 63/63/63 52/52/52 53/53/53
s 1
f 63/63/63 62/62/62 52/52/52
s 1
f 64/64/64 55/55/55 54/54/54
s 1
f 64/64/64 65/65/65 55/55/55
s 1
f 66/66/66 54/54/54 56/56/56
s 1
f 66/66/66 64/64/64 54/54/54
s 1
f 67/67/67 56/56/56 57/57/57
s 1
f 67/67/67 66/66/66 56/56/56
s 1
f 68/68/68 57/57/57 58/58/58
s 1
f 68/68/68 67/67/67 57/57/57
s 1
f 69/69/69 60/60/60 59/59/59
s 1
f 69/69/69 70/70/70 60/60/60
s 1
f 71/71/71 59/59/59 61/61/61
s 1
f 71/71/71 69/69/69 59/59/59
s 1
f 72/72/72 61/61/61 62/62/62
s 1
f 72/72/72 71/71/71 61/61/61
s 1
f 73/73/73 62/62/62 63/63/63
s 1
f 73/73/73 72/72/72 62/62/62
s 1
f 74/74/74 65/65/65 64/64/64
s 1
f 74/74/74 75/75/75 65/65/65
s 1
f 76/76/76 64/64/64 66/66/66
s 1
f 76/76/76 74/74/74 64/64/64
s 1
f 77/77/77 66/66/66 67/67/67
s 1
f 77/77/77 76/76/76 66/66/66
s 1
f 78/78/78 67/67/67 68/68/68
s 1
f 78/78/78 77/77/77 67/67/67
s 1
f 79/79/79 70/70/70 69/69/69
s 1
f 79/79/79 80/80/80 70/70/70
s 1
f 81/81/81 69/69/69 71/71/71
s 1
f 81/81/81 79/79/79 69/69/69
s 1
f 82/82/82 71/71/71 72/72/72
s 1
f 82/82/82 81/81/81 71/71/71
s 1
f 83/83/83 72/72/72 73/73/73
s 1
f 83/83/83 82/82/82 72/72/72
s 1
f 84/84/84 75/75/75 74/74/74
s 1
f 84/84/84 85/85/85 75/75/75
s 1
f 86/86/86 74/74/74 76/76/76
s 1
f 86/86/86 84/84/84 74/74/74
s 1
f 87/87/87 76/76/76 77/77/77
s 1
f 87/87/87 86/86/86 76/76/76
s 1
f 88/88/88 77/77/77 78/78/78
s 1
f 88/88/88 87/87/87 77/77/77
s 1
f 89/89/89 80/80/80 79/79/79
s 1
f 89/89/89 90/90/90 80/80/80
s 1
f 91/91/91 79/79/79 81/81/81
s 1
f 91/91/91 89/89/89 79/79/79
s 1
f 92/92/92 81/81/81 82/82/82
s 1
f 92/92/92 91/91/91 81/81/81
s 1
f 93/93/93 82/82/82 83/83/83
s 1
f 93/93/93 92/92/92 82/82/82
s 1
f 94/94/94 85/85/85 84/84/84
s 1
f 94/94/94 95/95/95 85/85/85
s 1
f 96/96/96 84/84/84 86/86/86
s 1
f 96/96/96 94/94/94 84/84/84
s 1
f 97/97/97 86/86/86 87/87/87
s 1
f 97/97/97 96/96/96 86/86/86
s 1
f 98/98/98 87/87/87 88/88/88
s 1
f 98/98/98 97/97/97 87/87/87
s 1
f 99/99/99 90/90/90 89/89/89
s 1
f 99/99/99 100/100/100 90/90/90
s 1
f 101/101/101 89/89/89 91/91/91
s 1
f 101/101/101 99/99/99 89/89/89
s 1
f 102/102/102 91/91/91 92/92/92
s 1
f 102/102/102 101/101/101 91/91/91
s 1
f 103/103/103 92/92/92 93/93/93
s 1
f 103/103/103 102/102/102 92/92/92
s 1
f 104/104/104 95/95/95 94/94/94
s 1
f 104/104/104 105/105/105 95/95/95
s 1
f 106/106/106 94/94/94 96/96/96
s 1
f 106/106/106 104/104/104 94/94/94
s 1
f 107/107/107 96/96/96 97/97/97
s 1
f 107/107/107 106/106/106 96/96/96
s 1
f 108/108/108 97/97/97 98/98/98
s 1
f 108/108/108 107/107/107 97/97/97
s 1
s 1

