
# position 0 0 0
g Motorway 2x2 0015-road material
v 57.5 0 41.6
v 59.67622 -0.01321376 44.60027
v 57.5 0 44.6
v 59.6768 -0.013215 41.60027
v 61.76651 -0.007381455 44.60083
v 61.76741 -0.007382259 41.60083
v 63.94665 -0.001570699 44.60156
v 63.94767 -0.001570853 41.60156
v 66.23666 0 44.60235
v 66.23769 0 41.60235

vn 0.0002437913 0.9999999 -4.168136E-07
vn 0.003196551 0.9999949 -5.25943E-08
vn 0.003196551 0.9999949 -5.25943E-08
vn 0.0002437913 0.9999999 -4.168136E-07
vn -0.002747311 0.9999962 -1.04257E-06
vn -0.002705753 0.9999964 -1.043504E-06
vn -0.001983761 0.999998 -7.628317E-07
vn -0.001324343 0.9999991 -4.863621E-07
vn -0.0006859233 0.9999998 -2.611044E-07
vn -0.0006859545 0.9999997 -2.372482E-07

vt 1 -0.1862589 0.0
vt 0 0.2491091 0.0
vt 0 -0.1861429 0.0
vt 1 0.2491091 0.0
vt 0 0.488368 0.0
vt 1 0.488368 0.0
vt 0 0.7378997 0.0
vt 1 0.7378997 0.0
vt 0 1 0.0
vt 1 1 0.0


usemtl material
usemap material
f 2/2/2 1/1/1 3/3/3
s 1
f 2/2/2 4/4/4 1/1/1
s 1
f 5/5/5 4/4/4 2/2/2
s 1
f 5/5/5 6/6/6 4/4/4
s 1
f 7/7/7 6/6/6 5/5/5
s 1
f 7/7/7 8/8/8 6/6/6
s 1
f 9/9/9 8/8/8 7/7/7
s 1
f 9/9/9 10/10/10 8/8/8
s 1
s 1

# position 0 0 0
g Motorway 2x2 0015-sidewalk
v 57.5 0.25 40.1
v 59.67704 0.2367845 40.35027
v 57.5 0.25 40.35
v 59.67709 0.2367844 40.10027
v 59.67685 0.2367849 41.35027
v 57.5 0.25 41.35
v 59.6768 0.236785 41.60027
v 57.5 0.25 41.6
v 59.6768 -0.013215 41.60027
v 57.5 0 41.6
v 57.5 0 44.6
v 59.67622 0.2367862 44.60027
v 57.5 0.25 44.6
v 59.67622 -0.01321376 44.60027
v 59.67617 0.2367863 44.85027
v 57.5 0.25 44.85
v 59.67598 0.2367868 45.85027
v 57.5 0.25 45.85
v 59.67593 0.2367869 46.10027
v 57.5 0.25 46.1
v 61.76778 0.2426174 40.35083
v 61.76786 0.2426173 40.10083
v 61.76748 0.2426177 41.35083
v 61.76741 0.2426177 41.60083
v 61.76741 -0.007382259 41.60083
v 61.76651 0.2426185 44.60083
v 61.76651 -0.007381455 44.60083
v 61.76643 0.2426186 44.85083
v 61.76613 0.2426189 45.85083
v 61.76605 0.2426189 46.10083
v 63.94809 0.2484291 40.35156
v 63.94818 0.2484291 40.10156
v 63.94775 0.2484291 41.35156
v 63.94767 0.2484291 41.60156
v 63.94767 -0.001570853 41.60156
v 63.94665 0.2484293 44.60156
v 63.94665 -0.001570699 44.60156
v 63.94656 0.2484293 44.85156
v 63.94622 0.2484294 45.85156
v 63.94614 0.2484294 46.10156
v 66.23812 0.25 40.35235
v 66.23821 0.25 40.10235
v 66.23778 0.25 41.35235
v 66.23769 0.25 41.60235
v 66.23769 0 41.60235
v 66.23666 0.25 44.60235
v 66.23666 0 44.60235
v 66.23657 0.25 44.85235
v 66.23623 0.25 45.85235
v 66.23614 0.25 46.10235

vn 0.0002437228 0.9999999 -4.080729E-07
vn 0.000840613 0.9999996 -3.440498E-07
vn 0.000840613 0.9999996 -3.440498E-07
vn 0.0002437228 0.9999999 -4.080729E-07
vn 0.002612031 0.9999965 -1.2747E-07
vn 0.002612031 0.9999965 -1.2747E-07
vn 0.002122709 0.7118525 0.7023258
vn 0.002122709 0.7118525 0.7023258
vn -0.0001710758 0 0.9999999
vn -0.0001710758 0 0.9999999
vn 0.0002172354 0 -0.9999999
vn 0.00029297 0.7023419 -0.7118397
vn 0.00029297 0.7023419 -0.7118397
vn 0.0002172354 0 -0.9999999
vn 0.0008406957 0.9999996 -3.440615E-07
vn 0.0008406957 0.9999996 -3.440615E-07
vn 0.002612503 0.9999965 -1.314883E-07
vn 0.002612503 0.9999965 -1.314883E-07
vn 0.003196849 0.9999949 -8.84927E-08
vn 0.003196849 0.9999949 -8.84927E-08
vn -0.002714003 0.9999964 -1.041515E-06
vn -0.002705822 0.9999964 -1.044975E-06
vn -0.002738877 0.9999962 -1.05193E-06
vn -0.002151722 0.7021418 0.7120339
vn -0.0002890341 0 0.9999999
vn -0.001723674 0.712047 -0.7021298
vn 0.0003128367 0 -0.9999999
vn -0.00271398 0.9999963 -1.049416E-06
vn -0.002738971 0.9999963 -1.046749E-06
vn -0.002747417 0.9999962 -1.057272E-06
vn -0.001454589 0.999999 -5.382041E-07
vn -0.001324417 0.9999991 -5.077667E-07
vn -0.001850243 0.9999983 -7.026288E-07
vn -0.001635035 0.7012958 0.7128685
vn -0.0003389924 0 0.9999999
vn -0.0007062844 0.7128757 -0.7012901
vn 0.0003419604 0 -0.9999999
vn -0.001454405 0.999999 -5.386551E-07
vn -0.001850028 0.9999983 -7.073698E-07
vn -0.001983629 0.999998 -7.743868E-07
vn -0.0006859793 0.9999997 -2.489355E-07
vn -0.0006859839 0.9999998 -2.512148E-07
vn -0.0006859683 0.9999997 -2.536322E-07
vn -0.0007677459 0.894427 0.4472132
vn -0.0003448184 0 1
vn 1.676179E-06 0.4472136 -0.8944272
vn 0.0003448207 0 -1
vn -0.0006858876 0.9999997 -2.436706E-07
vn -0.0006858764 0.9999997 -2.559266E-07
vn -0.0006858656 0.9999998 -2.757411E-07

vt 1 -0.1863177 0.0
vt 0.865201 0.2491091 0.0
vt 0.865201 -0.1863077 0.0
vt 1 0.2491091 0.0
vt 0.1315237 0.2491091 0.0
vt 0.1315237 -0.1862688 0.0
vt 0.06601681 0.2491091 0.0
vt 0.06601681 -0.1862589 0.0
vt 0 0.2491091 0.0
vt 0 -0.1862589 0.0
vt 0 -0.1861429 0.0
vt 0.06601681 0.2491091 0.0
vt 0.06601681 -0.1861429 0.0
vt 0 0.2491091 0.0
vt 0.1315237 0.2491091 0.0
vt 0.1315237 -0.186133 0.0
vt 0.865201 0.2491091 0.0
vt 0.865201 -0.1860941 0.0
vt 1 0.2491091 0.0
vt 1 -0.1860842 0.0
vt 0.865201 0.488368 0.0
vt 1 0.488368 0.0
vt 0.1315237 0.488368 0.0
vt 0.06601681 0.488368 0.0
vt 0 0.488368 0.0
vt 0.06601681 0.488368 0.0
vt 0 0.488368 0.0
vt 0.1315237 0.488368 0.0
vt 0.865201 0.488368 0.0
vt 1 0.488368 0.0
vt 0.865201 0.7378997 0.0
vt 1 0.7378997 0.0
vt 0.1315237 0.7378997 0.0
vt 0.06601681 0.7378997 0.0
vt 0 0.7378997 0.0
vt 0.06601681 0.7378997 0.0
vt 0 0.7378997 0.0
vt 0.1315237 0.7378997 0.0
vt 0.865201 0.7378997 0.0
vt 1 0.7378997 0.0
vt 0.865201 1 0.0
vt 1 1 0.0
vt 0.1315237 1 0.0
vt 0.06601681 1 0.0
vt 0 1 0.0
vt 0.06601681 1 0.0
vt 0 1 0.0
vt 0.1315237 1 0.0
vt 0.865201 1 0.0
vt 1 1 0.0


usemtl material
usemap material
f 12/12/12 11/11/11 13/13/13
s 1
f 12/12/12 14/14/14 11/11/11
s 1
f 15/15/15 13/13/13 16/16/16
s 1
f 15/15/15 12/12/12 13/13/13
s 1
f 17/17/17 16/16/16 18/18/18
s 1
f 17/17/17 15/15/15 16/16/16
s 1
f 19/19/19 18/18/18 20/20/20
s 1
f 19/19/19 17/17/17 18/18/18
s 1
f 22/22/22 21/21/21 23/23/23
s 1
f 22/22/22 24/24/24 21/21/21
s 1
f 25/25/25 23/23/23 26/26/26
s 1
f 25/25/25 22/22/22 23/23/23
s 1
f 27/27/27 26/26/26 28/28/28
s 1
f 27/27/27 25/25/25 26/26/26
s 1
f 29/29/29 28/28/28 30/30/30
s 1
f 29/29/29 27/27/27 28/28/28
s 1
f 31/31/31 14/14/14 12/12/12
s 1
f 31/31/31 32/32/32 14/14/14
s 1
f 33/33/33 12/12/12 15/15/15
s 1
f 33/33/33 31/31/31 12/12/12
s 1
f 34/34/34 15/15/15 17/17/17
s 1
f 34/34/34 33/33/33 15/15/15
s 1
f 35/35/35 17/17/17 19/19/19
s 1
f 35/35/35 34/34/34 17/17/17
s 1
f 36/36/36 24/24/24 22/22/22
s 1
f 36/36/36 37/37/37 24/24/24
s 1
f 38/38/38 22/22/22 25/25/25
s 1
f 38/38/38 36/36/36 22/22/22
s 1
f 39/39/39 25/25/25 27/27/27
s 1
f 39/39/39 38/38/38 25/25/25
s 1
f 40/40/40 27/27/27 29/29/29
s 1
f 40/40/40 39/39/39 27/27/27
s 1
f 41/41/41 32/32/32 31/31/31
s 1
f 41/41/41 42/42/42 32/32/32
s 1
f 43/43/43 31/31/31 33/33/33
s 1
f 43/43/43 41/41/41 31/31/31
s 1
f 44/44/44 33/33/33 34/34/34
s 1
f 44/44/44 43/43/43 33/33/33
s 1
f 45/45/45 34/34/34 35/35/35
s 1
f 45/45/45 44/44/44 34/34/34
s 1
f 46/46/46 37/37/37 36/36/36
s 1
f 46/46/46 47/47/47 37/37/37
s 1
f 48/48/48 36/36/36 38/38/38
s 1
f 48/48/48 46/46/46 36/36/36
s 1
f 49/49/49 38/38/38 39/39/39
s 1
f 49/49/49 48/48/48 38/38/38
s 1
f 50/50/50 39/39/39 40/40/40
s 1
f 50/50/50 49/49/49 39/39/39
s 1
f 51/51/51 42/42/42 41/41/41
s 1
f 51/51/51 52/52/52 42/42/42
s 1
f 53/53/53 41/41/41 43/43/43
s 1
f 53/53/53 51/51/51 41/41/41
s 1
f 54/54/54 43/43/43 44/44/44
s 1
f 54/54/54 53/53/53 43/43/43
s 1
f 55/55/55 44/44/44 45/45/45
s 1
f 55/55/55 54/54/54 44/44/44
s 1
f 56/56/56 47/47/47 46/46/46
s 1
f 56/56/56 57/57/57 47/47/47
s 1
f 58/58/58 46/46/46 48/48/48
s 1
f 58/58/58 56/56/56 46/46/46
s 1
f 59/59/59 48/48/48 49/49/49
s 1
f 59/59/59 58/58/58 48/48/48
s 1
f 60/60/60 49/49/49 50/50/50
s 1
f 60/60/60 59/59/59 49/49/49
s 1
s 1

