
# position 0 0 0
g Motorway 2x2 0011-road material
v -53.23735 0 42.46751
v -52.13142 0 45.46296
v -53.22501 0 45.46749
v -52.14397 0 42.46297
v -50.1184 0 45.4542
v -50.13106 0 42.45422
v -49.30265 0 45.45102
v -49.31435 0 42.45104

vn 0 1 0
vn 0 1 0
vn 0 1 0
vn 0 1 0
vn 0 1 0
vn 0 1 0
vn 0 0.9999999 0
vn 0 1 0

vt 0 -0.2186779 0.0
vt 1 0 0.0
vt 1 -0.2187206 0.0
vt 0 0 0.0
vt 1 0 0.0
vt 0 0 0.0
vt 1 0 0.0
vt 0 0 0.0


usemtl material
usemap material
f 2/2/2 1/1/1 3/3/3
s 1
f 2/2/2 4/4/4 1/1/1
s 1
f 5/5/5 4/4/4 2/2/2
s 1
f 5/5/5 6/6/6 4/4/4
s 1
f 7/7/7 6/6/6 5/5/5
s 1
f 7/7/7 8/8/8 6/6/6
s 1
s 1

# position 0 0 0
g Motorway 2x2 0011-sidewalk
v -53.24352 0.25 40.96753
v -52.14919 0.25 41.21299
v -53.24249 0.25 41.21753
v -52.15024 0.25 40.96299
v -52.14501 0.25 42.21298
v -53.23838 0.25 42.21752
v -52.14397 0.25 42.46297
v -53.23735 0.25 42.46751
v -52.14397 0 42.46297
v -53.23735 0 42.46751
v -53.22501 0 45.46749
v -52.13142 0.25 45.46296
v -53.22501 0.25 45.46749
v -52.13142 0 45.46296
v -52.13037 0.25 45.71295
v -53.22398 0.25 45.71749
v -52.12619 0.25 46.71294
v -53.21987 0.25 46.71748
v -52.12514 0.25 46.96294
v -53.21884 0.25 46.96748
v -50.13633 0.25 41.20423
v -50.13739 0.25 40.95424
v -50.13211 0.25 42.20422
v -50.13106 0.25 42.45422
v -50.13106 0 42.45422
v -50.1184 0.25 45.4542
v -50.1184 0 45.4542
v -50.11735 0.25 45.7042
v -50.11313 0.25 46.70419
v -50.11207 0.25 46.95419
v -49.31922 0.25 41.20105
v -49.32019 0.25 40.95105
v -49.31532 0.25 42.20104
v -49.31435 0.25 42.45104
v -49.31435 0 42.45104
v -49.30265 0.25 45.45102
v -49.30265 0 45.45102
v -49.30168 0.25 45.70102
v -49.29778 0.25 46.70101
v -49.29681 0.25 46.95101

vn 0 1 0
vn 0 0.9999999 0
vn 0 0.9999999 0
vn 0 1 0
vn 0 1 0
vn 0 1 0
vn 0.003329922 0.6342498 0.7731209
vn 0.003329922 0.6342498 0.7731209
vn 0.004246422 0 0.9999911
vn 0.004246422 0 0.9999911
vn -0.004306717 0 -0.9999906
vn -0.002693044 0.7731099 -0.6342664
vn -0.002693044 0.7731099 -0.6342664
vn -0.004306717 0 -0.9999906
vn 0 1 0
vn 0 1 0
vn 0 1 0
vn 0 1 0
vn 0 1 0
vn 0 1 0
vn 0 1 0
vn 0 0.9999999 0
vn 0 1 0
vn 0.002493903 0.7988536 0.6015203
vn 0.004272721 0 0.9999909
vn -0.003414271 0.6013808 -0.7989553
vn -0.00414803 0 -0.9999913
vn 0 1 0
vn 0 1 0
vn 0 1 0
vn 0 0.9999999 0
vn 0 0.9999999 0
vn 0 0.9999999 0
vn 0.001742023 0.8944361 0.4471925
vn 0.003895437 0 0.9999924
vn -0.003488286 0.4472163 -0.8944191
vn -0.003900028 0 -0.9999924
vn 0 1 0
vn 0 1 0
vn 0 1 0

vt 1 -0.218658 0.0
vt 0.865201 0 0.0
vt 0.865201 -0.2186611 0.0
vt 1 0 0.0
vt 0.1315237 0 0.0
vt 0.1315237 -0.2186748 0.0
vt 0.06601681 0 0.0
vt 0.06601681 -0.2186779 0.0
vt 0 0 0.0
vt 0 -0.2186779 0.0
vt 0 -0.2187206 0.0
vt 0.06601681 0 0.0
vt 0.06601681 -0.2187206 0.0
vt 0 0 0.0
vt 0.1315237 0 0.0
vt 0.1315237 -0.2187237 0.0
vt 0.865201 0 0.0
vt 0.865201 -0.2187374 0.0
vt 1 0 0.0
vt 1 -0.2187404 0.0
vt 0.865201 0 0.0
vt 1 0 0.0
vt 0.1315237 0 0.0
vt 0.06601681 0 0.0
vt 0 0 0.0
vt 0.06601681 0 0.0
vt 0 0 0.0
vt 0.1315237 0 0.0
vt 0.865201 0 0.0
vt 1 0 0.0
vt 0.865201 0 0.0
vt 1 0 0.0
vt 0.1315237 0 0.0
vt 0.06601681 0 0.0
vt 0 0 0.0
vt 0.06601681 0 0.0
vt 0 0 0.0
vt 0.1315237 0 0.0
vt 0.865201 0 0.0
vt 1 0 0.0


usemtl material
usemap material
f 10/10/10 9/9/9 11/11/11
s 1
f 10/10/10 12/12/12 9/9/9
s 1
f 13/13/13 11/11/11 14/14/14
s 1
f 13/13/13 10/10/10 11/11/11
s 1
f 15/15/15 14/14/14 16/16/16
s 1
f 15/15/15 13/13/13 14/14/14
s 1
f 17/17/17 16/16/16 18/18/18
s 1
f 17/17/17 15/15/15 16/16/16
s 1
f 20/20/20 19/19/19 21/21/21
s 1
f 20/20/20 22/22/22 19/19/19
s 1
f 23/23/23 21/21/21 24/24/24
s 1
f 23/23/23 20/20/20 21/21/21
s 1
f 25/25/25 24/24/24 26/26/26
s 1
f 25/25/25 23/23/23 24/24/24
s 1
f 27/27/27 26/26/26 28/28/28
s 1
f 27/27/27 25/25/25 26/26/26
s 1
f 29/29/29 12/12/12 10/10/10
s 1
f 29/29/29 30/30/30 12/12/12
s 1
f 31/31/31 10/10/10 13/13/13
s 1
f 31/31/31 29/29/29 10/10/10
s 1
f 32/32/32 13/13/13 15/15/15
s 1
f 32/32/32 31/31/31 13/13/13
s 1
f 33/33/33 15/15/15 17/17/17
s 1
f 33/33/33 32/32/32 15/15/15
s 1
f 34/34/34 22/22/22 20/20/20
s 1
f 34/34/34 35/35/35 22/22/22
s 1
f 36/36/36 20/20/20 23/23/23
s 1
f 36/36/36 34/34/34 20/20/20
s 1
f 37/37/37 23/23/23 25/25/25
s 1
f 37/37/37 36/36/36 23/23/23
s 1
f 38/38/38 25/25/25 27/27/27
s 1
f 38/38/38 37/37/37 25/25/25
s 1
f 39/39/39 30/30/30 29/29/29
s 1
f 39/39/39 40/40/40 30/30/30
s 1
f 41/41/41 29/29/29 31/31/31
s 1
f 41/41/41 39/39/39 29/29/29
s 1
f 42/42/42 31/31/31 32/32/32
s 1
f 42/42/42 41/41/41 31/31/31
s 1
f 43/43/43 32/32/32 33/33/33
s 1
f 43/43/43 42/42/42 32/32/32
s 1
f 44/44/44 35/35/35 34/34/34
s 1
f 44/44/44 45/45/45 35/35/35
s 1
f 46/46/46 34/34/34 36/36/36
s 1
f 46/46/46 44/44/44 34/34/34
s 1
f 47/47/47 36/36/36 37/37/37
s 1
f 47/47/47 46/46/46 36/36/36
s 1
f 48/48/48 37/37/37 38/38/38
s 1
f 48/48/48 47/47/47 37/37/37
s 1
s 1

