
# position 0 0 0
g Motorway 2x2 0018-road material
v 49.98 0 -14.5
v 47.97931 -0.01682936 -17.5
v 49.98 0 -17.5
v 47.97931 -0.01682936 -14.5
v 45.97881 -0.01725557 -17.5
v 45.97881 -0.01725557 -14.5
v 43.97847 -0.01585133 -17.5
v 43.97847 -0.01585133 -14.5
v 41.97828 -0.01385115 -17.5
v 41.97828 -0.01385115 -14.5
v 39.97822 -0.01221537 -17.5
v 39.97822 -0.01221537 -14.5
v 37.77827 -0.01130605 -17.5
v 37.77827 -0.01130605 -14.5
v 35.57842 -0.01068788 -17.5
v 35.57842 -0.01068788 -14.5
v 33.37865 -0.008847406 -17.5
v 33.37865 -0.008847406 -14.5
v 31.17893 -0.005765889 -17.5
v 31.17893 -0.005765889 -14.5
v 28.97923 -0.002706393 -17.5
v 28.97923 -0.002706393 -14.5
v 26.77951 -0.0006885772 -17.5
v 26.77951 -0.0006885772 -14.5
v 24.57976 0 -17.5
v 24.57976 0 -14.5
v 22.37994 0 -17.5
v 22.37994 0 -14.5
v 19.68401 0 -17.5
v 19.68401 0 -14.5

vn -0.002946119 0.9999956 0
vn -0.005678947 0.9999838 0
vn -0.005678947 0.9999838 0
vn -0.002946119 0.9999956 0
vn 9.194783E-05 1 0
vn 0.0003969683 0.9999999 -2.069548E-10
vn 0.0008013302 0.9999996 -4.13916E-10
vn 0.0009006597 0.9999996 -4.139262E-10
vn 0.0009392867 0.9999995 -2.069649E-10
vn 0.000878577 0.9999995 0
vn 0.0006743285 0.9999998 0
vn 0.0005397577 0.9999998 0
vn 0.0003692288 0.9999999 0
vn 0.0003251179 1 0
vn 0.0004662208 0.9999999 0
vn 0.0006514404 0.9999998 0
vn 0.001024729 0.9999995 0
vn 0.001212795 0.9999992 0
vn 0.001397533 0.999999 0
vn 0.0013942 0.999999 0
vn 0.001233013 0.9999992 0
vn 0.00107516 0.9999995 0
vn 0.0007158776 0.9999997 0
vn 0.0005144506 0.9999999 0
vn 0.0002086814 0.9999999 0
vn 0.0001043396 1 0
vn 0 1 0
vn 0 1 0
vn 0 1 0
vn 0 1 0

vt 0 -0.003923702 0.0
vt 1 0.3962286 0.0
vt 1 -0.003923702 0.0
vt 0 0.3962286 0.0
vt 1 0.7924202 0.0
vt 0 0.7924202 0.0
vt 1 1.188579 0.0
vt 0 1.188579 0.0
vt 1 1.584708 0.0
vt 0 1.584708 0.0
vt 1 1.980812 0.0
vt 0 1.980812 0.0
vt 1 2.416503 0.0
vt 0 2.416503 0.0
vt 1 2.852174 0.0
vt 0 2.852174 0.0
vt 1 3.28783 0.0
vt 0 3.28783 0.0
vt 1 3.723476 0.0
vt 0 3.723476 0.0
vt 1 4.159119 0.0
vt 0 4.159119 0.0
vt 1 4.594764 0.0
vt 0 4.594764 0.0
vt 1 5.030416 0.0
vt 0 5.030416 0.0
vt 1 5.46608 0.0
vt 0 5.46608 0.0
vt 1 6.005268 0.0
vt 0 6.005268 0.0


usemtl material
usemap material
f 2/2/2 1/1/1 3/3/3
s 1
f 2/2/2 4/4/4 1/1/1
s 1
f 5/5/5 4/4/4 2/2/2
s 1
f 5/5/5 6/6/6 4/4/4
s 1
f 7/7/7 6/6/6 5/5/5
s 1
f 7/7/7 8/8/8 6/6/6
s 1
f 9/9/9 8/8/8 7/7/7
s 1
f 9/9/9 10/10/10 8/8/8
s 1
f 11/11/11 10/10/10 9/9/9
s 1
f 11/11/11 12/12/12 10/10/10
s 1
f 13/13/13 12/12/12 11/11/11
s 1
f 13/13/13 14/14/14 12/12/12
s 1
f 15/15/15 14/14/14 13/13/13
s 1
f 15/15/15 16/16/16 14/14/14
s 1
f 17/17/17 16/16/16 15/15/15
s 1
f 17/17/17 18/18/18 16/16/16
s 1
f 19/19/19 18/18/18 17/17/17
s 1
f 19/19/19 20/20/20 18/18/18
s 1
f 21/21/21 20/20/20 19/19/19
s 1
f 21/21/21 22/22/22 20/20/20
s 1
f 23/23/23 22/22/22 21/21/21
s 1
f 23/23/23 24/24/24 22/22/22
s 1
f 25/25/25 24/24/24 23/23/23
s 1
f 25/25/25 26/26/26 24/24/24
s 1
f 27/27/27 26/26/26 25/25/25
s 1
f 27/27/27 28/28/28 26/26/26
s 1
f 29/29/29 28/28/28 27/27/27
s 1
f 29/29/29 30/30/30 28/28/28
s 1
s 1

# position 0 0 0
g Motorway 2x2 0018-sidewalk
v 49.98 0.25 -13
v 47.97931 0.2331706 -13.25
v 49.98 0.25 -13.25
v 47.97931 0.2331706 -13
v 47.97931 0.2331706 -14.25
v 49.98 0.25 -14.25
v 47.97931 0.2331706 -14.5
v 49.98 0.25 -14.5
v 47.97931 -0.01682936 -14.5
v 49.98 0 -14.5
v 49.98 0 -17.5
v 47.97931 0.2331706 -17.5
v 49.98 0.25 -17.5
v 47.97931 -0.01682936 -17.5
v 47.97931 0.2331706 -17.75
v 49.98 0.25 -17.75
v 47.97931 0.2331706 -18.75
v 49.98 0.25 -18.75
v 47.97931 0.2331706 -19
v 49.98 0.25 -19
v 45.97881 0.2327444 -13.25
v 45.97881 0.2327444 -13
v 45.97881 0.2327444 -14.25
v 45.97881 0.2327444 -14.5
v 45.97881 -0.01725557 -14.5
v 45.97881 0.2327444 -17.5
v 45.97881 -0.01725557 -17.5
v 45.97881 0.2327444 -17.75
v 45.97881 0.2327444 -18.75
v 45.97881 0.2327444 -19
v 43.97847 0.2341487 -13.25
v 43.97847 0.2341487 -13
v 43.97847 0.2341487 -14.25
v 43.97847 0.2341487 -14.5
v 43.97847 -0.01585133 -14.5
v 43.97847 0.2341487 -17.5
v 43.97847 -0.01585133 -17.5
v 43.97847 0.2341487 -17.75
v 43.97847 0.2341487 -18.75
v 43.97847 0.2341487 -19
v 41.97828 0.2361488 -13.25
v 41.97828 0.2361488 -13
v 41.97828 0.2361488 -14.25
v 41.97828 0.2361488 -14.5
v 41.97828 -0.01385115 -14.5
v 41.97828 0.2361488 -17.5
v 41.97828 -0.01385115 -17.5
v 41.97828 0.2361488 -17.75
v 41.97828 0.2361488 -18.75
v 41.97828 0.2361488 -19
v 39.97822 0.2377846 -13.25
v 39.97822 0.2377846 -13
v 39.97822 0.2377846 -14.25
v 39.97822 0.2377846 -14.5
v 39.97822 -0.01221537 -14.5
v 39.97822 0.2377846 -17.5
v 39.97822 -0.01221537 -17.5
v 39.97822 0.2377846 -17.75
v 39.97822 0.2377846 -18.75
v 39.97822 0.2377846 -19
v 37.77827 0.238694 -13.25
v 37.77827 0.238694 -13
v 37.77827 0.238694 -14.25
v 37.77827 0.238694 -14.5
v 37.77827 -0.01130605 -14.5
v 37.77827 0.238694 -17.5
v 37.77827 -0.01130605 -17.5
v 37.77827 0.238694 -17.75
v 37.77827 0.238694 -18.75
v 37.77827 0.238694 -19
v 35.57842 0.2393121 -13.25
v 35.57842 0.2393121 -13
v 35.57842 0.2393121 -14.25
v 35.57842 0.2393121 -14.5
v 35.57842 -0.01068788 -14.5
v 35.57842 0.2393121 -17.5
v 35.57842 -0.01068788 -17.5
v 35.57842 0.2393121 -17.75
v 35.57842 0.2393121 -18.75
v 35.57842 0.2393121 -19
v 33.37865 0.2411526 -13.25
v 33.37865 0.2411526 -13
v 33.37865 0.2411526 -14.25
v 33.37865 0.2411526 -14.5
v 33.37865 -0.008847406 -14.5
v 33.37865 0.2411526 -17.5
v 33.37865 -0.008847406 -17.5
v 33.37865 0.2411526 -17.75
v 33.37865 0.2411526 -18.75
v 33.37865 0.2411526 -19
v 31.17893 0.2442341 -13.25
v 31.17893 0.2442341 -13
v 31.17893 0.2442341 -14.25
v 31.17893 0.2442341 -14.5
v 31.17893 -0.005765889 -14.5
v 31.17893 0.2442341 -17.5
v 31.17893 -0.005765889 -17.5
v 31.17893 0.2442341 -17.75
v 31.17893 0.2442341 -18.75
v 31.17893 0.2442341 -19
v 28.97923 0.2472936 -13.25
v 28.97923 0.2472936 -13
v 28.97923 0.2472936 -14.25
v 28.97923 0.2472936 -14.5
v 28.97923 -0.002706393 -14.5
v 28.97923 0.2472936 -17.5
v 28.97923 -0.002706393 -17.5
v 28.97923 0.2472936 -17.75
v 28.97923 0.2472936 -18.75
v 28.97923 0.2472936 -19
v 26.77951 0.2493114 -13.25
v 26.77951 0.2493114 -13
v 26.77951 0.2493114 -14.25
v 26.77951 0.2493114 -14.5
v 26.77951 -0.0006885772 -14.5
v 26.77951 0.2493114 -17.5
v 26.77951 -0.0006885772 -17.5
v 26.77951 0.2493114 -17.75
v 26.77951 0.2493114 -18.75
v 26.77951 0.2493114 -19
v 24.57976 0.25 -13.25
v 24.57976 0.25 -13
v 24.57976 0.25 -14.25
v 24.57976 0.25 -14.5
v 24.57976 0 -14.5
v 24.57976 0.25 -17.5
v 24.57976 0 -17.5
v 24.57976 0.25 -17.75
v 24.57976 0.25 -18.75
v 24.57976 0.25 -19
v 22.37994 0.25 -13.25
v 22.37994 0.25 -13
v 22.37994 0.25 -14.25
v 22.37994 0.25 -14.5
v 22.37994 0 -14.5
v 22.37994 0.25 -17.5
v 22.37994 0 -17.5
v 22.37994 0.25 -17.75
v 22.37994 0.25 -18.75
v 22.37994 0.25 -19
v 19.68401 0.25 -13.25
v 19.68401 0.25 -13
v 19.68401 0.25 -14.25
v 19.68401 0.25 -14.5
v 19.68401 0 -14.5
v 19.68401 0.25 -17.5
v 19.68401 0 -17.5
v 19.68401 0.25 -17.75
v 19.68401 0.25 -18.75
v 19.68401 0.25 -19

vn -0.002946119 0.9999956 0
vn -0.003492706 0.9999939 0
vn -0.003492706 0.9999939 0
vn -0.002946119 0.9999956 0
vn -0.005132403 0.9999868 0
vn -0.005132403 0.9999868 0
vn -0.004015717 0.7071121 -0.7070901
vn -0.004015717 0.7071121 -0.7070901
vn 0 0 -1
vn 0 0 -1
vn 0 0 1
vn -0.002083193 0.7070942 0.7071162
vn -0.002083193 0.7070942 0.7071162
vn 0 0 1
vn -0.003492705 0.9999939 0
vn -0.003492705 0.9999939 0
vn -0.005132403 0.9999868 0
vn -0.005132403 0.9999868 0
vn -0.005678947 0.9999839 0
vn -0.005678947 0.9999839 0
vn 0.0003359654 0.9999999 0
vn 0.0003969712 1 0
vn 0.0001529523 1 0
vn 6.524368E-05 0.7071167 -0.7070969
vn 1.589102E-07 0 -1
vn 0.0002806926 0.707096 0.7071176
vn 0 0 1
vn 0.0003359629 0.9999999 3.97351E-09
vn 0.0001529524 1 0
vn 9.194939E-05 1 0
vn 0.0008807927 0.9999996 0
vn 0.0009006584 0.9999996 0
vn 0.0008211966 0.9999997 0
vn 0.0005667466 0.7071155 -0.7070979
vn 3.17846E-07 0 -1
vn 0.0006368532 0.7070951 0.7071181
vn 0 0 1
vn 0.0008807922 0.9999996 7.94735E-09
vn 0.0008211946 0.9999996 7.947224E-09
vn 0.0008013317 0.9999996 0
vn 0.0008907162 0.9999996 0
vn 0.000878574 0.9999996 0
vn 0.0009271416 0.9999995 0
vn 0.0006641807 0.707114 -0.7070992
vn 0 0 -1
vn 0.0006212394 0.7070975 0.7071159
vn 0 0 1
vn 0.0008907189 0.9999995 0
vn 0.0009271437 0.9999996 3.973741E-09
vn 0.0009392834 0.9999996 0
vn 0.0005659958 0.9999999 0
vn 0.0005397587 0.9999999 0
vn 0.0006467241 0.9999998 0
vn 0.0004689842 0.6958016 -0.7182338
vn -1.538167E-07 0 -1
vn 0.000387673 0.7182339 0.6958017
vn 0 0 1
vn 0.0005659956 0.9999999 0
vn 0.000646724 0.9999998 0
vn 0.0006743275 0.9999998 0
vn 0.0003339422 0.9999999 0
vn 0.0003251199 1 0
vn 0.0003604089 1 0
vn 0.0002609855 0.7071118 -0.7071016
vn -2.890033E-07 0 -1
vn 0.0002298928 0.7071016 0.7071118
vn 0 0 1
vn 0.0003339422 1 0
vn 0.0003604089 1 0
vn 0.000369231 0.9999999 0
vn 0.000614397 0.9999998 0
vn 0.0006514412 0.9999998 0
vn 0.0005032656 0.9999999 0
vn 0.0003296708 0.707111 -0.7071024
vn 0 0 -1
vn 0.0004606357 0.7071024 0.707111
vn 0 0 1
vn 0.000614397 0.9999998 0
vn 0.0005032655 0.9999999 0
vn 0.0004662221 1 0
vn 0.001175181 0.9999993 0
vn 0.001212795 0.9999992 0
vn 0.001062342 0.9999994 0
vn 0.0007247998 0.7071093 -0.707104
vn 1.445122E-07 0 -1
vn 0.0008575727 0.7071038 0.7071092
vn 0 0 1
vn 0.001175181 0.9999993 0
vn 0.001062342 0.9999994 0
vn 0.001024729 0.9999995 0
vn 0.001394865 0.999999 0
vn 0.001394198 0.999999 0
vn 0.001396865 0.999999 0
vn 0.0009883082 0.7071076 -0.7071053
vn 2.890296E-07 0 -1
vn 0.0009858448 0.7071044 0.7071084
vn 0 0 1
vn 0.001394865 0.999999 0
vn 0.001396865 0.999999 0
vn 0.001397531 0.999999 0
vn 0.001106728 0.9999993 0
vn 0.001075158 0.9999994 0
vn 0.001201441 0.9999993 0
vn 0.0008718699 0.7071057 -0.7071074
vn 0 0 -1
vn 0.0007602501 0.7071056 0.7071075
vn 0 0 0.9999999
vn 0.001106728 0.9999994 0
vn 0.00120144 0.9999993 0
vn 0.001233011 0.9999993 0
vn 0.0005547365 0.9999998 0
vn 0.0005144515 0.9999998 0
vn 0.0006755918 0.9999998 0
vn 0.000505996 0.7071049 -0.7071084
vn -1.44514E-07 0 -1
vn 0.0003637731 0.7071085 0.707105
vn 0 0 1
vn 0.0005547362 0.9999999 0
vn 0.0006755919 0.9999998 0
vn 0.0007158771 0.9999997 0
vn 0.0001252088 1 0
vn 0.0001043404 0.9999999 0
vn 0.0001878144 1 0
vn 0.0001474582 0.7071031 -0.7071104
vn -2.890222E-07 0 -1
vn 7.378021E-05 0.7071104 0.7071031
vn 0 0 0.9999999
vn 0.0001252088 1 0
vn 0.0001878143 1 0
vn 0.0002086831 1 0
vn 0 1 0
vn 0 1 0
vn 0 1 0
vn 0 0.6828321 -0.7305754
vn 0 0 -1
vn 0 0.7305754 0.682832
vn 0 0 1
vn 0 1 0
vn 0 1 0
vn 0 1 0
vn 0 1 0
vn 0 1 0
vn 0 0.9999999 0
vn 0 0.8944272 -0.4472136
vn 0 0 -1
vn 0 0.4472136 0.8944271
vn 0 0 0.9999999
vn 0 1 0
vn 0 0.9999999 0
vn 0 1 0

vt 1 -0.003923702 0.0
vt 0.865201 0.3962286 0.0
vt 0.865201 -0.003923702 0.0
vt 1 0.3962286 0.0
vt 0.1315237 0.3962286 0.0
vt 0.1315237 -0.003923702 0.0
vt 0.06601681 0.3962286 0.0
vt 0.06601681 -0.003923702 0.0
vt 0 0.3962286 0.0
vt 0 -0.003923702 0.0
vt 0 -0.003923702 0.0
vt 0.06601681 0.3962286 0.0
vt 0.06601681 -0.003923702 0.0
vt 0 0.3962286 0.0
vt 0.1315237 0.3962286 0.0
vt 0.1315237 -0.003923702 0.0
vt 0.865201 0.3962286 0.0
vt 0.865201 -0.003923702 0.0
vt 1 0.3962286 0.0
vt 1 -0.003923702 0.0
vt 0.865201 0.7924202 0.0
vt 1 0.7924202 0.0
vt 0.1315237 0.7924202 0.0
vt 0.06601681 0.7924202 0.0
vt 0 0.7924202 0.0
vt 0.06601681 0.7924202 0.0
vt 0 0.7924202 0.0
vt 0.1315237 0.7924202 0.0
vt 0.865201 0.7924202 0.0
vt 1 0.7924202 0.0
vt 0.865201 1.188579 0.0
vt 1 1.188579 0.0
vt 0.1315237 1.188579 0.0
vt 0.06601681 1.188579 0.0
vt 0 1.188579 0.0
vt 0.06601681 1.188579 0.0
vt 0 1.188579 0.0
vt 0.1315237 1.188579 0.0
vt 0.865201 1.188579 0.0
vt 1 1.188579 0.0
vt 0.865201 1.584708 0.0
vt 1 1.584708 0.0
vt 0.1315237 1.584708 0.0
vt 0.06601681 1.584708 0.0
vt 0 1.584708 0.0
vt 0.06601681 1.584708 0.0
vt 0 1.584708 0.0
vt 0.1315237 1.584708 0.0
vt 0.865201 1.584708 0.0
vt 1 1.584708 0.0
vt 0.865201 1.980812 0.0
vt 1 1.980812 0.0
vt 0.1315237 1.980812 0.0
vt 0.06601681 1.980812 0.0
vt 0 1.980812 0.0
vt 0.06601681 1.980812 0.0
vt 0 1.980812 0.0
vt 0.1315237 1.980812 0.0
vt 0.865201 1.980812 0.0
vt 1 1.980812 0.0
vt 0.865201 2.416503 0.0
vt 1 2.416503 0.0
vt 0.1315237 2.416503 0.0
vt 0.06601681 2.416503 0.0
vt 0 2.416503 0.0
vt 0.06601681 2.416503 0.0
vt 0 2.416503 0.0
vt 0.1315237 2.416503 0.0
vt 0.865201 2.416503 0.0
vt 1 2.416503 0.0
vt 0.865201 2.852174 0.0
vt 1 2.852174 0.0
vt 0.1315237 2.852174 0.0
vt 0.06601681 2.852174 0.0
vt 0 2.852174 0.0
vt 0.06601681 2.852174 0.0
vt 0 2.852174 0.0
vt 0.1315237 2.852174 0.0
vt 0.865201 2.852174 0.0
vt 1 2.852174 0.0
vt 0.865201 3.28783 0.0
vt 1 3.28783 0.0
vt 0.1315237 3.28783 0.0
vt 0.06601681 3.28783 0.0
vt 0 3.28783 0.0
vt 0.06601681 3.28783 0.0
vt 0 3.28783 0.0
vt 0.1315237 3.28783 0.0
vt 0.865201 3.28783 0.0
vt 1 3.28783 0.0
vt 0.865201 3.723476 0.0
vt 1 3.723476 0.0
vt 0.1315237 3.723476 0.0
vt 0.06601681 3.723476 0.0
vt 0 3.723476 0.0
vt 0.06601681 3.723476 0.0
vt 0 3.723476 0.0
vt 0.1315237 3.723476 0.0
vt 0.865201 3.723476 0.0
vt 1 3.723476 0.0
vt 0.865201 4.159119 0.0
vt 1 4.159119 0.0
vt 0.1315237 4.159119 0.0
vt 0.06601681 4.159119 0.0
vt 0 4.159119 0.0
vt 0.06601681 4.159119 0.0
vt 0 4.159119 0.0
vt 0.1315237 4.159119 0.0
vt 0.865201 4.159119 0.0
vt 1 4.159119 0.0
vt 0.865201 4.594764 0.0
vt 1 4.594764 0.0
vt 0.1315237 4.594764 0.0
vt 0.06601681 4.594764 0.0
vt 0 4.594764 0.0
vt 0.06601681 4.594764 0.0
vt 0 4.594764 0.0
vt 0.1315237 4.594764 0.0
vt 0.865201 4.594764 0.0
vt 1 4.594764 0.0
vt 0.865201 5.030416 0.0
vt 1 5.030416 0.0
vt 0.1315237 5.030416 0.0
vt 0.06601681 5.030416 0.0
vt 0 5.030416 0.0
vt 0.06601681 5.030416 0.0
vt 0 5.030416 0.0
vt 0.1315237 5.030416 0.0
vt 0.865201 5.030416 0.0
vt 1 5.030416 0.0
vt 0.865201 5.46608 0.0
vt 1 5.46608 0.0
vt 0.1315237 5.46608 0.0
vt 0.06601681 5.46608 0.0
vt 0 5.46608 0.0
vt 0.06601681 5.46608 0.0
vt 0 5.46608 0.0
vt 0.1315237 5.46608 0.0
vt 0.865201 5.46608 0.0
vt 1 5.46608 0.0
vt 0.865201 6.005268 0.0
vt 1 6.005268 0.0
vt 0.1315237 6.005268 0.0
vt 0.06601681 6.005268 0.0
vt 0 6.005268 0.0
vt 0.06601681 6.005268 0.0
vt 0 6.005268 0.0
vt 0.1315237 6.005268 0.0
vt 0.865201 6.005268 0.0
vt 1 6.005268 0.0


usemtl material
usemap material
f 32/32/32 31/31/31 33/33/33
s 1
f 32/32/32 34/34/34 31/31/31
s 1
f 35/35/35 33/33/33 36/36/36
s 1
f 35/35/35 32/32/32 33/33/33
s 1
f 37/37/37 36/36/36 38/38/38
s 1
f 37/37/37 35/35/35 36/36/36
s 1
f 39/39/39 38/38/38 40/40/40
s 1
f 39/39/39 37/37/37 38/38/38
s 1
f 42/42/42 41/41/41 43/43/43
s 1
f 42/42/42 44/44/44 41/41/41
s 1
f 45/45/45 43/43/43 46/46/46
s 1
f 45/45/45 42/42/42 43/43/43
s 1
f 47/47/47 46/46/46 48/48/48
s 1
f 47/47/47 45/45/45 46/46/46
s 1
f 49/49/49 48/48/48 50/50/50
s 1
f 49/49/49 47/47/47 48/48/48
s 1
f 51/51/51 34/34/34 32/32/32
s 1
f 51/51/51 52/52/52 34/34/34
s 1
f 53/53/53 32/32/32 35/35/35
s 1
f 53/53/53 51/51/51 32/32/32
s 1
f 54/54/54 35/35/35 37/37/37
s 1
f 54/54/54 53/53/53 35/35/35
s 1
f 55/55/55 37/37/37 39/39/39
s 1
f 55/55/55 54/54/54 37/37/37
s 1
f 56/56/56 44/44/44 42/42/42
s 1
f 56/56/56 57/57/57 44/44/44
s 1
f 58/58/58 42/42/42 45/45/45
s 1
f 58/58/58 56/56/56 42/42/42
s 1
f 59/59/59 45/45/45 47/47/47
s 1
f 59/59/59 58/58/58 45/45/45
s 1
f 60/60/60 47/47/47 49/49/49
s 1
f 60/60/60 59/59/59 47/47/47
s 1
f 61/61/61 52/52/52 51/51/51
s 1
f 61/61/61 62/62/62 52/52/52
s 1
f 63/63/63 51/51/51 53/53/53
s 1
f 63/63/63 61/61/61 51/51/51
s 1
f 64/64/64 53/53/53 54/54/54
s 1
f 64/64/64 63/63/63 53/53/53
s 1
f 65/65/65 54/54/54 55/55/55
s 1
f 65/65/65 64/64/64 54/54/54
s 1
f 66/66/66 57/57/57 56/56/56
s 1
f 66/66/66 67/67/67 57/57/57
s 1
f 68/68/68 56/56/56 58/58/58
s 1
f 68/68/68 66/66/66 56/56/56
s 1
f 69/69/69 58/58/58 59/59/59
s 1
f 69/69/69 68/68/68 58/58/58
s 1
f 70/70/70 59/59/59 60/60/60
s 1
f 70/70/70 69/69/69 59/59/59
s 1
f 71/71/71 62/62/62 61/61/61
s 1
f 71/71/71 72/72/72 62/62/62
s 1
f 73/73/73 61/61/61 63/63/63
s 1
f 73/73/73 71/71/71 61/61/61
s 1
f 74/74/74 63/63/63 64/64/64
s 1
f 74/74/74 73/73/73 63/63/63
s 1
f 75/75/75 64/64/64 65/65/65
s 1
f 75/75/75 74/74/74 64/64/64
s 1
f 76/76/76 67/67/67 66/66/66
s 1
f 76/76/76 77/77/77 67/67/67
s 1
f 78/78/78 66/66/66 68/68/68
s 1
f 78/78/78 76/76/76 66/66/66
s 1
f 79/79/79 68/68/68 69/69/69
s 1
f 79/79/79 78/78/78 68/68/68
s 1
f 80/80/80 69/69/69 70/70/70
s 1
f 80/80/80 79/79/79 69/69/69
s 1
f 81/81/81 72/72/72 71/71/71
s 1
f 81/81/81 82/82/82 72/72/72
s 1
f 83/83/83 71/71/71 73/73/73
s 1
f 83/83/83 81/81/81 71/71/71
s 1
f 84/84/84 73/73/73 74/74/74
s 1
f 84/84/84 83/83/83 73/73/73
s 1
f 85/85/85 74/74/74 75/75/75
s 1
f 85/85/85 84/84/84 74/74/74
s 1
f 86/86/86 77/77/77 76/76/76
s 1
f 86/86/86 87/87/87 77/77/77
s 1
f 88/88/88 76/76/76 78/78/78
s 1
f 88/88/88 86/86/86 76/76/76
s 1
f 89/89/89 78/78/78 79/79/79
s 1
f 89/89/89 88/88/88 78/78/78
s 1
f 90/90/90 79/79/79 80/80/80
s 1
f 90/90/90 89/89/89 79/79/79
s 1
f 91/91/91 82/82/82 81/81/81
s 1
f 91/91/91 92/92/92 82/82/82
s 1
f 93/93/93 81/81/81 83/83/83
s 1
f 93/93/93 91/91/91 81/81/81
s 1
f 94/94/94 83/83/83 84/84/84
s 1
f 94/94/94 93/93/93 83/83/83
s 1
f 95/95/95 84/84/84 85/85/85
s 1
f 95/95/95 94/94/94 84/84/84
s 1
f 96/96/96 87/87/87 86/86/86
s 1
f 96/96/96 97/97/97 87/87/87
s 1
f 98/98/98 86/86/86 88/88/88
s 1
f 98/98/98 96/96/96 86/86/86
s 1
f 99/99/99 88/88/88 89/89/89
s 1
f 99/99/99 98/98/98 88/88/88
s 1
f 100/100/100 89/89/89 90/90/90
s 1
f 100/100/100 99/99/99 89/89/89
s 1
f 101/101/101 92/92/92 91/91/91
s 1
f 101/101/101 102/102/102 92/92/92
s 1
f 103/103/103 91/91/91 93/93/93
s 1
f 103/103/103 101/101/101 91/91/91
s 1
f 104/104/104 93/93/93 94/94/94
s 1
f 104/104/104 103/103/103 93/93/93
s 1
f 105/105/105 94/94/94 95/95/95
s 1
f 105/105/105 104/104/104 94/94/94
s 1
f 106/106/106 97/97/97 96/96/96
s 1
f 106/106/106 107/107/107 97/97/97
s 1
f 108/108/108 96/96/96 98/98/98
s 1
f 108/108/108 106/106/106 96/96/96
s 1
f 109/109/109 98/98/98 99/99/99
s 1
f 109/109/109 108/108/108 98/98/98
s 1
f 110/110/110 99/99/99 100/100/100
s 1
f 110/110/110 109/109/109 99/99/99
s 1
f 111/111/111 102/102/102 101/101/101
s 1
f 111/111/111 112/112/112 102/102/102
s 1
f 113/113/113 101/101/101 103/103/103
s 1
f 113/113/113 111/111/111 101/101/101
s 1
f 114/114/114 103/103/103 104/104/104
s 1
f 114/114/114 113/113/113 103/103/103
s 1
f 115/115/115 104/104/104 105/105/105
s 1
f 115/115/115 114/114/114 104/104/104
s 1
f 116/116/116 107/107/107 106/106/106
s 1
f 116/116/116 117/117/117 107/107/107
s 1
f 118/118/118 106/106/106 108/108/108
s 1
f 118/118/118 116/116/116 106/106/106
s 1
f 119/119/119 108/108/108 109/109/109
s 1
f 119/119/119 118/118/118 108/108/108
s 1
f 120/120/120 109/109/109 110/110/110
s 1
f 120/120/120 119/119/119 109/109/109
s 1
f 121/121/121 112/112/112 111/111/111
s 1
f 121/121/121 122/122/122 112/112/112
s 1
f 123/123/123 111/111/111 113/113/113
s 1
f 123/123/123 121/121/121 111/111/111
s 1
f 124/124/124 113/113/113 114/114/114
s 1
f 124/124/124 123/123/123 113/113/113
s 1
f 125/125/125 114/114/114 115/115/115
s 1
f 125/125/125 124/124/124 114/114/114
s 1
f 126/126/126 117/117/117 116/116/116
s 1
f 126/126/126 127/127/127 117/117/117
s 1
f 128/128/128 116/116/116 118/118/118
s 1
f 128/128/128 126/126/126 116/116/116
s 1
f 129/129/129 118/118/118 119/119/119
s 1
f 129/129/129 128/128/128 118/118/118
s 1
f 130/130/130 119/119/119 120/120/120
s 1
f 130/130/130 129/129/129 119/119/119
s 1
f 131/131/131 122/122/122 121/121/121
s 1
f 131/131/131 132/132/132 122/122/122
s 1
f 133/133/133 121/121/121 123/123/123
s 1
f 133/133/133 131/131/131 121/121/121
s 1
f 134/134/134 123/123/123 124/124/124
s 1
f 134/134/134 133/133/133 123/123/123
s 1
f 135/135/135 124/124/124 125/125/125
s 1
f 135/135/135 134/134/134 124/124/124
s 1
f 136/136/136 127/127/127 126/126/126
s 1
f 136/136/136 137/137/137 127/127/127
s 1
f 138/138/138 126/126/126 128/128/128
s 1
f 138/138/138 136/136/136 126/126/126
s 1
f 139/139/139 128/128/128 129/129/129
s 1
f 139/139/139 138/138/138 128/128/128
s 1
f 140/140/140 129/129/129 130/130/130
s 1
f 140/140/140 139/139/139 129/129/129
s 1
f 141/141/141 132/132/132 131/131/131
s 1
f 141/141/141 142/142/142 132/132/132
s 1
f 143/143/143 131/131/131 133/133/133
s 1
f 143/143/143 141/141/141 131/131/131
s 1
f 144/144/144 133/133/133 134/134/134
s 1
f 144/144/144 143/143/143 133/133/133
s 1
f 145/145/145 134/134/134 135/135/135
s 1
f 145/145/145 144/144/144 134/134/134
s 1
f 146/146/146 137/137/137 136/136/136
s 1
f 146/146/146 147/147/147 137/137/137
s 1
f 148/148/148 136/136/136 138/138/138
s 1
f 148/148/148 146/146/146 136/136/136
s 1
f 149/149/149 138/138/138 139/139/139
s 1
f 149/149/149 148/148/148 138/138/138
s 1
f 150/150/150 139/139/139 140/140/140
s 1
f 150/150/150 149/149/149 139/139/139
s 1
f 151/151/151 142/142/142 141/141/141
s 1
f 151/151/151 152/152/152 142/142/142
s 1
f 153/153/153 141/141/141 143/143/143
s 1
f 153/153/153 151/151/151 141/141/141
s 1
f 154/154/154 143/143/143 144/144/144
s 1
f 154/154/154 153/153/153 143/143/143
s 1
f 155/155/155 144/144/144 145/145/145
s 1
f 155/155/155 154/154/154 144/144/144
s 1
f 156/156/156 147/147/147 146/146/146
s 1
f 156/156/156 157/157/157 147/147/147
s 1
f 158/158/158 146/146/146 148/148/148
s 1
f 158/158/158 156/156/156 146/146/146
s 1
f 159/159/159 148/148/148 149/149/149
s 1
f 159/159/159 158/158/158 148/148/148
s 1
f 160/160/160 149/149/149 150/150/150
s 1
f 160/160/160 159/159/159 149/149/149
s 1
f 161/161/161 152/152/152 151/151/151
s 1
f 161/161/161 162/162/162 152/152/152
s 1
f 163/163/163 151/151/151 153/153/153
s 1
f 163/163/163 161/161/161 151/151/151
s 1
f 164/164/164 153/153/153 154/154/154
s 1
f 164/164/164 163/163/163 153/153/153
s 1
f 165/165/165 154/154/154 155/155/155
s 1
f 165/165/165 164/164/164 154/154/154
s 1
f 166/166/166 157/157/157 156/156/156
s 1
f 166/166/166 167/167/167 157/157/157
s 1
f 168/168/168 156/156/156 158/158/158
s 1
f 168/168/168 166/166/166 156/156/156
s 1
f 169/169/169 158/158/158 159/159/159
s 1
f 169/169/169 168/168/168 158/158/158
s 1
f 170/170/170 159/159/159 160/160/160
s 1
f 170/170/170 169/169/169 159/159/159
s 1
f 171/171/171 162/162/162 161/161/161
s 1
f 171/171/171 172/172/172 162/162/162
s 1
f 173/173/173 161/161/161 163/163/163
s 1
f 173/173/173 171/171/171 161/161/161
s 1
f 174/174/174 163/163/163 164/164/164
s 1
f 174/174/174 173/173/173 163/163/163
s 1
f 175/175/175 164/164/164 165/165/165
s 1
f 175/175/175 174/174/174 164/164/164
s 1
f 176/176/176 167/167/167 166/166/166
s 1
f 176/176/176 177/177/177 167/167/167
s 1
f 178/178/178 166/166/166 168/168/168
s 1
f 178/178/178 176/176/176 166/166/166
s 1
f 179/179/179 168/168/168 169/169/169
s 1
f 179/179/179 178/178/178 168/168/168
s 1
f 180/180/180 169/169/169 170/170/170
s 1
f 180/180/180 179/179/179 169/169/169
s 1
s 1

