
# position 0 0 0
g Motorway 2x2 0010-road material
v -86.30074 0 42.58657
v -84.27349 -0.0004230004 45.58311
v -86.29618 0 45.58658
v -84.27927 -0.0004230004 42.58311
v -82.19865 -0.001423043 45.57867
v -82.20557 -0.001423043 42.57868
v -80.10186 -0.002910406 45.57347
v -80.10975 -0.002910406 42.57347
v -78.00511 -0.004422239 45.56765
v -78.01379 -0.004422239 42.56766
v -75.93039 -0.005269341 45.5614
v -75.93971 -0.005269341 42.56141
v -73.89965 -0.005144783 45.5549
v -73.90951 -0.005144783 42.55491
v -71.72163 -0.00403308 45.54758
v -71.73189 -0.00403308 42.5476
v -69.65521 -0.00242034 45.54039
v -69.66574 -0.00242034 42.54041
v -67.5471 -0.0008266348 45.53292
v -67.55771 -0.0008266348 42.53294
v -65.49022 -1.514412E-05 45.52567
v -65.50055 -1.514412E-05 42.52568
v -63.47852 -1.556308E-05 45.51892
v -63.48814 -1.556308E-05 42.51893
v -62.33605 -1.570634E-05 45.51555
v -62.34489 -1.570634E-05 42.51556

vn 0.000392718 0.9999999 -8.188709E-07
vn 0.0003016891 1 -5.534368E-07
vn 0.0003016891 1 -5.534368E-07
vn 0.000392718 0.9999999 -8.188709E-07
vn 0.0005584061 0.9999998 -1.228371E-06
vn 0.0006343039 0.9999998 -1.540773E-06
vn 0.0007133522 0.9999996 -1.800055E-06
vn 0.0007173371 0.9999997 -1.9499E-06
vn 0.0006175959 0.9999998 -1.723582E-06
vn 0.0005133919 0.9999999 -1.514785E-06
vn 0.0002540045 1 -7.600919E-07
vn 9.746992E-05 1 -2.992952E-07
vn -0.0002181142 1 7.131131E-07
vn -0.0003676794 0.9999999 1.231123E-06
vn -0.0005973335 0.9999998 2.018789E-06
vn -0.000687323 0.9999998 2.372665E-06
vn -0.000772212 0.9999996 2.686456E-06
vn -0.0007640672 0.9999997 2.687982E-06
vn -0.0006374675 0.9999998 2.246974E-06
vn -0.000516973 0.9999999 1.815548E-06
vn -0.0002648728 1 9.241971E-07
vn -0.0001333019 1 4.590303E-07
vn 1.899087E-07 1 -6.281979E-10
vn 1.641369E-07 0.9999999 -5.177255E-10
vn 1.253537E-07 1 -3.857391E-10
vn 1.253111E-07 0.9999999 -3.693551E-10

vt 1 -0.065439 0.0
vt 0 0.3388554 0.0
vt 0 -0.06568314 0.0
vt 1 0.3388554 0.0
vt 0 0.6850547 0.0
vt 1 0.6850547 0.0
vt 0 1.034932 0.0
vt 1 1.034932 0.0
vt 0 1.384816 0.0
vt 1 1.384816 0.0
vt 0 1.731038 0.0
vt 1 1.731038 0.0
vt 0 2.069927 0.0
vt 1 2.069927 0.0
vt 0 2.433408 0.0
vt 1 2.433408 0.0
vt 0 2.778276 0.0
vt 1 2.778276 0.0
vt 0 3.130117 0.0
vt 1 3.130117 0.0
vt 0 3.473439 0.0
vt 1 3.473439 0.0
vt 0 3.809254 0.0
vt 1 3.809254 0.0
vt 0 4 0.0
vt 1 4 0.0


usemtl material
usemap material
f 2/2/2 1/1/1 3/3/3
s 1
f 2/2/2 4/4/4 1/1/1
s 1
f 5/5/5 4/4/4 2/2/2
s 1
f 5/5/5 6/6/6 4/4/4
s 1
f 7/7/7 6/6/6 5/5/5
s 1
f 7/7/7 8/8/8 6/6/6
s 1
f 9/9/9 8/8/8 7/7/7
s 1
f 9/9/9 10/10/10 8/8/8
s 1
f 11/11/11 10/10/10 9/9/9
s 1
f 11/11/11 12/12/12 10/10/10
s 1
f 13/13/13 12/12/12 11/11/11
s 1
f 13/13/13 14/14/14 12/12/12
s 1
f 15/15/15 14/14/14 13/13/13
s 1
f 15/15/15 16/16/16 14/14/14
s 1
f 17/17/17 16/16/16 15/15/15
s 1
f 17/17/17 18/18/18 16/16/16
s 1
f 19/19/19 18/18/18 17/17/17
s 1
f 19/19/19 20/20/20 18/18/18
s 1
f 21/21/21 20/20/20 19/19/19
s 1
f 21/21/21 22/22/22 20/20/20
s 1
f 23/23/23 22/22/22 21/21/21
s 1
f 23/23/23 24/24/24 22/22/22
s 1
f 25/25/25 24/24/24 23/23/23
s 1
f 25/25/25 26/26/26 24/24/24
s 1
s 1

# position 0 0 0
g Motorway 2x2 0010-sidewalk
v -86.30302 0.25 41.08658
v -84.28168 0.249577 41.33311
v -86.30264 0.25 41.33658
v -84.28217 0.249577 41.08311
v -84.27975 0.249577 42.33311
v -86.30112 0.25 42.33658
v -84.27927 0.249577 42.58311
v -86.30074 0.25 42.58657
v -84.27927 -0.0004230004 42.58311
v -86.30074 0 42.58657
v -86.29618 0 45.58658
v -84.27349 0.249577 45.58311
v -86.29618 0.25 45.58658
v -84.27349 -0.0004230004 45.58311
v -84.27301 0.249577 45.83311
v -86.2958 0.25 45.83657
v -84.27109 0.249577 46.8331
v -86.29428 0.25 46.83657
v -84.2706 0.249577 47.0831
v -86.2939 0.25 47.08657
v -82.20847 0.248577 41.32868
v -82.20905 0.248577 41.07868
v -82.20615 0.248577 42.32868
v -82.20557 0.248577 42.57868
v -82.20557 -0.001423043 42.57868
v -82.19865 0.248577 45.57867
v -82.19865 -0.001423043 45.57867
v -82.19807 0.248577 45.82867
v -82.19576 0.248577 46.82867
v -82.19518 0.248577 47.07867
v -80.11303 0.2470896 41.32348
v -80.11369 0.2470896 41.07348
v -80.1104 0.2470896 42.32347
v -80.10975 0.2470896 42.57347
v -80.10975 -0.002910406 42.57347
v -80.10186 0.2470896 45.57347
v -80.10186 -0.002910406 45.57347
v -80.1012 0.2470896 45.82346
v -80.09858 0.2470896 46.82346
v -80.09792 0.2470896 47.07346
v -78.01741 0.2455778 41.31767
v -78.01814 0.2455778 41.06767
v -78.01452 0.2455778 42.31766
v -78.01379 0.2455778 42.56766
v -78.01379 -0.004422239 42.56766
v -78.00511 0.2455778 45.56765
v -78.00511 -0.004422239 45.56765
v -78.00439 0.2455778 45.81765
v -78.0015 0.2455778 46.81765
v -78.00077 0.2455778 47.06765
v -75.94359 0.2447307 41.31142
v -75.94437 0.2447307 41.06142
v -75.94048 0.2447307 42.31141
v -75.93971 0.2447307 42.56141
v -75.93971 -0.005269341 42.56141
v -75.93039 0.2447307 45.5614
v -75.93039 -0.005269341 45.5614
v -75.92962 0.2447307 45.8114
v -75.92651 0.2447307 46.81139
v -75.92574 0.2447307 47.06139
v -73.9136 0.2448552 41.30492
v -73.91443 0.2448552 41.05492
v -73.91032 0.2448552 42.30492
v -73.90951 0.2448552 42.55491
v -73.90951 -0.005144783 42.55491
v -73.89965 0.2448552 45.5549
v -73.89965 -0.005144783 45.5549
v -73.89883 0.2448552 45.8049
v -73.89555 0.2448552 46.80489
v -73.89473 0.2448552 47.05489
v -71.73616 0.2459669 41.2976
v -71.73701 0.2459669 41.0476
v -71.73274 0.2459669 42.2976
v -71.73189 0.2459669 42.5476
v -71.73189 -0.00403308 42.5476
v -71.72163 0.2459669 45.54758
v -71.72163 -0.00403308 45.54758
v -71.72078 0.2459669 45.79758
v -71.71736 0.2459669 46.79757
v -71.71651 0.2459669 47.04757
v -69.67014 0.2475797 41.29042
v -69.67101 0.2475797 41.04042
v -69.66662 0.2475797 42.29041
v -69.66574 0.2475797 42.54041
v -69.66574 -0.00242034 42.54041
v -69.65521 0.2475797 45.54039
v -69.65521 -0.00242034 45.54039
v -69.65434 0.2475797 45.79039
v -69.65082 0.2475797 46.79038
v -69.64994 0.2475797 47.04038
v -67.56213 0.2491734 41.28295
v -67.56301 0.2491734 41.03295
v -67.55859 0.2491734 42.28294
v -67.55771 0.2491734 42.53294
v -67.55771 -0.0008266348 42.53294
v -67.5471 0.2491734 45.53292
v -67.5471 -0.0008266348 45.53292
v -67.54622 0.2491734 45.78292
v -67.54269 0.2491734 46.78291
v -67.5418 0.2491734 47.03291
v -65.50484 0.2499849 41.27569
v -65.50571 0.2499849 41.0257
v -65.5014 0.2499849 42.27569
v -65.50055 0.2499849 42.52568
v -65.50055 -1.514412E-05 42.52568
v -65.49022 0.2499849 45.52567
v -65.49022 -1.514412E-05 45.52567
v -65.48936 0.2499849 45.77567
v -65.48592 0.2499849 46.77567
v -65.48506 0.2499849 47.02566
v -63.49215 0.2499844 41.26894
v -63.49296 0.2499844 41.01894
v -63.48895 0.2499844 42.26893
v -63.48814 0.2499844 42.51893
v -63.48814 -1.556308E-05 42.51893
v -63.47852 0.2499844 45.51892
v -63.47852 -1.556308E-05 45.51892
v -63.47772 0.2499844 45.76892
v -63.47451 0.2499844 46.76891
v -63.47371 0.2499844 47.01891
v -62.34858 0.2499843 41.26557
v -62.34931 0.2499843 41.01557
v -62.34563 0.2499843 42.26556
v -62.34489 0.2499843 42.51556
v -62.34489 -1.570634E-05 42.51556
v -62.33605 0.2499843 45.51555
v -62.33605 -1.570634E-05 45.51555
v -62.33531 0.2499843 45.76555
v -62.33236 0.2499843 46.76555
v -62.33163 0.2499843 47.01555

vn 0.0003928989 0.9999999 -8.267637E-07
vn 0.0003747909 1 -7.670951E-07
vn 0.0003747909 1 -7.670951E-07
vn 0.0003928989 0.9999999 -8.267637E-07
vn 0.0003201588 0.9999999 -6.06158E-07
vn 0.0003201588 0.9999999 -6.06158E-07
vn 0.001631732 0.7040871 0.7101117
vn 0.001631732 0.7040871 0.7101117
vn 0.001857254 0 0.9999983
vn 0.001857254 0 0.9999983
vn -0.001998696 0 -0.999998
vn -0.001029909 0.7101069 -0.7040931
vn -0.001029909 0.7101069 -0.7040931
vn -0.001998696 0 -0.999998
vn 0.0003744683 0.9999999 -7.650258E-07
vn 0.0003744683 0.9999999 -7.650258E-07
vn 0.000319879 0.9999999 -6.070447E-07
vn 0.000319879 0.9999999 -6.070447E-07
vn 0.0003015459 1 -5.594359E-07
vn 0.0003015459 1 -5.594359E-07
vn 0.0006193866 0.9999998 -1.480452E-06
vn 0.0006345466 0.9999997 -1.551436E-06
vn 0.0005738512 0.9999999 -1.292253E-06
vn 0.002072867 0.70585 0.7083583
vn 0.002254025 0 0.9999975
vn -0.001141051 0.708349 -0.7058615
vn -0.002368502 0 -0.9999971
vn 0.0006189274 0.9999998 -1.47838E-06
vn 0.0005734078 0.9999999 -1.292706E-06
vn 0.0005581667 0.9999998 -1.235961E-06
vn 0.0007167498 0.9999998 -1.920967E-06
vn 0.0007175627 0.9999998 -1.963862E-06
vn 0.0007143763 0.9999998 -1.828907E-06
vn 0.002396873 0.7070925 0.707117
vn 0.002580291 0 0.9999967
vn -0.001317527 0.7071062 -0.7071062
vn -0.002677436 0 -0.9999964
vn 0.0007163088 0.9999997 -1.916879E-06
vn 0.0007139216 0.9999998 -1.830649E-06
vn 0.0007130984 0.9999998 -1.813938E-06
vn 0.0005344255 0.9999999 -1.55762E-06
vn 0.0005135278 0.9999998 -1.51779E-06
vn 0.0005969745 0.9999999 -1.680337E-06
vn 0.002507931 0.7083376 0.7058694
vn 0.002852188 0 0.9999959
vn -0.00165904 0.7058653 -0.7083441
vn -0.002933293 0 -0.9999958
vn 0.0005341569 0.9999998 -1.555363E-06
vn 0.0005966607 0.9999999 -1.680279E-06
vn 0.0006174151 0.9999998 -1.731117E-06
vn 0.0001289868 1 -3.921786E-07
vn 9.749392E-05 1 -2.99759E-07
vn 0.0002229311 1 -6.675915E-07
vn 0.002390697 0.709621 0.7045796
vn 0.003075394 0 0.9999952
vn -0.002113072 0.7045799 -0.7096217
vn -0.003136315 0 -0.9999952
vn 0.0001289327 1 -3.912965E-07
vn 0.0002228348 1 -6.678946E-07
vn 0.000253948 0.9999999 -7.612106E-07
vn -0.0003383755 0.9999999 1.129249E-06
vn -0.0003677447 0.9999999 1.233314E-06
vn -0.0002486341 0.9999999 8.17163E-07
vn 0.002214561 0.6987975 0.7153161
vn 0.003255734 0 0.9999946
vn -0.002538431 0.7153062 -0.6988065
vn -0.003310718 0 -0.9999945
vn -0.0003382659 0.9999999 1.127577E-06
vn -0.0002485479 0.9999999 8.180834E-07
vn -0.0002180729 1 7.151012E-07
vn -0.0006691475 0.9999998 2.303065E-06
vn -0.0006874055 0.9999998 2.372932E-06
vn -0.0006151592 0.9999999 2.088133E-06
vn 0.001983197 0.7132683 0.7008883
vn 0.003398019 0 0.9999942
vn -0.002906689 0.7008866 -0.7132668
vn -0.003438184 0 -0.9999942
vn -0.0006689906 0.9999999 2.301453E-06
vn -0.0006150053 0.9999999 2.087611E-06
vn -0.0005972517 0.9999998 2.020268E-06
vn -0.0007657218 0.9999997 2.690398E-06
vn -0.0007640966 0.9999996 2.689355E-06
vn -0.0007706239 0.9999997 2.690323E-06
vn 0.00195441 0.7047384 0.7094645
vn 0.003500269 0 0.9999939
vn -0.003008596 0.7094592 -0.7047402
vn -0.003521627 0 -0.9999938
vn -0.000765637 0.9999997 2.690099E-06
vn -0.0007705149 0.9999997 2.689942E-06
vn -0.0007721386 0.9999996 2.68618E-06
vn -0.0005411981 0.9999998 1.901625E-06
vn -0.0005169332 0.9999999 1.818031E-06
vn -0.0006135033 0.9999998 2.161674E-06
vn 0.002035048 0.7099814 0.7042175
vn 0.003537857 0 0.9999938
vn -0.002875135 0.7042006 -0.7099952
vn -0.003530267 0 -0.9999938
vn -0.0005412538 0.9999998 1.901821E-06
vn -0.0006135345 0.9999998 2.162575E-06
vn -0.0006374674 0.9999998 2.248906E-06
vn -0.0001597403 1 5.52505E-07
vn -0.0001332712 1 4.596065E-07
vn -0.0002386722 0.9999999 8.303537E-07
vn 0.002216737 0.7096945 0.7045062
vn 0.003470532 0 0.9999939
vn -0.002555785 0.7044795 -0.7097198
vn -0.003412975 0 -0.9999942
vn -0.000159803 1 5.51909E-07
vn -0.0002387512 0.9999999 8.314381E-07
vn -0.000264916 1 9.256962E-07
vn 1.718779E-07 0.9999999 -5.488897E-10
vn 1.66338E-07 1 -5.260245E-10
vn 1.861663E-07 0.9999999 -6.111482E-10
vn 0.002006691 0.7687952 0.6394919
vn 0.003264727 0 0.9999947
vn -0.002510974 0.6394558 -0.7688238
vn -0.003139357 0 -0.9999952
vn 1.720073E-07 1 -5.48733E-10
vn 1.862889E-07 1 -6.115506E-10
vn 1.904153E-07 1 -6.315556E-10
vn 1.303006E-07 1 -3.900252E-10
vn 1.302941E-07 1 -3.83709E-10
vn 1.30318E-07 1 -3.990268E-10
vn 0.001317704 0.8944334 0.4471992
vn 0.002946296 0 0.9999956
vn -0.002636982 0.4472152 -0.8944226
vn -0.002948303 0 -0.9999956
vn 1.304341E-07 1 -3.904251E-10
vn 1.304516E-07 0.9999999 -3.994358E-10
vn 1.304685E-07 1 -4.021399E-10

vt 1 -0.06531693 0.0
vt 0.865201 0.3388554 0.0
vt 0.865201 -0.06533824 0.0
vt 1 0.3388554 0.0
vt 0.1315237 0.3388554 0.0
vt 0.1315237 -0.06541916 0.0
vt 0.06601681 0.3388554 0.0
vt 0.06601681 -0.065439 0.0
vt 0 0.3388554 0.0
vt 0 -0.065439 0.0
vt 0 -0.06568314 0.0
vt 0.06601681 0.3388554 0.0
vt 0.06601681 -0.06568314 0.0
vt 0 0.3388554 0.0
vt 0.1315237 0.3388554 0.0
vt 0.1315237 -0.06570297 0.0
vt 0.865201 0.3388554 0.0
vt 0.865201 -0.06578384 0.0
vt 1 0.3388554 0.0
vt 1 -0.06580521 0.0
vt 0.865201 0.6850547 0.0
vt 1 0.6850547 0.0
vt 0.1315237 0.6850547 0.0
vt 0.06601681 0.6850547 0.0
vt 0 0.6850547 0.0
vt 0.06601681 0.6850547 0.0
vt 0 0.6850547 0.0
vt 0.1315237 0.6850547 0.0
vt 0.865201 0.6850547 0.0
vt 1 0.6850547 0.0
vt 0.865201 1.034932 0.0
vt 1 1.034932 0.0
vt 0.1315237 1.034932 0.0
vt 0.06601681 1.034932 0.0
vt 0 1.034932 0.0
vt 0.06601681 1.034932 0.0
vt 0 1.034932 0.0
vt 0.1315237 1.034932 0.0
vt 0.865201 1.034932 0.0
vt 1 1.034932 0.0
vt 0.865201 1.384816 0.0
vt 1 1.384816 0.0
vt 0.1315237 1.384816 0.0
vt 0.06601681 1.384816 0.0
vt 0 1.384816 0.0
vt 0.06601681 1.384816 0.0
vt 0 1.384816 0.0
vt 0.1315237 1.384816 0.0
vt 0.865201 1.384816 0.0
vt 1 1.384816 0.0
vt 0.865201 1.731038 0.0
vt 1 1.731038 0.0
vt 0.1315237 1.731038 0.0
vt 0.06601681 1.731038 0.0
vt 0 1.731038 0.0
vt 0.06601681 1.731038 0.0
vt 0 1.731038 0.0
vt 0.1315237 1.731038 0.0
vt 0.865201 1.731038 0.0
vt 1 1.731038 0.0
vt 0.865201 2.069927 0.0
vt 1 2.069927 0.0
vt 0.1315237 2.069927 0.0
vt 0.06601681 2.069927 0.0
vt 0 2.069927 0.0
vt 0.06601681 2.069927 0.0
vt 0 2.069927 0.0
vt 0.1315237 2.069927 0.0
vt 0.865201 2.069927 0.0
vt 1 2.069927 0.0
vt 0.865201 2.433408 0.0
vt 1 2.433408 0.0
vt 0.1315237 2.433408 0.0
vt 0.06601681 2.433408 0.0
vt 0 2.433408 0.0
vt 0.06601681 2.433408 0.0
vt 0 2.433408 0.0
vt 0.1315237 2.433408 0.0
vt 0.865201 2.433408 0.0
vt 1 2.433408 0.0
vt 0.865201 2.778276 0.0
vt 1 2.778276 0.0
vt 0.1315237 2.778276 0.0
vt 0.06601681 2.778276 0.0
vt 0 2.778276 0.0
vt 0.06601681 2.778276 0.0
vt 0 2.778276 0.0
vt 0.1315237 2.778276 0.0
vt 0.865201 2.778276 0.0
vt 1 2.778276 0.0
vt 0.865201 3.130117 0.0
vt 1 3.130117 0.0
vt 0.1315237 3.130117 0.0
vt 0.06601681 3.130117 0.0
vt 0 3.130117 0.0
vt 0.06601681 3.130117 0.0
vt 0 3.130117 0.0
vt 0.1315237 3.130117 0.0
vt 0.865201 3.130117 0.0
vt 1 3.130117 0.0
vt 0.865201 3.473439 0.0
vt 1 3.473439 0.0
vt 0.1315237 3.473439 0.0
vt 0.06601681 3.473439 0.0
vt 0 3.473439 0.0
vt 0.06601681 3.473439 0.0
vt 0 3.473439 0.0
vt 0.1315237 3.473439 0.0
vt 0.865201 3.473439 0.0
vt 1 3.473439 0.0
vt 0.865201 3.809254 0.0
vt 1 3.809254 0.0
vt 0.1315237 3.809254 0.0
vt 0.06601681 3.809254 0.0
vt 0 3.809254 0.0
vt 0.06601681 3.809254 0.0
vt 0 3.809254 0.0
vt 0.1315237 3.809254 0.0
vt 0.865201 3.809254 0.0
vt 1 3.809254 0.0
vt 0.865201 4 0.0
vt 1 4 0.0
vt 0.1315237 4 0.0
vt 0.06601681 4 0.0
vt 0 4 0.0
vt 0.06601681 4 0.0
vt 0 4 0.0
vt 0.1315237 4 0.0
vt 0.865201 4 0.0
vt 1 4 0.0


usemtl material
usemap material
f 28/28/28 27/27/27 29/29/29
s 1
f 28/28/28 30/30/30 27/27/27
s 1
f 31/31/31 29/29/29 32/32/32
s 1
f 31/31/31 28/28/28 29/29/29
s 1
f 33/33/33 32/32/32 34/34/34
s 1
f 33/33/33 31/31/31 32/32/32
s 1
f 35/35/35 34/34/34 36/36/36
s 1
f 35/35/35 33/33/33 34/34/34
s 1
f 38/38/38 37/37/37 39/39/39
s 1
f 38/38/38 40/40/40 37/37/37
s 1
f 41/41/41 39/39/39 42/42/42
s 1
f 41/41/41 38/38/38 39/39/39
s 1
f 43/43/43 42/42/42 44/44/44
s 1
f 43/43/43 41/41/41 42/42/42
s 1
f 45/45/45 44/44/44 46/46/46
s 1
f 45/45/45 43/43/43 44/44/44
s 1
f 47/47/47 30/30/30 28/28/28
s 1
f 47/47/47 48/48/48 30/30/30
s 1
f 49/49/49 28/28/28 31/31/31
s 1
f 49/49/49 47/47/47 28/28/28
s 1
f 50/50/50 31/31/31 33/33/33
s 1
f 50/50/50 49/49/49 31/31/31
s 1
f 51/51/51 33/33/33 35/35/35
s 1
f 51/51/51 50/50/50 33/33/33
s 1
f 52/52/52 40/40/40 38/38/38
s 1
f 52/52/52 53/53/53 40/40/40
s 1
f 54/54/54 38/38/38 41/41/41
s 1
f 54/54/54 52/52/52 38/38/38
s 1
f 55/55/55 41/41/41 43/43/43
s 1
f 55/55/55 54/54/54 41/41/41
s 1
f 56/56/56 43/43/43 45/45/45
s 1
f 56/56/56 55/55/55 43/43/43
s 1
f 57/57/57 48/48/48 47/47/47
s 1
f 57/57/57 58/58/58 48/48/48
s 1
f 59/59/59 47/47/47 49/49/49
s 1
f 59/59/59 57/57/57 47/47/47
s 1
f 60/60/60 49/49/49 50/50/50
s 1
f 60/60/60 59/59/59 49/49/49
s 1
f 61/61/61 50/50/50 51/51/51
s 1
f 61/61/61 60/60/60 50/50/50
s 1
f 62/62/62 53/53/53 52/52/52
s 1
f 62/62/62 63/63/63 53/53/53
s 1
f 64/64/64 52/52/52 54/54/54
s 1
f 64/64/64 62/62/62 52/52/52
s 1
f 65/65/65 54/54/54 55/55/55
s 1
f 65/65/65 64/64/64 54/54/54
s 1
f 66/66/66 55/55/55 56/56/56
s 1
f 66/66/66 65/65/65 55/55/55
s 1
f 67/67/67 58/58/58 57/57/57
s 1
f 67/67/67 68/68/68 58/58/58
s 1
f 69/69/69 57/57/57 59/59/59
s 1
f 69/69/69 67/67/67 57/57/57
s 1
f 70/70/70 59/59/59 60/60/60
s 1
f 70/70/70 69/69/69 59/59/59
s 1
f 71/71/71 60/60/60 61/61/61
s 1
f 71/71/71 70/70/70 60/60/60
s 1
f 72/72/72 63/63/63 62/62/62
s 1
f 72/72/72 73/73/73 63/63/63
s 1
f 74/74/74 62/62/62 64/64/64
s 1
f 74/74/74 72/72/72 62/62/62
s 1
f 75/75/75 64/64/64 65/65/65
s 1
f 75/75/75 74/74/74 64/64/64
s 1
f 76/76/76 65/65/65 66/66/66
s 1
f 76/76/76 75/75/75 65/65/65
s 1
f 77/77/77 68/68/68 67/67/67
s 1
f 77/77/77 78/78/78 68/68/68
s 1
f 79/79/79 67/67/67 69/69/69
s 1
f 79/79/79 77/77/77 67/67/67
s 1
f 80/80/80 69/69/69 70/70/70
s 1
f 80/80/80 79/79/79 69/69/69
s 1
f 81/81/81 70/70/70 71/71/71
s 1
f 81/81/81 80/80/80 70/70/70
s 1
f 82/82/82 73/73/73 72/72/72
s 1
f 82/82/82 83/83/83 73/73/73
s 1
f 84/84/84 72/72/72 74/74/74
s 1
f 84/84/84 82/82/82 72/72/72
s 1
f 85/85/85 74/74/74 75/75/75
s 1
f 85/85/85 84/84/84 74/74/74
s 1
f 86/86/86 75/75/75 76/76/76
s 1
f 86/86/86 85/85/85 75/75/75
s 1
f 87/87/87 78/78/78 77/77/77
s 1
f 87/87/87 88/88/88 78/78/78
s 1
f 89/89/89 77/77/77 79/79/79
s 1
f 89/89/89 87/87/87 77/77/77
s 1
f 90/90/90 79/79/79 80/80/80
s 1
f 90/90/90 89/89/89 79/79/79
s 1
f 91/91/91 80/80/80 81/81/81
s 1
f 91/91/91 90/90/90 80/80/80
s 1
f 92/92/92 83/83/83 82/82/82
s 1
f 92/92/92 93/93/93 83/83/83
s 1
f 94/94/94 82/82/82 84/84/84
s 1
f 94/94/94 92/92/92 82/82/82
s 1
f 95/95/95 84/84/84 85/85/85
s 1
f 95/95/95 94/94/94 84/84/84
s 1
f 96/96/96 85/85/85 86/86/86
s 1
f 96/96/96 95/95/95 85/85/85
s 1
f 97/97/97 88/88/88 87/87/87
s 1
f 97/97/97 98/98/98 88/88/88
s 1
f 99/99/99 87/87/87 89/89/89
s 1
f 99/99/99 97/97/97 87/87/87
s 1
f 100/100/100 89/89/89 90/90/90
s 1
f 100/100/100 99/99/99 89/89/89
s 1
f 101/101/101 90/90/90 91/91/91
s 1
f 101/101/101 100/100/100 90/90/90
s 1
f 102/102/102 93/93/93 92/92/92
s 1
f 102/102/102 103/103/103 93/93/93
s 1
f 104/104/104 92/92/92 94/94/94
s 1
f 104/104/104 102/102/102 92/92/92
s 1
f 105/105/105 94/94/94 95/95/95
s 1
f 105/105/105 104/104/104 94/94/94
s 1
f 106/106/106 95/95/95 96/96/96
s 1
f 106/106/106 105/105/105 95/95/95
s 1
f 107/107/107 98/98/98 97/97/97
s 1
f 107/107/107 108/108/108 98/98/98
s 1
f 109/109/109 97/97/97 99/99/99
s 1
f 109/109/109 107/107/107 97/97/97
s 1
f 110/110/110 99/99/99 100/100/100
s 1
f 110/110/110 109/109/109 99/99/99
s 1
f 111/111/111 100/100/100 101/101/101
s 1
f 111/111/111 110/110/110 100/100/100
s 1
f 112/112/112 103/103/103 102/102/102
s 1
f 112/112/112 113/113/113 103/103/103
s 1
f 114/114/114 102/102/102 104/104/104
s 1
f 114/114/114 112/112/112 102/102/102
s 1
f 115/115/115 104/104/104 105/105/105
s 1
f 115/115/115 114/114/114 104/104/104
s 1
f 116/116/116 105/105/105 106/106/106
s 1
f 116/116/116 115/115/115 105/105/105
s 1
f 117/117/117 108/108/108 107/107/107
s 1
f 117/117/117 118/118/118 108/108/108
s 1
f 119/119/119 107/107/107 109/109/109
s 1
f 119/119/119 117/117/117 107/107/107
s 1
f 120/120/120 109/109/109 110/110/110
s 1
f 120/120/120 119/119/119 109/109/109
s 1
f 121/121/121 110/110/110 111/111/111
s 1
f 121/121/121 120/120/120 110/110/110
s 1
f 122/122/122 113/113/113 112/112/112
s 1
f 122/122/122 123/123/123 113/113/113
s 1
f 124/124/124 112/112/112 114/114/114
s 1
f 124/124/124 122/122/122 112/112/112
s 1
f 125/125/125 114/114/114 115/115/115
s 1
f 125/125/125 124/124/124 114/114/114
s 1
f 126/126/126 115/115/115 116/116/116
s 1
f 126/126/126 125/125/125 115/115/115
s 1
f 127/127/127 118/118/118 117/117/117
s 1
f 127/127/127 128/128/128 118/118/118
s 1
f 129/129/129 117/117/117 119/119/119
s 1
f 129/129/129 127/127/127 117/117/117
s 1
f 130/130/130 119/119/119 120/120/120
s 1
f 130/130/130 129/129/129 119/119/119
s 1
f 131/131/131 120/120/120 121/121/121
s 1
f 131/131/131 130/130/130 120/120/120
s 1
f 132/132/132 123/123/123 122/122/122
s 1
f 132/132/132 133/133/133 123/123/123
s 1
f 134/134/134 122/122/122 124/124/124
s 1
f 134/134/134 132/132/132 122/122/122
s 1
f 135/135/135 124/124/124 125/125/125
s 1
f 135/135/135 134/134/134 124/124/124
s 1
f 136/136/136 125/125/125 126/126/126
s 1
f 136/136/136 135/135/135 125/125/125
s 1
f 137/137/137 128/128/128 127/127/127
s 1
f 137/137/137 138/138/138 128/128/128
s 1
f 139/139/139 127/127/127 129/129/129
s 1
f 139/139/139 137/137/137 127/127/127
s 1
f 140/140/140 129/129/129 130/130/130
s 1
f 140/140/140 139/139/139 129/129/129
s 1
f 141/141/141 130/130/130 131/131/131
s 1
f 141/141/141 140/140/140 130/130/130
s 1
f 142/142/142 133/133/133 132/132/132
s 1
f 142/142/142 143/143/143 133/133/133
s 1
f 144/144/144 132/132/132 134/134/134
s 1
f 144/144/144 142/142/142 132/132/132
s 1
f 145/145/145 134/134/134 135/135/135
s 1
f 145/145/145 144/144/144 134/134/134
s 1
f 146/146/146 135/135/135 136/136/136
s 1
f 146/146/146 145/145/145 135/135/135
s 1
f 147/147/147 138/138/138 137/137/137
s 1
f 147/147/147 148/148/148 138/138/138
s 1
f 149/149/149 137/137/137 139/139/139
s 1
f 149/149/149 147/147/147 137/137/137
s 1
f 150/150/150 139/139/139 140/140/140
s 1
f 150/150/150 149/149/149 139/139/139
s 1
f 151/151/151 140/140/140 141/141/141
s 1
f 151/151/151 150/150/150 140/140/140
s 1
f 152/152/152 143/143/143 142/142/142
s 1
f 152/152/152 153/153/153 143/143/143
s 1
f 154/154/154 142/142/142 144/144/144
s 1
f 154/154/154 152/152/152 142/142/142
s 1
f 155/155/155 144/144/144 145/145/145
s 1
f 155/155/155 154/154/154 144/144/144
s 1
f 156/156/156 145/145/145 146/146/146
s 1
f 156/156/156 155/155/155 145/145/145
s 1
s 1

